<svg width="40" height="40" viewBox="0 0 40 40" fill="none" xmlns="http://www.w3.org/2000/svg">
<circle cx="20" cy="20" r="20" fill="#FAFCFF"/>
<g clip-path="url(#clip0)">
<path d="M11.5717 9.38409C11.4643 10.6585 10.1365 10.8597 10.1365 10.8597C11.2766 10.9133 11.5607 12.409 11.5607 12.409C11.585 11.3425 13.0286 10.8438 13.0286 10.8438C11.9473 10.7793 11.5717 9.38409 11.5717 9.38409Z" fill="#D7E057"/>
<path d="M13.0385 10.6788C12.0904 10.6222 11.7346 9.35386 11.7312 9.34116C11.7103 9.26367 11.6376 9.21309 11.5566 9.21977C11.4768 9.22687 11.4137 9.29036 11.407 9.37022C11.3123 10.4961 10.1602 10.6887 10.1115 10.6963C10.0276 10.709 9.96691 10.7835 9.97143 10.8685C9.97573 10.9533 10.0437 11.0209 10.1288 11.0249C11.1236 11.0719 11.3959 12.4266 11.3984 12.4403C11.4135 12.5187 11.4822 12.5744 11.5607 12.5744C11.5652 12.5744 11.57 12.5742 11.5745 12.5738C11.6587 12.5669 11.7241 12.4974 11.726 12.413C11.7476 11.4754 13.0695 11.0049 13.0831 11.0004C13.1576 10.9746 13.2034 10.8997 13.1924 10.8215C13.1815 10.7432 13.1173 10.6836 13.0385 10.6788ZM11.5435 11.8192C11.3941 11.4741 11.1348 11.0579 10.7075 10.8409C11.0306 10.6862 11.4137 10.4098 11.6113 9.92918C11.7822 10.2677 12.0743 10.6875 12.5297 10.8904C12.1985 11.0712 11.7669 11.376 11.5435 11.8192Z" fill="#3A312A"/>
<path d="M9.18031 11.2554C9.10433 12.1568 8.16504 12.2991 8.16504 12.2991C8.97153 12.3372 9.17256 13.3951 9.17256 13.3951C9.18978 12.6407 10.2109 12.2881 10.2109 12.2881C9.44591 12.2423 9.18031 11.2554 9.18031 11.2554Z" fill="#D7E057"/>
<path d="M10.2208 12.1231C9.58543 12.085 9.34242 11.221 9.34006 11.2124C9.31918 11.1349 9.24535 11.0841 9.16572 11.0908C9.08565 11.0981 9.02237 11.1616 9.0157 11.2417C8.95199 11.9989 8.17305 12.1306 8.14055 12.1358C8.05639 12.1485 7.99591 12.2229 8.00022 12.3077C8.00474 12.3928 8.07254 12.4603 8.15755 12.4644C8.82263 12.4956 9.00881 13.4171 9.01053 13.4261C9.02538 13.5044 9.09404 13.5604 9.17282 13.5604C9.17734 13.5604 9.18186 13.5602 9.18659 13.56C9.27075 13.5529 9.33618 13.4834 9.33812 13.399C9.35254 12.7698 10.2563 12.4474 10.2651 12.4444C10.3396 12.4186 10.3857 12.3437 10.3749 12.2656C10.3639 12.1874 10.2996 12.1278 10.2208 12.1231ZM9.16464 12.8719C9.06283 12.664 8.90679 12.4369 8.67455 12.2899C8.87902 12.1752 9.08199 12.0002 9.21135 11.7481C9.32779 11.9545 9.50385 12.184 9.75589 12.3239C9.55206 12.4453 9.31617 12.6259 9.16464 12.8719Z" fill="#3A312A"/>
<path d="M9.18031 8.31769C9.10433 9.21909 8.16504 9.36136 8.16504 9.36136C8.97153 9.39946 9.17256 10.4573 9.17256 10.4573C9.18978 9.70294 10.2109 9.35039 10.2109 9.35039C9.44591 9.30454 9.18031 8.31769 9.18031 8.31769Z" fill="#D7E057"/>
<path d="M10.2208 9.18539C9.58543 9.14751 9.34242 8.28334 9.34006 8.27473C9.31918 8.19724 9.24535 8.14645 9.16572 8.15333C9.08565 8.16044 9.02237 8.22415 9.0157 8.304C8.95199 9.0612 8.17305 9.19314 8.14055 9.1983C8.05639 9.211 7.99591 9.28526 8.00022 9.37028C8.00474 9.45508 8.07254 9.52288 8.15755 9.52675C8.82263 9.55818 9.00881 10.4794 9.01053 10.4884C9.02538 10.567 9.09404 10.6229 9.17282 10.6229C9.17734 10.6229 9.18186 10.6227 9.18659 10.6223C9.27075 10.6154 9.33618 10.5459 9.33812 10.4613C9.35254 9.83217 10.2563 9.50996 10.2651 9.50673C10.3396 9.48091 10.3857 9.40622 10.3749 9.32809C10.3639 9.24974 10.2996 9.19012 10.2208 9.18539ZM9.16464 9.93419C9.06283 9.72649 8.90679 9.4992 8.67455 9.35241C8.87902 9.23769 9.08199 9.06249 9.21135 8.81045C9.32779 9.01707 9.50385 9.2463 9.75589 9.3862C9.55206 9.5076 9.31617 9.68818 9.16464 9.93419Z" fill="#3A312A"/>
<path d="M20.5197 14.5965L8.20483 17.6513V32.7796H32.8347V17.6513L20.5197 14.5965Z" fill="#D7E057"/>
<path d="M32.8745 17.4908L20.5596 14.4362C20.5333 14.4295 20.5062 14.4295 20.4797 14.4362L8.16479 17.4908C8.09118 17.5091 8.03931 17.5754 8.03931 17.6514V22.6343C8.03931 22.7256 8.11335 22.7996 8.20461 22.7996C8.29587 22.7996 8.36991 22.7256 8.36991 22.6343V17.7808L20.5197 14.7668L32.6694 17.7805V32.6144H8.37012V24.0471C8.37012 23.9557 8.29608 23.8818 8.20482 23.8818C8.11356 23.8818 8.03952 23.9557 8.03952 24.0471V32.7797C8.03952 32.8709 8.11356 32.945 8.20482 32.945H32.8347C32.9259 32.945 33 32.8709 33 32.7797V17.6514C33 17.5754 32.9481 17.5091 32.8745 17.4908Z" fill="#3A312A"/>
<path d="M20.5198 8.315L14.624 12.4251V32.7795H26.4155V12.4251L20.5198 8.315Z" fill="#F16C7A"/>
<path d="M26.51 12.2895L20.6143 8.17954C20.5572 8.13994 20.4821 8.13994 20.4253 8.17954L14.5296 12.2895C14.4852 12.3205 14.4587 12.371 14.4587 12.4253V19.1294C14.4587 19.2209 14.5328 19.2947 14.624 19.2947C14.7153 19.2947 14.7893 19.2209 14.7893 19.1294V12.5114L20.5198 8.5166L26.2502 12.5114V32.6144H14.7893V21.0304C14.7893 20.9389 14.7153 20.8651 14.624 20.8651C14.5328 20.8651 14.4587 20.9389 14.4587 21.0304V32.7797C14.4587 32.8709 14.5328 32.945 14.624 32.945H26.4155C26.5068 32.945 26.5808 32.8709 26.5808 32.7797V12.4253C26.5808 12.371 26.5543 12.3205 26.51 12.2895Z" fill="#3A312A"/>
<path d="M18.5648 18.7841H17.1492C16.7807 18.7841 16.4819 19.0829 16.4819 19.4513V20.8672C16.4819 21.2356 16.7807 21.5344 17.1492 21.5344H18.5648C18.9335 21.5344 19.2322 21.2356 19.2322 20.8672V19.4513C19.2322 19.0829 18.9335 18.7841 18.5648 18.7841Z" fill="#8AC6DD"/>
<path d="M18.5648 18.6188H17.1492C16.6901 18.6188 16.3167 18.9923 16.3167 19.4514V20.8672C16.3167 21.3263 16.6901 21.6997 17.1492 21.6997H18.5648C19.0239 21.6997 19.3975 21.3263 19.3975 20.8672V19.4514C19.3973 18.9923 19.0239 18.6188 18.5648 18.6188ZM19.0667 20.8672C19.0667 21.144 18.8416 21.3691 18.5648 21.3691H17.1492C16.8724 21.3691 16.6473 21.144 16.6473 20.8672V19.4514C16.6473 19.1748 16.8724 18.9494 17.1492 18.9494H18.5648C18.8418 18.9494 19.0669 19.1748 19.0669 19.4514V20.8672H19.0667Z" fill="#3A312A"/>
<path d="M18.5648 23.1047H17.1492C16.7807 23.1047 16.4819 23.4034 16.4819 23.7719V25.1877C16.4819 25.5562 16.7807 25.855 17.1492 25.855H18.5648C18.9335 25.855 19.2322 25.5562 19.2322 25.1877V23.7719C19.2322 23.4034 18.9335 23.1047 18.5648 23.1047Z" fill="#8AC6DD"/>
<path d="M18.5648 22.9395H17.1492C16.6901 22.9395 16.3167 23.3129 16.3167 23.772V25.1879C16.3167 25.6467 16.6901 26.0204 17.1492 26.0204H18.5648C19.0239 26.0204 19.3975 25.647 19.3975 25.1879V23.772C19.3973 23.3129 19.0239 22.9395 18.5648 22.9395ZM19.0667 25.1879C19.0667 25.4644 18.8416 25.6898 18.5648 25.6898H17.1492C16.8724 25.6898 16.6473 25.4644 16.6473 25.1879V23.772C16.6473 23.4955 16.8724 23.2701 17.1492 23.2701H18.5648C18.8418 23.2701 19.0669 23.4955 19.0669 23.772V25.1879H19.0667Z" fill="#3A312A"/>
<path d="M23.8904 18.7841H22.4746C22.1061 18.7841 21.8074 19.0829 21.8074 19.4513V20.8672C21.8074 21.2356 22.1061 21.5344 22.4746 21.5344H23.8904C24.2589 21.5344 24.5576 21.2356 24.5576 20.8672V19.4513C24.5576 19.0829 24.2589 18.7841 23.8904 18.7841Z" fill="#8AC6DD"/>
<path d="M23.8904 18.6188H22.4746C22.0155 18.6188 21.6421 18.9923 21.6421 19.4514V20.8672C21.6421 21.3263 22.0155 21.6997 22.4746 21.6997H23.8904C24.3495 21.6997 24.723 21.3263 24.723 20.8672V19.4514C24.723 18.9923 24.3495 18.6188 23.8904 18.6188ZM24.3924 20.8672C24.3924 21.144 24.1672 21.3691 23.8904 21.3691H22.4746C22.1978 21.3691 21.9727 21.144 21.9727 20.8672V19.4514C21.9727 19.1748 22.1978 18.9494 22.4746 18.9494H23.8904C24.1672 18.9494 24.3924 19.1748 24.3924 19.4514V20.8672Z" fill="#3A312A"/>
<path d="M23.8904 23.1047H22.4746C22.1061 23.1047 21.8074 23.4034 21.8074 23.7719V25.1877C21.8074 25.5562 22.1061 25.855 22.4746 25.855H23.8904C24.2589 25.855 24.5576 25.5562 24.5576 25.1877V23.7719C24.5576 23.4034 24.2589 23.1047 23.8904 23.1047Z" fill="#8AC6DD"/>
<path d="M23.8904 22.9395H22.4746C22.0155 22.9395 21.6421 23.3129 21.6421 23.772V25.1879C21.6421 25.6467 22.0155 26.0204 22.4746 26.0204H23.8904C24.3495 26.0204 24.723 25.647 24.723 25.1879V23.772C24.723 23.3129 24.3495 22.9395 23.8904 22.9395ZM24.3924 25.1879C24.3924 25.4644 24.1672 25.6898 23.8904 25.6898H22.4746C22.1978 25.6898 21.9727 25.4644 21.9727 25.1879V23.772C21.9727 23.4955 22.1978 23.2701 22.4746 23.2701H23.8904C24.1672 23.2701 24.3924 23.4955 24.3924 23.772V25.1879Z" fill="#3A312A"/>
<path d="M12.1375 19.5555H10.7217C10.3532 19.5555 10.0544 19.8543 10.0544 20.2228V21.6386C10.0544 22.0071 10.3532 22.3058 10.7217 22.3058H12.1375C12.506 22.3058 12.8047 22.0071 12.8047 21.6386V20.2228C12.8047 19.8543 12.506 19.5555 12.1375 19.5555Z" fill="#8AC6DD"/>
<path d="M12.1375 19.3901H10.7217C10.2626 19.3901 9.88916 19.7636 9.88916 20.2227V21.6385C9.88916 22.0976 10.2626 22.471 10.7217 22.471H12.1375C12.5966 22.471 12.97 22.0976 12.97 21.6385V20.2227C12.97 19.7636 12.5966 19.3901 12.1375 19.3901ZM12.6394 21.6385C12.6394 21.9153 12.4143 22.1404 12.1375 22.1404H10.7217C10.4449 22.1404 10.2198 21.9153 10.2198 21.6385V20.2227C10.2198 19.9461 10.4449 19.7207 10.7217 19.7207H12.1375C12.4143 19.7207 12.6394 19.9461 12.6394 20.2227V21.6385Z" fill="#3A312A"/>
<path d="M12.1375 23.8762H10.7217C10.3532 23.8762 10.0544 24.175 10.0544 24.5435V25.9593C10.0544 26.3278 10.3532 26.6265 10.7217 26.6265H12.1375C12.506 26.6265 12.8047 26.3278 12.8047 25.9593V24.5435C12.8047 24.175 12.506 23.8762 12.1375 23.8762Z" fill="#8AC6DD"/>
<path d="M12.1375 23.7109H10.7217C10.2626 23.7109 9.88916 24.0844 9.88916 24.5435V25.9593C9.88916 26.4182 10.2626 26.7918 10.7217 26.7918H12.1375C12.5966 26.7918 12.97 26.4184 12.97 25.9593V24.5435C12.97 24.0844 12.5966 23.7109 12.1375 23.7109ZM12.6394 25.9593C12.6394 26.2359 12.4143 26.4612 12.1375 26.4612H10.7217C10.4449 26.4612 10.2198 26.2359 10.2198 25.9593V24.5435C10.2198 24.2669 10.4449 24.0415 10.7217 24.0415H12.1375C12.4143 24.0415 12.6394 24.2669 12.6394 24.5435V25.9593Z" fill="#3A312A"/>
<path d="M30.3177 19.5555H28.9021C28.5334 19.5555 28.2346 19.8543 28.2346 20.2228V21.6386C28.2346 22.0071 28.5334 22.3058 28.9021 22.3058H30.3177C30.6861 22.3058 30.9849 22.0071 30.9849 21.6386V20.2228C30.9849 19.8543 30.6861 19.5555 30.3177 19.5555Z" fill="#8AC6DD"/>
<path d="M30.3177 19.3901H28.9021C28.443 19.3901 28.0693 19.7636 28.0693 20.2227V21.6385C28.0693 22.0976 28.443 22.471 28.9021 22.471H30.3177C30.7768 22.471 31.1502 22.0976 31.1502 21.6385V20.2227C31.1502 19.7636 30.7768 19.3901 30.3177 19.3901ZM30.8196 21.6385C30.8196 21.9153 30.5945 22.1404 30.3177 22.1404H28.9021C28.6251 22.1404 28.3999 21.9153 28.3999 21.6385V20.2227C28.3999 19.9461 28.6251 19.7207 28.9021 19.7207H30.3177C30.5945 19.7207 30.8196 19.9461 30.8196 20.2227V21.6385Z" fill="#3A312A"/>
<path d="M30.3177 23.8762H28.9021C28.5334 23.8762 28.2346 24.175 28.2346 24.5435V25.9593C28.2346 26.3278 28.5334 26.6265 28.9021 26.6265H30.3177C30.6861 26.6265 30.9849 26.3278 30.9849 25.9593V24.5435C30.9849 24.175 30.6861 23.8762 30.3177 23.8762Z" fill="#8AC6DD"/>
<path d="M30.3177 23.7109H28.9021C28.443 23.7109 28.0693 24.0844 28.0693 24.5435V25.9593C28.0693 26.4182 28.443 26.7918 28.9021 26.7918H30.3177C30.7768 26.7918 31.1502 26.4184 31.1502 25.9593V24.5435C31.1502 24.0844 30.7768 23.7109 30.3177 23.7109ZM30.8196 25.9593C30.8196 26.2359 30.5945 26.4612 30.3177 26.4612H28.9021C28.6251 26.4612 28.3999 26.2359 28.3999 25.9593V24.5435C28.3999 24.2669 28.6251 24.0415 28.9021 24.0415H30.3177C30.5945 24.0415 30.8196 24.2669 30.8196 24.5435V25.9593Z" fill="#3A312A"/>
<path d="M23.4347 27.0491H17.6047C17.0349 27.0491 16.5732 27.511 16.5732 28.0805V32.7795H24.4664V28.0805C24.4664 27.511 24.0045 27.0491 23.4347 27.0491Z" fill="#8AC6DD"/>
<path d="M23.4347 26.8839H17.6047C16.945 26.8839 16.408 27.4209 16.408 28.0806V32.7796C16.408 32.8709 16.482 32.9449 16.5733 32.9449H24.4664C24.5576 32.9449 24.6317 32.8709 24.6317 32.7796V28.0806C24.6317 27.4209 24.0947 26.8839 23.4347 26.8839ZM24.3011 32.6143H16.7386V28.0806C16.7386 27.603 17.1271 27.2145 17.6047 27.2145H23.4347C23.9124 27.2145 24.3011 27.603 24.3011 28.0806V32.6143Z" fill="#3A312A"/>
<path d="M23.8332 13.0568C23.4772 12.082 22.7038 11.3086 21.729 10.9529C21.3519 10.8149 20.9445 10.7396 20.5198 10.7396C20.0952 10.7396 19.6875 10.8149 19.3106 10.9526C18.3358 11.3086 17.5623 12.082 17.2067 13.0568C17.0687 13.4337 16.9934 13.8413 16.9934 14.266C16.9934 14.6906 17.0687 15.0983 17.2065 15.4752C17.5623 16.45 18.3358 17.2235 19.3106 17.5793C19.6875 17.7171 20.095 17.7924 20.5196 17.7924C20.9445 17.7924 21.3519 17.7171 21.7288 17.5793C22.7036 17.2235 23.4772 16.45 23.8329 15.4752C23.9709 15.0983 24.0462 14.6906 24.0462 14.266C24.0462 13.8413 23.9709 13.4337 23.8332 13.0568Z" fill="#FCE8CB"/>
<path d="M23.9884 13C23.6141 11.9744 22.8112 11.1716 21.7859 10.7973C20.9761 10.5011 20.0635 10.5013 19.2538 10.7973C18.2284 11.1716 17.4256 11.9746 17.0515 13C16.9032 13.4047 16.8281 13.8306 16.8281 14.2658C16.8281 14.701 16.9032 15.127 17.0513 15.5316C17.4254 16.5572 18.2284 17.36 19.2536 17.7343C19.6587 17.8824 20.0844 17.9575 20.5196 17.9575C20.9548 17.9575 21.3808 17.8824 21.7856 17.7343C22.811 17.36 23.6139 16.5572 23.9879 15.5318C24.1365 15.127 24.2116 14.701 24.2116 14.2658C24.2116 13.8306 24.1365 13.4047 23.9884 13ZM23.6778 15.4184C23.3371 16.3521 22.6059 17.083 21.6722 17.424C20.9357 17.6934 20.1042 17.6934 19.3673 17.4238C18.4336 17.083 17.7026 16.3521 17.3617 15.4182C17.227 15.0499 17.1587 14.6623 17.1587 14.2658C17.1587 13.8694 17.227 13.4817 17.3619 13.1134C17.7028 12.1795 18.4336 11.4486 19.3675 11.1079C19.7357 10.9729 20.1234 10.9047 20.5198 10.9047C20.9161 10.9047 21.304 10.9729 21.6722 11.1079C22.6061 11.4486 23.3371 12.1795 23.6778 13.1134C23.8125 13.4817 23.881 13.8694 23.881 14.2658C23.881 14.6623 23.8125 15.0499 23.6778 15.4184Z" fill="#3A312A"/>
<path d="M20.5289 14.1435C19.8014 14.1435 19.2114 14.8596 19.2114 15.4635C19.2114 16.0675 19.8014 16.1727 20.5289 16.1727C21.2564 16.1727 21.8461 16.0675 21.8461 15.4635C21.8461 14.8596 21.2564 14.1435 20.5289 14.1435Z" fill="#87796F"/>
<path d="M20.5289 13.9782C19.6938 13.9782 19.0461 14.7767 19.0461 15.4636C19.0461 16.3383 20.0853 16.3383 20.5289 16.3383C20.9725 16.3383 22.0114 16.3383 22.0114 15.4636C22.0114 14.7767 21.3638 13.9782 20.5289 13.9782ZM20.5289 16.0077C19.5726 16.0077 19.3767 15.7901 19.3767 15.4636C19.3767 14.9438 19.9084 14.3088 20.5289 14.3088C21.1492 14.3088 21.6808 14.9438 21.6808 15.4636C21.6808 15.7903 21.485 16.0077 20.5289 16.0077Z" fill="#3A312A"/>
<path d="M20.5289 12.3589C20.2439 12.3589 20.0129 12.6555 20.0129 13.021C20.0129 13.3867 20.2439 13.6833 20.5289 13.6833C20.8138 13.6833 21.0448 13.3867 21.0448 13.021C21.0448 12.6555 20.8138 12.3589 20.5289 12.3589Z" fill="#87796F"/>
<path d="M20.5289 12.1937C20.1533 12.1937 19.8477 12.5649 19.8477 13.021C19.8477 13.4773 20.1531 13.8486 20.5289 13.8486C20.9045 13.8486 21.2101 13.4773 21.2101 13.021C21.2101 12.5649 20.9045 12.1937 20.5289 12.1937ZM20.5289 13.518C20.3388 13.518 20.1783 13.2905 20.1783 13.021C20.1783 12.7518 20.3388 12.5243 20.5289 12.5243C20.7189 12.5243 20.8795 12.7518 20.8795 13.021C20.8795 13.2905 20.7189 13.518 20.5289 13.518Z" fill="#3A312A"/>
<path d="M19.5166 13.3044C19.3457 12.9811 19.0031 12.827 18.7512 12.96C18.4992 13.0933 18.4335 13.4632 18.6042 13.7865C18.7751 14.1098 19.1178 14.2639 19.3698 14.1309C19.6216 13.9977 19.6875 13.6279 19.5166 13.3044Z" fill="#87796F"/>
<path d="M19.6631 13.2272C19.4498 12.8241 19.0066 12.6384 18.674 12.814C18.5064 12.9029 18.3934 13.0658 18.3566 13.2731C18.3224 13.4653 18.3585 13.6751 18.4582 13.8639C18.5578 14.0527 18.7109 14.2005 18.8889 14.2808C18.9836 14.3234 19.0798 14.3447 19.1732 14.3447C19.2692 14.3447 19.3619 14.3221 19.447 14.2772C19.6148 14.1885 19.7276 14.0256 19.7646 13.8181C19.7986 13.6259 19.7627 13.4162 19.6631 13.2272ZM19.439 13.7602C19.4205 13.865 19.3684 13.9448 19.2926 13.9847C19.2169 14.0247 19.1217 14.023 19.0244 13.9791C18.9132 13.9291 18.8159 13.8333 18.7505 13.7094C18.685 13.5854 18.6607 13.4509 18.682 13.331C18.7007 13.2262 18.7526 13.1463 18.8286 13.1063C18.8652 13.0869 18.9054 13.0779 18.9476 13.0779C19.0989 13.0779 19.272 13.1954 19.3705 13.3818C19.4362 13.5058 19.4603 13.6401 19.439 13.7602Z" fill="#3A312A"/>
<path d="M18.4548 14.2885C18.1636 14.0673 17.7878 14.0718 17.6156 14.2986C17.4432 14.5255 17.5394 14.8888 17.8304 15.1099C18.1217 15.3313 18.4975 15.3266 18.6699 15.0997C18.8423 14.8731 18.7461 14.5098 18.4548 14.2885Z" fill="#87796F"/>
<path d="M18.5548 14.1571C18.1917 13.8812 17.7113 13.8997 17.4838 14.1989C17.3689 14.35 17.3355 14.5454 17.3893 14.749C17.4393 14.9376 17.5607 15.1125 17.7307 15.2417C17.8977 15.3689 18.0951 15.4384 18.2871 15.4384H18.2968C18.5075 15.4358 18.6866 15.3512 18.8015 15.1999C19.0286 14.9008 18.9179 14.433 18.5548 14.1571ZM18.5383 15C18.4864 15.0682 18.3992 15.1065 18.2927 15.1078H18.2869C18.1668 15.1078 18.0404 15.062 17.9304 14.9787C17.8189 14.8936 17.7402 14.7822 17.709 14.6642C17.6816 14.5613 17.6952 14.4671 17.7471 14.3988C17.8017 14.3269 17.8932 14.2914 17.9974 14.2914C18.1123 14.2914 18.2423 14.3347 18.3549 14.4201C18.5693 14.5831 18.6532 14.8487 18.5383 15Z" fill="#3A312A"/>
<path d="M22.3146 12.96C22.0626 12.827 21.72 12.9811 21.5491 13.3044C21.3784 13.6279 21.444 13.9977 21.6961 14.1309C21.9479 14.2639 22.2908 14.1098 22.4614 13.7865C22.6323 13.4632 22.5665 13.0933 22.3146 12.96Z" fill="#87796F"/>
<path d="M22.7094 13.2731C22.6724 13.0658 22.5596 12.9026 22.3919 12.814C22.224 12.7253 22.0258 12.724 21.8336 12.8105C21.6558 12.8904 21.5026 13.0384 21.4031 13.2272C21.3032 13.4162 21.2673 13.6258 21.3013 13.818C21.3381 14.0253 21.4509 14.1884 21.6188 14.2771C21.7038 14.3221 21.7961 14.3432 21.8902 14.3432C22.1631 14.3432 22.4489 14.1639 22.6078 13.8639C22.7074 13.6751 22.7434 13.4653 22.7094 13.2731ZM22.3153 13.7093C22.1894 13.9476 21.9414 14.0735 21.7731 13.9848C21.6973 13.9448 21.6455 13.8649 21.6267 13.7601C21.6056 13.6402 21.6298 13.5057 21.6952 13.3817C21.7608 13.2578 21.8581 13.162 21.9692 13.1121C22.0665 13.0684 22.1614 13.0662 22.2374 13.1065C22.3133 13.1465 22.3652 13.2261 22.3837 13.3312C22.405 13.4511 22.3807 13.5854 22.3153 13.7093Z" fill="#3A312A"/>
<path d="M23.424 14.2986C23.2516 14.0718 22.8758 14.0673 22.5848 14.2885C22.2936 14.5098 22.1974 14.8731 22.3698 15.0997C22.5422 15.3268 22.9178 15.3313 23.209 15.1099C23.5002 14.8888 23.5964 14.5255 23.424 14.2986Z" fill="#87796F"/>
<path d="M23.5554 14.1987C23.4407 14.0473 23.2614 13.9628 23.0509 13.9602C22.8523 13.9572 22.6545 14.0278 22.4846 14.1569C22.3146 14.286 22.1934 14.461 22.1435 14.6496C22.0897 14.8532 22.123 15.0486 22.238 15.1997C22.3529 15.351 22.532 15.4356 22.7427 15.4382H22.7522C22.9444 15.4382 23.1415 15.3687 23.3088 15.2415C23.4788 15.1123 23.6 14.9373 23.6499 14.7488C23.7039 14.5452 23.6704 14.3498 23.5554 14.1987ZM23.3305 14.664C23.2993 14.7819 23.2205 14.8934 23.1088 14.9785C22.9971 15.0633 22.8678 15.1067 22.7468 15.1076C22.6402 15.1063 22.5531 15.068 22.5012 14.9998C22.4493 14.9315 22.4358 14.8373 22.4629 14.7344C22.4941 14.6164 22.5729 14.5049 22.6846 14.4199C22.7929 14.3377 22.9226 14.2908 23.0412 14.2908H23.0468C23.1532 14.2921 23.2403 14.3304 23.2922 14.3986C23.3441 14.4668 23.3576 14.5611 23.3305 14.664Z" fill="#3A312A"/>
<path d="M20.5198 26.936C20.4285 26.936 20.3545 27.01 20.3545 27.1013V32.7275C20.3545 32.819 20.4285 32.8928 20.5198 32.8928C20.6111 32.8928 20.6851 32.819 20.6851 32.7275V27.1013C20.6851 27.01 20.6111 26.936 20.5198 26.936Z" fill="#3A312A"/>
<path d="M31.0164 17.3702V19.7716C31.1012 19.9016 31.1507 20.0559 31.1507 20.2223V21.6384C31.1507 21.8037 31.1022 21.9591 31.0164 22.0891V24.0925C31.1012 24.2225 31.1507 24.3768 31.1507 24.5432V25.9592C31.1507 26.1256 31.1012 26.2799 31.0164 26.4099V28.4135C31.1012 28.5425 31.1507 28.6979 31.1507 28.8642V30.2803C31.1507 30.4467 31.1012 30.601 31.0164 30.731V32.6143H32.6694V17.7803L31.0164 17.3702Z" fill="#B9C239"/>
<path d="M12.1375 28.1969H10.7217C10.3532 28.1969 10.0544 28.4956 10.0544 28.8641V30.28C10.0544 30.6484 10.3532 30.9472 10.7217 30.9472H12.1375C12.506 30.9472 12.8047 30.6484 12.8047 30.28V28.8641C12.8047 28.4956 12.506 28.1969 12.1375 28.1969Z" fill="#8AC6DD"/>
<path d="M12.1375 28.0315H10.7217C10.2626 28.0315 9.88916 28.4049 9.88916 28.864V30.2798C9.88916 30.7387 10.2626 31.1124 10.7217 31.1124H12.1375C12.5966 31.1124 12.97 30.7389 12.97 30.2798V28.864C12.97 28.4049 12.5966 28.0315 12.1375 28.0315ZM12.6394 30.2798C12.6394 30.5564 12.4143 30.7818 12.1375 30.7818H10.7217C10.4449 30.7818 10.2198 30.5564 10.2198 30.2798V28.864C10.2198 28.5872 10.4449 28.3621 10.7217 28.3621H12.1375C12.4143 28.3621 12.6394 28.5872 12.6394 28.864V30.2798Z" fill="#3A312A"/>
<path d="M30.3177 28.1969H28.9021C28.5334 28.1969 28.2346 28.4956 28.2346 28.8641V30.28C28.2346 30.6484 28.5334 30.9472 28.9021 30.9472H30.3177C30.6861 30.9472 30.9849 30.6484 30.9849 30.28V28.8641C30.9849 28.4956 30.6861 28.1969 30.3177 28.1969Z" fill="#8AC6DD"/>
<path d="M30.3177 28.0315H28.9021C28.443 28.0315 28.0693 28.4049 28.0693 28.864V30.2798C28.0693 30.7387 28.443 31.1124 28.9021 31.1124H30.3177C30.7768 31.1124 31.1502 30.7389 31.1502 30.2798V28.864C31.1502 28.4049 30.7768 28.0315 30.3177 28.0315ZM30.8196 30.2798C30.8196 30.5564 30.5945 30.7818 30.3177 30.7818H28.9021C28.6251 30.7818 28.3999 30.5564 28.3999 30.2798V28.864C28.3999 28.5872 28.6251 28.3621 28.9021 28.3621H30.3177C30.5945 28.3621 30.8196 28.5872 30.8196 28.864V30.2798Z" fill="#3A312A"/>
</g>
<defs>
<clipPath id="clip0">
<rect width="25" height="25" fill="white" transform="translate(8 8)"/>
</clipPath>
</defs>
</svg>
