<svg width="40" height="40" viewBox="0 0 40 40" fill="none" xmlns="http://www.w3.org/2000/svg">
<circle cx="20" cy="20" r="20" fill="#079477" fill-opacity="0.1"/>
<g clip-path="url(#clip0)">
<path d="M12.3098 22.6641H27.5883V24.6493H12.3098V22.6641Z" fill="#8AC6DD"/>
<path d="M27.5885 22.5116H12.31C12.2258 22.5116 12.1575 22.5799 12.1575 22.6641V24.6494C12.1575 24.7336 12.2258 24.8019 12.31 24.8019H27.5885C27.6727 24.8019 27.741 24.7336 27.741 24.6494V22.6641C27.741 22.5799 27.6727 22.5116 27.5885 22.5116ZM27.4359 24.4968H12.4626V22.8167H27.4359V24.4968Z" fill="#3A312A"/>
<path d="M11.7482 9.64526C11.6493 10.8211 10.4236 11.0068 10.4236 11.0068C11.4759 11.0565 11.7381 12.4365 11.7381 12.4365C11.7605 11.4525 13.0927 10.9923 13.0927 10.9923C12.0948 10.9325 11.7482 9.64526 11.7482 9.64526Z" fill="#D7E057"/>
<path d="M13.102 10.8399C12.2269 10.7877 11.8988 9.61721 11.8956 9.60529C11.8761 9.53399 11.8088 9.48691 11.7345 9.49347C11.6606 9.50002 11.6024 9.55861 11.5963 9.6325C11.5089 10.6713 10.4458 10.8491 10.4008 10.856C10.3233 10.8677 10.2673 10.9363 10.2715 11.0147C10.2754 11.093 10.3382 11.1555 10.4167 11.1593C11.3345 11.2024 11.5859 12.4526 11.5881 12.4653C11.6022 12.5376 11.6656 12.589 11.7381 12.589C11.7423 12.589 11.7466 12.5888 11.7508 12.5884C11.8285 12.5821 11.8888 12.5181 11.8906 12.44C11.9103 11.5748 13.1304 11.1408 13.1428 11.1365C13.2115 11.1126 13.2538 11.0435 13.2439 10.9714C13.2339 10.8993 13.1745 10.8443 13.102 10.8399ZM11.7222 11.892C11.5844 11.5736 11.3452 11.1895 10.9507 10.9893C11.2489 10.8465 11.6024 10.5915 11.7848 10.1479C11.9425 10.4604 12.212 10.8477 12.6323 11.035C12.3266 11.2018 11.9284 11.4831 11.7222 11.892Z" fill="#3A312A"/>
<path d="M9.5414 11.3719C9.47148 12.2036 8.60449 12.3351 8.60449 12.3351C9.34873 12.37 9.53425 13.3463 9.53425 13.3463C9.55014 12.6503 10.4924 12.3247 10.4924 12.3247C9.7867 12.2824 9.5414 11.3719 9.5414 11.3719Z" fill="#D7E057"/>
<path d="M10.5017 12.1725C9.9152 12.1376 9.69096 11.3403 9.68877 11.3322C9.66951 11.2609 9.60118 11.2144 9.52789 11.2201C9.4542 11.2269 9.39581 11.2855 9.38945 11.3594C9.33066 12.0579 8.61184 12.1797 8.58185 12.1845C8.50439 12.1962 8.44837 12.2647 8.45235 12.3432C8.45652 12.4214 8.51928 12.484 8.59774 12.4876C9.21129 12.5166 9.38309 13.3667 9.38468 13.375C9.39859 13.4475 9.46195 13.4991 9.53444 13.4991C9.53862 13.4991 9.54299 13.4989 9.54716 13.4986C9.62502 13.4922 9.6852 13.428 9.68719 13.35C9.70029 12.7694 10.5343 12.4721 10.5427 12.4691C10.6114 12.4453 10.6537 12.3763 10.6438 12.3042C10.6336 12.2319 10.5742 12.1769 10.5017 12.1725ZM9.5269 12.8636C9.43295 12.6719 9.28895 12.4621 9.07463 12.3267C9.26332 12.2208 9.45063 12.0593 9.57 11.8267C9.67745 12.0172 9.83993 12.229 10.0725 12.3581C9.88422 12.4699 9.66693 12.6367 9.5269 12.8636Z" fill="#3A312A"/>
<path d="M9.5414 8.66101C9.47148 9.49284 8.60449 9.62413 8.60449 9.62413C9.34873 9.65909 9.53425 10.6353 9.53425 10.6353C9.55014 9.93935 10.4924 9.6138 10.4924 9.6138C9.7867 9.5717 9.5414 8.66101 9.5414 8.66101Z" fill="#D7E057"/>
<path d="M10.5017 9.46162C9.9152 9.42647 9.69096 8.6292 9.68877 8.62105C9.66951 8.54975 9.60118 8.50247 9.52789 8.50903C9.4542 8.51578 9.39581 8.57438 9.38945 8.64806C9.33066 9.34682 8.61184 9.46858 8.58185 9.47334C8.50439 9.48506 8.44837 9.55359 8.45235 9.63204C8.45652 9.7103 8.51928 9.77267 8.59774 9.77644C9.21129 9.80524 9.38309 10.6555 9.38468 10.6639C9.39859 10.7364 9.46195 10.7878 9.53444 10.7878C9.53862 10.7878 9.54299 10.7878 9.54716 10.7874C9.62502 10.7811 9.6852 10.7169 9.68719 10.6389C9.70029 10.0583 10.5343 9.76075 10.5427 9.75797C10.6114 9.73413 10.6537 9.66501 10.6438 9.59291C10.6336 9.52101 10.5742 9.46599 10.5017 9.46162ZM9.5269 10.1524C9.43295 9.96076 9.28895 9.75122 9.07463 9.61556C9.26332 9.50969 9.45063 9.34821 9.57 9.11562C9.67745 9.3061 9.83993 9.51783 10.0725 9.64674C9.88442 9.75876 9.66693 9.92561 9.5269 10.1524Z" fill="#3A312A"/>
<path d="M27.5884 17.3942H29.3947V30.2668H27.5884V17.3942Z" fill="#87796F"/>
<path d="M29.3949 17.2418H27.5886C27.5046 17.2418 27.436 17.3101 27.436 17.3943V30.2669C27.436 30.3511 27.5046 30.4194 27.5886 30.4194H29.3949C29.4789 30.4194 29.5474 30.3511 29.5474 30.2669V17.3943C29.5474 17.3101 29.4789 17.2418 29.3949 17.2418ZM29.2423 30.1143H27.7411V17.5468H29.2423V30.1143Z" fill="#3A312A"/>
<path d="M26.7119 30.2668H30.2712V31.3346H26.7119V30.2668Z" fill="#87796F"/>
<path d="M30.2709 30.1143H26.7116C26.6274 30.1143 26.5591 30.1826 26.5591 30.2668V31.3346C26.5591 31.419 26.6274 31.4871 26.7116 31.4871H30.2709C30.3552 31.4871 30.4235 31.419 30.4235 31.3346V30.2668C30.4235 30.1826 30.3552 30.1143 30.2709 30.1143ZM30.1184 31.1821H26.8642V30.4193H30.1184V31.1821Z" fill="#3A312A"/>
<path d="M10.5037 17.3942H12.3099V30.2668H10.5037V17.3942Z" fill="#87796F"/>
<path d="M12.3099 17.2418H10.5036C10.4196 17.2418 10.3511 17.3101 10.3511 17.3943V25.2431C10.3511 25.3273 10.4196 25.3956 10.5036 25.3956C10.5878 25.3956 10.6562 25.3273 10.6562 25.2431V17.5468H12.1574V30.1143H10.6562V26.5959C10.6562 26.5115 10.5878 26.4434 10.5036 26.4434C10.4196 26.4434 10.3511 26.5115 10.3511 26.5959V30.2669C10.3511 30.3513 10.4196 30.4194 10.5036 30.4194H12.3099C12.3939 30.4194 12.4624 30.3513 12.4624 30.2669V17.3943C12.4624 17.3101 12.3939 17.2418 12.3099 17.2418Z" fill="#3A312A"/>
<path d="M9.6272 30.2668H13.1865V31.3346H9.6272V30.2668Z" fill="#87796F"/>
<path d="M13.1865 30.1143H9.62715C9.54294 30.1143 9.47461 30.1826 9.47461 30.2668V31.3346C9.47461 31.419 9.54294 31.4871 9.62715 31.4871H13.1865C13.2707 31.4871 13.339 31.419 13.339 31.3346V30.2668C13.339 30.1826 13.2707 30.1143 13.1865 30.1143ZM13.0339 31.1821H9.77969V30.4193H13.0339V31.1821Z" fill="#3A312A"/>
<path d="M31.1938 14.513H8.80626C8.44516 14.513 8.15259 14.8058 8.15259 15.1667V16.7406C8.15259 17.1017 8.44516 17.3942 8.80626 17.3942H31.1938C31.5549 17.3942 31.8475 17.1017 31.8475 16.7406V15.1667C31.8475 14.8058 31.5549 14.513 31.1938 14.513Z" fill="#F16C7A"/>
<path d="M31.1938 14.3605H25.9372C25.853 14.3605 25.7847 14.4289 25.7847 14.5131C25.7847 14.5975 25.853 14.6656 25.9372 14.6656H31.1938C31.4701 14.6656 31.6949 14.8905 31.6949 15.1667V16.7406C31.6949 17.0169 31.4701 17.2418 31.1938 17.2418H8.80621C8.52993 17.2418 8.30508 17.0169 8.30508 16.7406V15.1669C8.30508 14.8907 8.52993 14.6658 8.80621 14.6658H24.639C24.7233 14.6658 24.7916 14.5975 24.7916 14.5133C24.7916 14.4291 24.7233 14.3607 24.639 14.3607H8.80621C8.36169 14.3607 8 14.7224 8 15.1669V16.7408C8 17.1853 8.36169 17.5468 8.80621 17.5468H31.1938C31.6383 17.5468 32 17.1853 32 16.7408V15.1669C32 14.7222 31.6383 14.3605 31.1938 14.3605Z" fill="#3A312A"/>
<path d="M31.1934 14.666H29.668C29.9445 14.666 30.1693 14.8906 30.1693 15.1673V16.7404C30.1693 17.0171 29.9445 17.2417 29.668 17.2417H31.1934C31.4699 17.2417 31.6947 17.0171 31.6947 16.7404V15.1673C31.6947 14.8906 31.4699 14.666 31.1934 14.666Z" fill="#D34E5C"/>
<path d="M27.7211 17.4043C27.6941 17.3244 27.6071 17.2817 27.5276 17.3089L12.2734 22.4954C12.1935 22.5226 12.151 22.6092 12.178 22.689C12.1997 22.7526 12.2589 22.7925 12.3224 22.7925C12.3387 22.7925 12.3552 22.7899 12.3715 22.7842L27.6257 17.5977C27.7056 17.5707 27.7481 17.4841 27.7211 17.4043Z" fill="#3A312A"/>
<path d="M27.6253 22.4957L12.3711 17.3093C12.2916 17.2821 12.2046 17.325 12.1776 17.4046C12.1504 17.4845 12.1931 17.5711 12.273 17.5981L27.5272 22.7845C27.5435 22.7903 27.56 22.7929 27.5763 22.7929C27.6398 22.7929 27.699 22.7527 27.7207 22.6894C27.7477 22.6095 27.7052 22.5229 27.6253 22.4957Z" fill="#3A312A"/>
</g>
<defs>
<clipPath id="clip0">
<rect width="24" height="24" fill="white" transform="translate(8 8)"/>
</clipPath>
</defs>
</svg>
