<svg width="24" height="24" viewBox="0 0 24 24" fill="none" xmlns="http://www.w3.org/2000/svg">
<g clip-path="url(#clip0)">
<path d="M4.84396 17.5186C4.74067 18.7467 3.46094 18.9406 3.46094 18.9406C4.5596 18.9923 4.83338 20.4336 4.83338 20.4336C4.85682 19.4059 6.24813 18.9255 6.24813 18.9255C5.20589 18.8631 4.84396 17.5186 4.84396 17.5186Z" fill="#D7E057"/>
<path d="M6.25755 18.7664C5.34369 18.7117 5.00105 17.4894 4.99773 17.4769C4.9774 17.4025 4.90709 17.3542 4.82952 17.36C4.75257 17.367 4.69159 17.4282 4.68516 17.5052C4.5939 18.5899 3.48383 18.7758 3.43695 18.783C3.35586 18.7953 3.29757 18.8668 3.30172 18.9487C3.30608 19.0305 3.37141 19.0958 3.45334 19.0997C4.412 19.1447 4.67437 20.4502 4.67686 20.4635C4.69159 20.539 4.75754 20.5927 4.83325 20.5927C4.83781 20.5927 4.84217 20.5925 4.84673 20.5921C4.92783 20.5854 4.99088 20.5186 4.99275 20.4371C5.01328 19.5334 6.28721 19.0802 6.30027 19.0759C6.37204 19.0508 6.41622 18.9788 6.40584 18.9035C6.39527 18.8284 6.33325 18.771 6.25755 18.7664ZM4.81686 19.8651C4.67271 19.5326 4.42299 19.1315 4.01128 18.9224C4.32239 18.7733 4.69179 18.507 4.8822 18.044C5.04688 18.3701 5.32813 18.7747 5.76722 18.9703C5.44781 19.1443 5.03195 19.438 4.81686 19.8651Z" fill="#3A312A"/>
<path d="M2.53968 19.3218C2.46667 20.1905 1.56152 20.3278 1.56152 20.3278C2.33869 20.3643 2.53242 21.3837 2.53242 21.3837C2.54901 20.6569 3.53297 20.317 3.53297 20.317C2.79583 20.2728 2.53968 19.3218 2.53968 19.3218Z" fill="#D7E057"/>
<path d="M3.54238 20.1579C2.92989 20.1212 2.69573 19.2886 2.69344 19.2801C2.67333 19.2057 2.60198 19.1569 2.52544 19.1631C2.44849 19.17 2.38751 19.2314 2.38108 19.3083C2.31948 20.038 1.56886 20.1651 1.53754 20.1701C1.45665 20.1824 1.39816 20.2539 1.40231 20.3358C1.40666 20.4176 1.4722 20.4829 1.55413 20.4868C2.19503 20.5169 2.37424 21.4046 2.3759 21.4133C2.39042 21.489 2.45658 21.543 2.53229 21.543C2.53664 21.543 2.5412 21.5428 2.54556 21.5424C2.62687 21.5357 2.68971 21.4687 2.69179 21.3872C2.70547 20.7809 3.5764 20.4704 3.58511 20.4673C3.65687 20.4427 3.70105 20.3705 3.69089 20.2952C3.68031 20.2199 3.61809 20.1624 3.54238 20.1579ZM2.5244 20.8795C2.4263 20.6793 2.27592 20.4603 2.05213 20.3188C2.24938 20.2083 2.44476 20.0394 2.56941 19.7966C2.68183 19.9957 2.85128 20.2164 3.09416 20.3514C2.89774 20.4682 2.67063 20.6424 2.5244 20.8795Z" fill="#3A312A"/>
<path d="M2.53968 16.4909C2.46667 17.3595 1.56152 17.4969 1.56152 17.4969C2.33869 17.5334 2.53242 18.5528 2.53242 18.5528C2.54901 17.8258 3.53297 17.4861 3.53297 17.4861C2.79583 17.4419 2.53968 16.4909 2.53968 16.4909Z" fill="#D7E057"/>
<path d="M3.54238 17.327C2.92989 17.2903 2.69573 16.4577 2.69344 16.4494C2.67333 16.3748 2.60198 16.3262 2.52544 16.3324C2.44849 16.3393 2.38751 16.4005 2.38108 16.4776C2.31948 17.2073 1.56886 17.3342 1.53754 17.3392C1.45665 17.3515 1.39816 17.4232 1.40231 17.5051C1.40666 17.5869 1.4722 17.652 1.55413 17.6559C2.19503 17.6862 2.37424 18.5739 2.3759 18.5826C2.39042 18.6581 2.45658 18.7121 2.53229 18.7121C2.53664 18.7121 2.5412 18.7121 2.54556 18.7117C2.62687 18.705 2.68971 18.638 2.69179 18.5565C2.70547 17.9503 3.5764 17.6396 3.58511 17.6366C3.65687 17.6118 3.70105 17.5396 3.69089 17.4643C3.68031 17.389 3.61809 17.3315 3.54238 17.327ZM2.5244 18.0486C2.4263 17.8484 2.27592 17.6296 2.05213 17.4879C2.24938 17.3774 2.44476 17.2088 2.56941 16.9659C2.68183 17.1648 2.85128 17.3859 3.09416 17.5205C2.89774 17.6375 2.67063 17.8115 2.5244 18.0486Z" fill="#3A312A"/>
<path d="M22.2638 4.87852C21.48 4.09907 20.2897 3.95575 18.89 3.93231L18.7444 5.20561C19.918 5.21847 20.8864 5.30662 21.3643 5.78221C21.6467 6.06367 21.7849 6.51604 21.7849 7.16606C21.7849 9.6075 19.869 13.5718 17.7356 13.9795C17.6624 14.4489 17.5041 14.8874 17.2778 15.2804C17.3108 15.2856 17.3448 15.2889 17.3799 15.2889C18.8697 15.2889 20.3299 14.2205 21.4918 12.2804C22.4581 10.6661 23.0592 8.70692 23.0592 7.16606C23.0592 6.16033 22.7989 5.41178 22.2638 4.87852Z" fill="#F16C7A"/>
<path d="M22.3761 4.76574C21.5831 3.97696 20.41 3.79838 18.8928 3.77307H18.8901C18.8092 3.77307 18.7412 3.83364 18.7318 3.91432L18.5862 5.18762C18.5813 5.23242 18.5954 5.27722 18.625 5.31103C18.6549 5.34484 18.6976 5.36433 18.7426 5.36496C19.9423 5.37802 20.8281 5.47302 21.2519 5.8951C21.5033 6.14565 21.6256 6.56131 21.6256 7.16591C21.6256 8.34753 21.1639 9.91557 20.421 11.2581C19.6162 12.7121 18.6265 13.6469 17.7058 13.823C17.6396 13.8356 17.5884 13.8883 17.5782 13.9549C17.5096 14.3959 17.3619 14.815 17.14 15.2008C17.1138 15.2463 17.1115 15.3014 17.1342 15.3487C17.1566 15.396 17.2009 15.4294 17.2526 15.4375C17.2968 15.4447 17.3382 15.4481 17.3797 15.4481C18.9278 15.4481 20.4368 14.3521 21.6285 12.362C22.6092 10.7238 23.2186 8.7327 23.2186 7.16591C23.2186 6.11537 22.9431 5.33032 22.3761 4.76574ZM21.3552 12.1985C20.2656 14.018 18.9169 15.0505 17.5407 15.1253C17.6977 14.8045 17.8095 14.4651 17.8744 14.1123C18.8557 13.8705 19.8794 12.8946 20.6998 11.4127C21.4674 10.0257 21.9442 8.39856 21.9442 7.16612C21.9442 6.47253 21.7914 5.98304 21.4767 5.66964C20.9999 5.19488 20.1113 5.07168 18.9227 5.04907L19.0318 4.09477C20.4017 4.12733 21.4583 4.30218 22.1514 4.99161C22.655 5.49334 22.9 6.20456 22.9 7.16612C22.9 8.67856 22.308 10.6069 21.3552 12.1985Z" fill="#3A312A"/>
<path d="M6.27944 13.9795C4.1458 13.5718 2.23015 9.6075 2.23015 7.16606C2.23015 6.51604 2.36828 6.06367 2.65078 5.78221C3.12865 5.30662 4.09706 5.21847 5.27059 5.20561L5.12499 3.93231C3.72434 3.95575 2.53483 4.09907 1.75123 4.87852C1.2159 5.41178 0.955811 6.16033 0.955811 7.16606C0.955811 8.70692 1.55689 10.6661 2.52322 12.2804C3.68493 14.2205 5.14511 15.2889 6.63515 15.2889C6.6702 15.2889 6.70422 15.2856 6.73699 15.2804C6.51091 14.8874 6.35266 14.4489 6.27944 13.9795Z" fill="#F16C7A"/>
<path d="M6.875 15.201C6.65286 14.8152 6.5056 14.3961 6.43653 13.9549C6.42616 13.8885 6.37513 13.8356 6.30897 13.8232C5.38827 13.6471 4.39871 12.7121 3.59395 11.2583C2.8508 9.91577 2.38931 8.34774 2.38931 7.16612C2.38931 6.56151 2.51147 6.14565 2.76306 5.89531C3.18701 5.47322 4.07266 5.37802 5.27212 5.36495C5.31713 5.36454 5.36006 5.34484 5.38993 5.31123C5.41959 5.27743 5.43369 5.23242 5.42851 5.18762L5.28332 3.91432C5.27399 3.83384 5.20575 3.77307 5.12506 3.77307C5.12423 3.77307 5.1232 3.77307 5.12237 3.77307C3.60495 3.79858 2.43183 3.97696 1.63868 4.76574C1.07204 5.33032 0.796387 6.11537 0.796387 7.16612C0.796387 8.7329 1.40555 10.7241 2.38661 12.3622C3.57819 14.3523 5.0869 15.4483 6.63502 15.4483C6.6765 15.4483 6.71819 15.4449 6.76216 15.4377C6.81381 15.4296 6.85819 15.3962 6.8808 15.3491C6.9032 15.3016 6.90113 15.2462 6.875 15.201ZM2.65977 12.1985C1.70692 10.6071 1.11497 8.67856 1.11497 7.16612C1.11497 6.20456 1.35992 5.49313 1.86352 4.99161C2.55669 4.30197 3.61324 4.12712 4.98319 4.09456L5.09209 5.04907C3.90362 5.07147 3.01507 5.19488 2.53802 5.66943C2.22359 5.98283 2.07072 6.47232 2.07072 7.16591C2.07072 8.39814 2.54756 10.0255 3.31519 11.4125C4.1355 12.8944 5.15887 13.8703 6.14034 14.1121C6.20526 14.4651 6.31727 14.8045 6.47428 15.1251C5.09789 15.0504 3.7491 14.018 2.65977 12.1985Z" fill="#3A312A"/>
<path d="M5.05176 3.29205L5.73705 9.27774L5.89841 10.6863L6.25703 13.818C6.47771 15.7469 8.11066 17.2036 10.0524 17.2036H13.9626C15.9041 17.2036 17.5371 15.7469 17.758 13.8178L18.9633 3.29205H5.05176Z" fill="#8AC6DD"/>
<path d="M19.082 3.18606C19.0517 3.15204 19.0086 3.13275 18.9631 3.13275H5.05163C5.00621 3.13275 4.96286 3.15225 4.93278 3.18606C4.9025 3.21986 4.88819 3.26508 4.89338 3.31009L5.57866 9.29578C5.58883 9.3833 5.66681 9.44636 5.75517 9.43599C5.84249 9.42603 5.90534 9.34701 5.89517 9.25969L5.23021 3.45134H18.7846L17.5996 13.7997C17.3878 15.6494 15.8242 17.0443 13.9624 17.0443H10.0523C8.1908 17.0443 6.62692 15.6494 6.41516 13.7997L6.05654 10.668C6.04658 10.5807 5.96901 10.5174 5.88024 10.5278C5.79292 10.5378 5.73007 10.6168 5.74024 10.7043L6.09885 13.836C6.32908 15.8467 8.02882 17.3628 10.0523 17.3628H13.9624C15.9862 17.3628 17.6861 15.8467 17.9161 13.836L19.1214 3.3103C19.1266 3.26508 19.1123 3.21986 19.082 3.18606Z" fill="#3A312A"/>
<path d="M10.8923 17.2035H13.1224V19.8584H10.8923V17.2035Z" fill="#D7E057"/>
<path d="M13.1225 17.0443H10.8924C10.8045 17.0443 10.7332 17.1156 10.7332 17.2035V19.8584C10.7332 19.9464 10.8045 20.0177 10.8924 20.0177H13.1225C13.2105 20.0177 13.2818 19.9464 13.2818 19.8584V17.2035C13.2818 17.1156 13.2105 17.0443 13.1225 17.0443ZM12.9632 19.6991H11.0517V17.3628H12.9632V19.6991Z" fill="#3A312A"/>
<path d="M15.2264 21.8537H8.78875C8.33783 21.8537 7.97217 22.2194 7.97217 22.6705V23.8407H16.043V22.6705C16.043 22.2194 15.6773 21.8537 15.2264 21.8537Z" fill="#D7E057"/>
<path d="M15.2263 21.6944H8.78862C8.25059 21.6944 7.81274 22.1322 7.81274 22.6705V23.8407C7.81274 23.9286 7.88409 24 7.97204 24H16.0428C16.1308 24 16.2021 23.9286 16.2021 23.8407V22.6705C16.2021 22.1322 15.7643 21.6944 15.2263 21.6944ZM15.8835 23.6814H8.13133V22.6705C8.13133 22.3079 8.42627 22.013 8.78862 22.013H15.226C15.5886 22.013 15.8833 22.3079 15.8833 22.6705V23.6814H15.8835Z" fill="#3A312A"/>
<path d="M13.8192 19.8584H10.1957C9.74482 19.8584 9.37915 20.2241 9.37915 20.675V21.8537H14.6358V20.675C14.6358 20.2241 14.2701 19.8584 13.8192 19.8584Z" fill="#D7E057"/>
<path d="M13.8191 19.6992H10.1956C9.65757 19.6992 9.21973 20.137 9.21973 20.675V21.8538C9.21973 21.9419 9.29108 22.013 9.37902 22.013H14.6357C14.7236 22.013 14.7949 21.9419 14.7949 21.8538V20.675C14.7949 20.137 14.3571 19.6992 13.8191 19.6992ZM14.4764 21.6945H9.53831V20.675C9.53831 20.3127 9.83325 20.0177 10.1956 20.0177H13.8189C14.1814 20.0177 14.4762 20.3127 14.4762 20.675V21.6945H14.4764Z" fill="#3A312A"/>
<path d="M19.3478 0.159302H4.66699C4.13166 0.159302 3.69775 0.593207 3.69775 1.12874V2.32281C3.69775 2.85814 4.13166 3.29225 4.66699 3.29225H19.348C19.8833 3.29225 20.3172 2.85814 20.3172 2.32281V1.12874C20.3172 0.593207 19.8833 0.159302 19.3478 0.159302Z" fill="#8AC6DD"/>
<path d="M19.3479 0H9.23285C9.14491 0 9.07356 0.0713496 9.07356 0.159292C9.07356 0.247235 9.14491 0.318584 9.23285 0.318584H19.3479C19.7947 0.318584 20.158 0.681969 20.158 1.12853V2.32259C20.158 2.76936 19.7947 3.13274 19.3479 3.13274H4.6671C4.22054 3.13274 3.85716 2.76936 3.85716 2.32259V1.12853C3.85716 0.681969 4.22054 0.318584 4.6671 0.318584H7.8797C7.96764 0.318584 8.03899 0.247235 8.03899 0.159292C8.03899 0.0713496 7.96764 0 7.8797 0H4.6671C4.04487 0 3.53857 0.506292 3.53857 1.12853V2.32259C3.53857 2.94504 4.04487 3.45133 4.6671 3.45133H19.3479C19.9703 3.45133 20.4766 2.94504 20.4766 2.32259V1.12853C20.4766 0.506292 19.9703 0 19.3479 0V0Z" fill="#3A312A"/>
<path d="M17.1919 3.45135L16.0068 13.7999C15.7954 15.6498 14.2311 17.0443 12.3696 17.0443H13.9626C15.8241 17.0443 17.3884 15.6498 17.5997 13.7999L18.7849 3.45135H17.1919Z" fill="#6CA8BF"/>
<path d="M15.2262 22.013H13.6333C13.9952 22.013 14.2906 22.3084 14.2906 22.6705V23.6814H15.8835V22.6705C15.8835 22.3084 15.5882 22.013 15.2262 22.013Z" fill="#B9C239"/>
<path d="M13.8192 20.0177H12.2263C12.5883 20.0177 12.8836 20.3128 12.8836 20.675V21.6944H14.4765V20.675C14.4765 20.3128 14.1812 20.0177 13.8192 20.0177Z" fill="#B9C239"/>
<path d="M19.3476 0.318542H17.7546C18.2018 0.318542 18.565 0.68172 18.565 1.1289V2.32235C18.565 2.76952 18.2018 3.1327 17.7546 3.1327H19.3476C19.7947 3.1327 20.1579 2.76952 20.1579 2.32235V1.1289C20.1579 0.68172 19.7947 0.318542 19.3476 0.318542Z" fill="#6CA8BF"/>
<path d="M15.7774 9.02656C15.7774 11.1086 14.0895 12.7965 12.0075 12.7965C9.92546 12.7965 8.23755 11.1086 8.23755 9.02656C8.23755 6.94457 9.92546 5.25665 12.0075 5.25665C14.0895 5.25665 15.7774 6.94457 15.7774 9.02656Z" fill="#D7E057"/>
<path d="M12.0076 5.09735C9.84095 5.09735 8.07837 6.85993 8.07837 9.02655C8.07837 11.1932 9.84095 12.9558 12.0076 12.9558C14.1742 12.9558 15.9368 11.1932 15.9368 9.02655C15.9368 6.85993 14.1742 5.09735 12.0076 5.09735ZM12.0076 12.6372C10.0166 12.6372 8.39695 11.0175 8.39695 9.02655C8.39695 7.03561 10.0166 5.41594 12.0076 5.41594C13.9985 5.41594 15.6182 7.03561 15.6182 9.02655C15.6182 11.0175 13.9985 12.6372 12.0076 12.6372Z" fill="#3A312A"/>
<path d="M14.6747 8.59099C14.8583 8.4122 14.7571 8.10046 14.5032 8.06354L13.1312 7.86422C13.0304 7.8495 12.9435 7.78624 12.8984 7.69497L12.2847 6.45175C12.1713 6.22173 11.8436 6.22173 11.7301 6.45175L11.1166 7.69497C11.0716 7.78624 10.9845 7.8495 10.8837 7.86422L9.51142 8.06354C9.25775 8.10046 9.15653 8.4122 9.34009 8.59099L10.333 9.55898C10.4058 9.62992 10.4392 9.73238 10.422 9.83276L10.1876 11.1992C10.1442 11.4518 10.4093 11.6445 10.6362 11.5252L11.8635 10.88C11.9537 10.8327 12.0611 10.8327 12.1513 10.88L13.3786 11.5252C13.6055 11.6445 13.8706 11.4518 13.8272 11.1992L13.5931 9.83276C13.5759 9.73238 13.609 9.62992 13.682 9.55898L14.6747 8.59099Z" fill="#FCE8CB"/>
<path d="M14.786 8.70529C14.9146 8.57981 14.96 8.39584 14.9044 8.22493C14.8488 8.05402 14.7041 7.93186 14.5261 7.90593L13.1541 7.70661C13.1051 7.69956 13.063 7.66886 13.0413 7.62468L12.4275 6.38125C12.3481 6.22009 12.1871 6.12012 12.0075 6.12012C11.8279 6.12012 11.6667 6.22009 11.5873 6.38125L10.9738 7.62447C10.952 7.66886 10.9097 7.69956 10.8607 7.70661L9.48871 7.90593C9.31096 7.93186 9.16598 8.05402 9.11039 8.22493C9.05501 8.39584 9.10023 8.57981 9.22903 8.70529L10.2219 9.67308C10.2572 9.70751 10.2733 9.75708 10.2648 9.80582L10.0305 11.1722C10.0002 11.3494 10.0717 11.5251 10.2171 11.6306C10.2993 11.6902 10.3953 11.7206 10.492 11.7206C10.5664 11.7206 10.6413 11.7026 10.7106 11.6663L11.9376 11.021C11.9814 10.998 12.0339 10.9982 12.0774 11.021L13.3047 11.6663C13.4635 11.7499 13.6527 11.7364 13.7981 11.6306C13.9435 11.5251 14.0148 11.3494 13.9846 11.1725L13.7502 9.80603C13.7417 9.75729 13.7579 9.70751 13.7931 9.67308L14.786 8.70529ZM13.436 9.85954L13.6703 11.2262C13.6803 11.2836 13.6579 11.3386 13.6108 11.3728C13.5635 11.4072 13.5046 11.4112 13.453 11.3842L12.2255 10.739C12.089 10.6672 11.9262 10.6672 11.7895 10.739L10.5623 11.3842C10.5106 11.4112 10.4515 11.4072 10.4042 11.3728C10.3571 11.3384 10.3347 11.2836 10.3445 11.2262L10.5789 9.85954C10.605 9.70751 10.5546 9.55236 10.4443 9.44472L9.45117 8.47693C9.40948 8.43628 9.39537 8.37883 9.41342 8.32324C9.43146 8.26786 9.47668 8.22949 9.53455 8.2212L10.9066 8.02167C11.0592 7.99968 11.1911 7.90386 11.2594 7.76551L11.8729 6.52208C11.8988 6.46981 11.949 6.43849 12.0075 6.43849C12.0658 6.43849 12.1162 6.46981 12.1421 6.52208V6.52229L12.7556 7.76551C12.8241 7.90386 12.956 7.99947 13.1085 8.02167L14.4805 8.2212C14.5381 8.22949 14.5836 8.26786 14.6016 8.32324C14.6197 8.37883 14.6053 8.43628 14.5637 8.47693L13.5708 9.44492C13.4604 9.55257 13.41 9.70751 13.436 9.85954Z" fill="#3A312A"/>
</g>
<defs>
<clipPath id="clip0">
<rect width="24" height="24" fill="white"/>
</clipPath>
</defs>
</svg>
