<svg width="568" height="546" viewBox="0 0 568 546" fill="none" xmlns="http://www.w3.org/2000/svg">
<g clip-path="url(#clip0)">
<path d="M324.727 546.012C459.083 546.012 568 437.065 568 302.671C568 168.278 459.083 59.3305 324.727 59.3305C190.372 59.3305 81.4551 168.278 81.4551 302.671C81.4551 437.065 190.372 546.012 324.727 546.012Z" fill="#EBF0F3"/>
<path opacity="0.22" d="M482.342 491.034C510.905 491.034 534.06 487.749 534.06 483.697C534.06 479.645 510.905 476.36 482.342 476.36C453.779 476.36 430.625 479.645 430.625 483.697C430.625 487.749 453.779 491.034 482.342 491.034Z" fill="#A6AAC7"/>
<path opacity="0.22" d="M104.405 491.034C132.968 491.034 156.122 487.749 156.122 483.697C156.122 479.645 132.968 476.36 104.405 476.36C75.8418 476.36 52.687 479.645 52.687 483.697C52.687 487.749 75.8418 491.034 104.405 491.034Z" fill="#A6AAC7"/>
<path opacity="0.22" d="M300.261 511.18C373.014 511.18 431.992 505.852 431.992 499.279C431.992 492.707 373.014 487.378 300.261 487.378C227.508 487.378 168.53 492.707 168.53 499.279C168.53 505.852 227.508 511.18 300.261 511.18Z" fill="#A6AAC7"/>
<path d="M487.066 441.292C470.034 442.908 456.732 455.095 451.262 465.666L521.13 464.049C519.141 455.344 501.612 444.276 487.066 441.292Z" fill="#682F35"/>
<path d="M525.979 462.271C525.732 460.993 525.054 459.839 524.058 459.002C523.063 458.165 521.81 457.694 520.509 457.67H452.257C450.716 457.705 449.234 458.267 448.058 459.263C446.881 460.258 446.082 461.627 445.792 463.141L441.316 482.541H530.828L525.979 462.271Z" fill="#FFBC45"/>
<path d="M518.395 462.271C517.898 459.535 516.033 457.67 513.92 457.67H458.597C456.11 457.67 453.997 459.908 453.375 463.141L449.77 482.541H522.249L518.395 462.271Z" fill="#FFCA55"/>
<path d="M475.008 460.157H453.749C452.796 460.111 451.844 460.277 450.963 460.642C450.082 461.008 449.292 461.564 448.651 462.271C453.127 465.753 460.089 468.489 468.543 469.981L475.008 460.157Z" fill="#FFE394"/>
<path d="M519.017 460.157H486.818L479.483 471.224C481.223 471.349 483.088 471.349 484.953 471.349C501.488 471.349 515.785 467.121 522.498 461.152C521.458 460.49 520.249 460.144 519.017 460.157Z" fill="#FFE394"/>
<path d="M401.123 29.6839H348.461C341.773 29.6905 335.361 32.3535 330.636 37.0874C325.91 41.8212 323.257 48.2385 323.261 54.9283V75.5964C323.289 81.3905 325.319 86.9966 329.008 91.464C332.697 95.9314 337.817 98.985 343.5 100.107L344.681 112.319L357.312 100.592H401.248C404.56 100.589 407.84 99.9329 410.899 98.6618C413.958 97.3908 416.737 95.5295 419.077 93.1842C421.417 90.8389 423.272 88.0555 424.537 84.993C425.802 81.9304 426.451 78.6487 426.448 75.3352V54.7542C426.433 51.4441 425.766 48.1693 424.485 45.1172C423.204 42.0651 421.334 39.2956 418.982 36.9671C416.63 34.6387 413.842 32.7969 410.777 31.5471C407.713 30.2974 404.432 29.6643 401.123 29.6839Z" fill="#474668"/>
<path d="M394.173 66.0706C394.173 70.1043 392.978 74.0474 390.737 77.4012C388.497 80.7551 385.313 83.3691 381.587 84.9127C377.862 86.4563 373.762 86.8602 369.807 86.0732C365.852 85.2863 362.219 83.3439 359.368 80.4917C356.516 77.6395 354.574 74.0056 353.788 70.0494C353.001 66.0933 353.405 61.9926 354.948 58.266C356.491 54.5394 359.104 51.3542 362.457 49.1133C365.81 46.8723 369.752 45.6762 373.785 45.6762C376.464 45.668 379.119 46.1899 381.597 47.2119C384.074 48.2339 386.325 49.7358 388.22 51.6313C390.115 53.5267 391.616 55.7782 392.638 58.2563C393.66 60.7344 394.182 63.3901 394.173 66.0706Z" fill="url(#paint0_linear)"/>
<path d="M378.31 66.4437C378.512 67.0623 378.916 67.595 379.457 67.9559C379.998 68.3169 380.645 68.4851 381.294 68.4334C381.937 68.4582 382.572 68.2792 383.108 67.9219C383.643 67.5646 384.053 67.0473 384.277 66.4437" stroke="black" stroke-width="0.91" stroke-linecap="round" stroke-linejoin="round"/>
<path d="M363.217 66.4437C363.419 67.0623 363.823 67.595 364.364 67.9559C364.906 68.3169 365.553 68.4851 366.201 68.4334C366.844 68.4582 367.479 68.2792 368.015 67.9219C368.551 67.5646 368.96 67.0473 369.185 66.4437" stroke="black" stroke-width="0.91" stroke-linecap="round" stroke-linejoin="round"/>
<path d="M369.309 77.5115C369.309 77.5115 373.039 74.4025 378.26 77.5115" stroke="#7C0000" stroke-width="0.73" stroke-linecap="round" stroke-linejoin="round"/>
<path d="M359.861 42.3185C361.754 45.2095 363.417 48.2448 364.834 51.3966C365.953 54.5055 365.207 57.8631 362.223 59.231C361.541 59.5923 360.793 59.8114 360.023 59.8751C359.254 59.9388 358.48 59.8457 357.748 59.6016C357.016 59.3575 356.341 58.9673 355.764 58.4548C355.187 57.9422 354.72 57.3179 354.391 56.6195C354.022 55.7765 353.831 54.8662 353.831 53.9459C353.831 53.0256 354.022 52.1152 354.391 51.2722C355.775 48.1042 357.439 45.0662 359.363 42.1942C359.488 42.0698 359.612 41.9455 359.736 42.0698C359.861 42.1942 359.736 42.3185 359.861 42.3185Z" fill="url(#paint1_linear)"/>
<path d="M252.46 135.238H296.37C299.119 135.236 301.842 135.776 304.383 136.827C306.923 137.878 309.232 139.419 311.177 141.363C313.123 143.306 314.666 145.614 315.72 148.154C316.773 150.694 317.316 153.417 317.318 156.167V173.838C317.326 178.69 315.659 183.395 312.599 187.159C309.539 190.923 305.272 193.514 300.522 194.494L299.565 204.778L289.035 194.929H252.484C246.946 194.916 241.639 192.707 237.726 188.786C233.813 184.865 231.614 179.552 231.611 174.012V156.204C231.607 150.662 233.799 145.344 237.707 141.415C241.614 137.485 246.919 135.264 252.46 135.238Z" fill="#474668"/>
<path d="M285.989 164.884H282.657V153.891C282.657 151.583 281.74 149.368 280.108 147.736C278.476 146.103 276.263 145.186 273.954 145.186C271.646 145.186 269.433 146.103 267.801 147.736C266.169 149.368 265.252 151.583 265.252 153.891V164.884H261.933V153.891C261.933 152.31 262.244 150.745 262.849 149.285C263.453 147.824 264.34 146.497 265.457 145.379C266.575 144.262 267.902 143.375 269.362 142.77C270.822 142.165 272.387 141.854 273.967 141.854C275.547 141.854 277.112 142.165 278.572 142.77C280.032 143.375 281.359 144.262 282.476 145.379C283.594 146.497 284.48 147.824 285.085 149.285C285.69 150.745 286.001 152.31 286.001 153.891L285.989 164.884Z" fill="#73726F"/>
<path d="M289.781 159.674H258.116C257.402 159.674 256.823 160.253 256.823 160.967V181.536C256.823 182.25 257.402 182.829 258.116 182.829H289.781C290.495 182.829 291.074 182.25 291.074 181.536V160.967C291.074 160.253 290.495 159.674 289.781 159.674Z" fill="#FFCB02"/>
<path d="M282.657 159.674C284.343 157.498 285.45 154.931 285.877 152.212V159.674H282.657Z" fill="#5C5A5A"/>
<path d="M291.074 181.598V168.926C280.643 177.755 265.6 181.076 257.072 182.294C257.188 182.463 257.345 182.599 257.527 182.693C257.709 182.786 257.911 182.833 258.116 182.829H289.781C289.947 182.836 290.113 182.809 290.269 182.75C290.425 182.691 290.567 182.602 290.688 182.487C290.808 182.372 290.905 182.234 290.971 182.082C291.037 181.929 291.072 181.764 291.074 181.598Z" fill="#FBB515"/>
<path d="M276.776 167.757C276.778 167.272 276.655 166.795 276.42 166.371C276.185 165.947 275.844 165.591 275.432 165.336C275.02 165.081 274.549 164.936 274.065 164.915C273.58 164.894 273.099 164.998 272.666 165.216C272.233 165.434 271.863 165.76 271.592 166.162C271.321 166.564 271.158 167.029 271.117 167.512C271.077 167.995 271.161 168.48 271.362 168.922C271.562 169.363 271.873 169.746 272.264 170.033L271.368 176.437H276.54L275.633 170.033C275.989 169.77 276.278 169.427 276.477 169.032C276.676 168.636 276.778 168.2 276.776 167.757Z" fill="#73726F"/>
<path d="M271.394 176.437C272.586 175.937 273.619 175.122 274.384 174.079C275.148 173.036 275.614 171.805 275.732 170.518L276.565 176.437H271.394Z" fill="#5C5A5A"/>
<path d="M452.182 152.697H399.519C396.206 152.699 392.926 153.354 389.866 154.624C386.806 155.895 384.027 157.756 381.686 160.102C379.346 162.447 377.491 165.231 376.227 168.295C374.963 171.358 374.314 174.64 374.319 177.954V198.573C374.345 204.367 376.375 209.975 380.064 214.443C383.753 218.91 388.875 221.963 394.559 223.083L395.74 235.295L408.371 223.581H452.294C455.606 223.579 458.886 222.925 461.946 221.655C465.006 220.386 467.786 218.526 470.127 216.182C472.468 213.837 474.325 211.055 475.591 207.993C476.857 204.931 477.508 201.65 477.506 198.336V177.706C477.46 171.031 474.767 164.648 470.018 159.959C465.27 155.269 458.854 152.658 452.182 152.697Z" fill="#FEC35B"/>
<path d="M412.2 179.011L428.884 200.55C427.554 203.796 426.05 208.098 431.134 211.07C437.512 214.801 439.949 204.853 439.949 204.853C441.068 205.139 449.111 205.052 448.03 197.018C447.209 190.887 441.18 192.23 437.114 193.897L421.661 174C421.85 173.686 422.012 173.358 422.146 173.017C423.389 169.709 426.336 164.499 420.48 161.079C414.09 157.348 411.666 167.297 411.666 167.297C410.534 167.011 402.503 167.086 403.572 175.131C404.244 180.131 408.458 180.106 412.2 179.011Z" fill="#FFE394"/>
<g style="mix-blend-mode:multiply" opacity="0.2">
<path d="M412.2 179.011L428.884 200.55C427.554 203.796 426.05 208.098 431.134 211.07C437.512 214.801 439.949 204.853 439.949 204.853C441.068 205.139 449.111 205.052 448.03 197.018C447.209 190.887 441.18 192.23 437.114 193.897L421.661 174C421.85 173.686 422.012 173.358 422.146 173.017C423.389 169.709 426.336 164.499 420.48 161.079C414.09 157.348 411.666 167.297 411.666 167.297C410.534 167.011 402.503 167.086 403.572 175.131C404.244 180.131 408.458 180.106 412.2 179.011Z" fill="#FFE394"/>
</g>
<path opacity="0.2" d="M418.491 165.096C416.85 164.2 415.83 162.92 416.203 162.236C416.576 161.552 418.205 161.726 419.846 162.634C421.487 163.541 422.506 164.81 422.121 165.494C421.736 166.178 420.119 166.004 418.491 165.096Z" fill="#FFE394"/>
<path d="M37.6692 322.457C39.4843 308.442 51.3446 299.065 64.647 296.23C79.8515 292.984 91.9977 303.691 100.004 315.244C116.651 339.183 116.899 367.387 115.992 395.392C115.992 397.021 118.478 397.021 118.478 395.392C119.572 362.972 118.242 329.694 94.7328 304.698C90.2235 299.669 84.3152 296.101 77.7654 294.453C71.2156 292.804 64.3228 293.15 57.9709 295.446C45.9241 299.525 36.7368 309.847 35.0709 322.457C34.8844 324.061 37.4081 324.048 37.6195 322.457H37.6692Z" fill="#8C8E38"/>
<path d="M187.8 350.611C194.312 346.989 201.645 345.101 209.096 345.127C209.943 341.177 210.31 337.139 210.19 333.102C207.544 333.033 204.896 333.17 202.271 333.512C196.315 334.459 190.411 335.704 184.58 337.243C182.951 337.628 180.85 337.827 179.955 336.447C179.06 335.066 179.955 333.189 181.099 331.945C184.133 328.821 187.793 326.376 191.84 324.77C196.923 322.517 202.257 320.88 207.729 319.895C206.339 316.103 204.391 312.54 201.948 309.325C192.002 310.046 182.379 313.913 172.732 316.786C170.88 317.346 168.605 317.768 167.225 316.4C165.534 314.722 166.64 311.824 168.132 309.971C171.551 305.718 176.487 302.945 181.546 300.906C183.871 299.973 186.246 299.189 188.62 298.418C186.994 297.65 185.306 297.022 183.573 296.541C176.549 294.638 168.866 296.391 162.674 299.985C158.186 302.584 151.846 309.635 154.183 315.294C145.046 311.426 136.107 310.096 127.927 316.201C123.891 319.217 120.648 323.169 118.478 327.717C123.303 324.475 128.856 322.479 134.64 321.909C137.593 321.502 140.601 321.906 143.342 323.078C144.036 323.351 144.609 323.862 144.959 324.521C145.655 326.175 143.79 327.704 142.174 328.475C135.411 331.696 128.088 333.81 121.698 337.69C119.585 338.963 117.625 340.473 115.855 342.192C116.311 347.19 117.979 352.001 120.716 356.207C122.769 354.442 124.91 352.782 127.131 351.233C132.931 346.929 139.673 344.068 146.799 342.888C147.818 342.752 149.036 342.739 149.633 343.585C149.841 343.966 149.95 344.394 149.95 344.828C149.95 345.263 149.841 345.69 149.633 346.072C148.525 348.316 146.922 350.281 144.946 351.817C140.483 355.697 135.485 358.955 131.147 363.009C130.488 363.619 129.903 364.253 129.22 364.924C129.816 365.322 130.463 365.695 131.035 366.044C134.729 367.946 138.64 369.39 142.684 370.346C143.044 369.924 143.38 369.488 143.753 369.103C147.656 364.812 152.853 361.144 158.671 361.107C160.486 361.107 162.687 361.815 162.985 363.594C163.209 364.937 162.227 366.156 161.282 367.126C159.094 369.401 156.744 371.54 154.643 373.903C157.553 374.987 160.385 376.266 163.122 377.733C164.535 376.404 166.12 375.271 167.834 374.363C169.326 373.58 171.265 373.008 172.608 374.027C173.055 374.438 173.395 374.952 173.599 375.524C173.802 376.096 173.863 376.709 173.776 377.31C173.473 379.509 172.541 381.574 171.091 383.255C173.238 385.172 174.849 387.614 175.765 390.343C181.709 386.095 187.236 381.294 192.275 376.005C190.423 375.495 188.546 375.072 186.892 374.562C185.239 374.052 182.889 372.858 183.672 370.67C184.456 368.481 187.7 368.531 189.54 368.406C192.449 368.249 195.367 368.403 198.243 368.866C200.667 365.633 202.794 362.187 204.596 358.57C205.043 357.674 205.453 356.754 205.839 355.834C202.62 355.589 199.388 355.569 196.167 355.772C193.307 355.909 190.336 356.07 187.675 355.001C187.277 354.89 186.911 354.684 186.61 354.4C186.309 354.116 186.082 353.763 185.947 353.372C185.612 352.103 186.78 351.183 187.8 350.611Z" fill="#ABC138"/>
<path d="M85.9435 399.632C84.6257 367.2 86.6272 335.079 109.378 309.884C114.351 304.388 120.418 300.247 127.927 299.65C136.493 298.953 143.852 304.848 149.149 310.842C159.915 323.066 164.651 340.264 168.418 355.697C168.804 357.276 171.24 356.605 170.905 355.026C166.79 338.2 161.394 320.865 149.77 307.608C139.824 296.416 125.329 293.929 113.244 302.92C100.962 312.11 92.719 327.505 88.2186 341.819C82.3879 360.336 82.7608 380.432 83.5316 399.607C83.5316 401.236 86.1175 401.236 86.0181 399.607L85.9435 399.632Z" fill="#8C8E38"/>
<path d="M69.9928 326.312C64.7589 316.475 54.0673 314.846 44.134 313.938C33.7034 312.968 23.6209 315.853 15.9627 322.904C8.50343 329.731 3.81651 339.071 1.4917 348.907C0.179625 354.105 -0.240753 359.487 0.248483 364.825C1.61602 378.081 9.97042 389.348 17.9892 399.918C19.0373 393.602 22.0883 387.79 26.6917 383.342C22.2799 380.288 18.6957 376.186 16.2611 371.403C15.0179 368.916 14.3963 365.186 16.8951 363.855C17.5856 363.601 18.3202 363.488 19.055 363.525C19.7898 363.561 20.5098 363.745 21.1718 364.066C25.5288 365.641 29.467 368.193 32.684 371.528C33.0172 371.974 33.5048 372.28 34.0515 372.386C34.5957 372.337 35.0996 372.079 35.4563 371.665L45.1285 363.159C41.1958 360.167 37.531 356.838 34.1758 353.21C32.7957 351.895 31.7256 350.289 31.0429 348.509C30.729 347.611 30.6792 346.641 30.8996 345.716C31.1199 344.79 31.6011 343.947 32.2861 343.286C34.6234 341.409 38.0671 342.988 40.4914 344.741C44.3152 347.491 47.8701 350.598 51.1084 354.018C55.4801 352.2 59.1534 349.027 61.5887 344.965C55.8768 342.183 51.0988 337.797 47.8388 332.343C46.8939 330.764 46.1107 328.674 47.1923 327.182C47.5978 326.723 48.1005 326.359 48.6639 326.118C49.2273 325.878 49.8373 325.765 50.4495 325.789C56.5413 325.553 61.3028 330.95 64.187 336.322L69.8064 329.296C70.1373 328.947 70.3728 328.519 70.4901 328.053C70.5277 327.433 70.3523 326.818 69.9928 326.312Z" fill="#ABC138"/>
<path d="M138.034 348.534C145.251 346.683 152.82 346.704 160.026 348.596C161.842 344.985 163.219 341.169 164.129 337.23C161.588 336.502 158.994 335.97 156.371 335.638C150.36 335.052 144.322 334.782 138.283 334.83C136.617 334.83 134.553 334.469 134.006 332.89C133.459 331.311 134.864 329.744 136.256 328.824C139.982 326.567 144.142 325.122 148.465 324.583C153.95 323.699 159.521 323.465 165.061 323.887C164.685 319.873 163.7 315.939 162.14 312.222C152.294 310.382 142.05 311.712 131.979 312.073C130.04 312.147 127.74 311.986 126.758 310.319C125.515 308.268 127.342 305.743 129.244 304.313C133.608 301.055 139.091 299.625 144.511 298.941C146.998 298.617 149.484 298.456 151.97 298.294C150.588 297.141 149.112 296.105 147.557 295.198C141.254 291.579 133.372 291.33 126.422 293.245C121.449 294.626 113.505 299.849 114.338 305.905C106.456 299.849 98.1765 296.304 88.6908 300.147C84.0411 302.032 79.9195 305.019 76.6813 308.852C82.1488 306.921 88.0119 306.387 93.7382 307.298C96.7093 307.637 99.5303 308.785 101.894 310.618C102.509 311.052 102.95 311.691 103.137 312.421C103.398 314.187 101.198 315.207 99.4073 315.542C92.0474 316.972 84.4887 317.147 77.2656 319.273C74.9015 319.97 72.6242 320.934 70.4777 322.146C69.6498 327.096 70.0511 332.173 71.6463 336.932C74.1327 335.688 76.6191 334.644 79.1056 333.674C85.8064 330.984 93.0497 329.922 100.24 330.577C101.26 330.701 102.441 331 102.801 331.97C102.894 332.388 102.883 332.822 102.768 333.234C102.653 333.646 102.438 334.024 102.142 334.333C100.512 336.224 98.4709 337.717 96.1749 338.698C90.8664 341.334 85.2098 343.224 80.0131 346.022C79.2175 346.445 78.4342 346.918 77.6634 347.403C78.1359 347.925 78.6332 348.435 79.1429 348.932C82.2371 351.708 85.661 354.093 89.3372 356.033C89.7848 355.722 90.2199 355.386 90.6923 355.088C95.5533 351.929 101.496 349.691 107.115 351.121C108.868 351.569 110.845 352.825 110.671 354.628C110.546 355.983 109.291 356.903 108.184 357.612C105.487 359.254 102.664 360.734 100.041 362.487C102.594 364.277 105.017 366.247 107.289 368.382C108.993 367.451 110.811 366.749 112.697 366.292C114.338 365.907 116.427 365.845 117.397 367.175C117.729 367.686 117.931 368.271 117.985 368.878C118.039 369.485 117.944 370.096 117.707 370.657C116.859 372.71 115.434 374.472 113.605 375.731C115.193 378.127 116.127 380.896 116.315 383.764C123.141 381.157 129.706 377.909 135.92 374.065C134.255 373.095 132.527 372.224 131.072 371.304C129.617 370.384 127.616 368.668 128.921 366.74C130.227 364.812 133.372 365.671 135.137 366.019C137.991 366.598 140.772 367.49 143.43 368.68C146.573 366.155 149.486 363.354 152.132 360.311C152.791 359.552 153.375 358.769 154.034 357.973C150.984 356.926 147.864 356.095 144.698 355.486C141.9 354.889 138.979 354.304 136.679 352.588C136.326 352.376 136.028 352.083 135.812 351.732C135.596 351.382 135.467 350.984 135.436 350.574C135.572 349.479 136.903 348.82 138.034 348.534Z" fill="#9DAD2D"/>
<g opacity="0.15">
<path opacity="0.15" d="M152.89 359.515C152.766 358.818 152.617 358.135 152.455 357.451C149.937 356.672 147.381 356.02 144.797 355.498C142 354.901 139.078 354.317 136.778 352.601C136.425 352.389 136.128 352.095 135.911 351.745C135.695 351.394 135.566 350.997 135.535 350.586C135.609 349.417 136.94 348.82 138.021 348.534C141.305 347.692 144.677 347.238 148.067 347.179C144.857 342.356 140.866 338.102 136.256 334.594C135.763 334.528 135.295 334.337 134.896 334.039C134.498 333.74 134.183 333.345 133.981 332.89C133.974 332.862 133.974 332.832 133.981 332.803C126.323 327.008 117.819 321.885 111.168 314.995C108.385 312.26 106.156 309.013 104.604 305.432C103.873 303.559 103.368 301.605 103.099 299.612C98.4128 298.052 93.3192 298.246 88.7651 300.159C84.1155 302.044 79.9939 305.031 76.7557 308.864C82.2232 306.933 88.0863 306.399 93.8126 307.31C96.7837 307.649 99.6047 308.798 101.968 310.63C102.583 311.065 103.024 311.704 103.211 312.433C103.472 314.199 101.272 315.219 99.4817 315.555C92.1218 316.985 84.5631 317.159 77.34 319.286C74.9759 319.983 72.6986 320.946 70.552 322.158C69.7115 327.141 70.1173 332.255 71.7331 337.044C74.2195 335.8 76.706 334.755 79.1924 333.785C85.8932 331.096 93.1365 330.034 100.327 330.689C101.346 330.813 102.528 331.112 102.888 332.082C102.981 332.499 102.97 332.934 102.855 333.346C102.74 333.758 102.525 334.135 102.229 334.445C100.599 336.336 98.5578 337.829 96.2617 338.81C90.9532 341.446 85.2966 343.336 80.0999 346.134C79.3043 346.557 78.5211 347.029 77.7503 347.514C78.2227 348.049 78.72 348.547 79.2297 349.044C82.324 351.82 85.7478 354.205 89.424 356.145C89.8716 355.834 90.3067 355.498 90.7792 355.2C95.6401 352.041 101.583 349.803 107.202 351.233C108.955 351.68 110.932 352.936 110.758 354.74C110.633 356.095 109.378 357.015 108.271 357.724C105.573 359.366 102.751 360.845 100.128 362.599C102.648 364.36 105.041 366.297 107.289 368.394C108.992 367.464 110.811 366.761 112.697 366.305C114.338 365.919 116.427 365.857 117.396 367.188C117.729 367.699 117.931 368.283 117.985 368.89C118.039 369.497 117.944 370.108 117.707 370.67C116.859 372.722 115.434 374.484 113.605 375.743C115.193 378.139 116.127 380.908 116.315 383.777C123.141 381.169 129.705 377.921 135.92 374.077C134.254 373.107 132.526 372.237 131.072 371.316C129.617 370.396 127.616 368.68 128.921 366.752C130.226 364.825 133.372 365.683 135.137 366.031C137.991 366.61 140.772 367.503 143.429 368.692C146.573 366.167 149.486 363.366 152.132 360.323C152.455 360.062 152.666 359.788 152.89 359.515Z" fill="#9DAD2D"/>
</g>
<path d="M74.9658 407.392C69.4211 387.085 64.386 366.454 64.4855 345.276C64.4855 331.783 66.0644 317.072 72.8772 305.159C81.0327 290.858 99.9047 290.41 110.472 302.485C120.691 314.174 120.666 333.077 122.084 347.664C122.233 349.268 124.769 349.28 124.57 347.664C123.103 332.567 122.929 314.174 113.033 301.652C104.02 290.335 86.8012 287.226 75.7366 297.337C64.8585 307.285 62.8942 325.342 62.1358 339.12C60.818 362.549 66.3752 385.58 72.5167 408.002C72.6057 408.331 72.822 408.612 73.1181 408.783C73.4142 408.953 73.7658 408.998 74.0955 408.909C74.4253 408.82 74.7061 408.604 74.8763 408.308C75.0465 408.011 75.0921 407.66 75.0031 407.33L74.9658 407.392Z" fill="#717723"/>
<path d="M100.178 394.235H98.8852L56.2803 394.273L69.4211 480.066L98.9474 480.041H100.253L129.767 480.029L142.796 394.21L100.178 394.235Z" fill="#FEC35B"/>
<g opacity="0.23">
<path opacity="0.23" d="M64.1622 446.092L132.303 394.223L100.626 394.235L60.8428 424.516L64.1622 446.092Z" fill="white"/>
<path opacity="0.23" d="M67.9664 471.336L139.451 416.943L140.819 407.914L66.8848 464.186L67.9664 471.336Z" fill="white"/>
<path opacity="0.23" d="M136.517 435.857L78.4341 480.066L98.9471 480.041H100.253H110.136L132.39 463.104L136.517 435.857Z" fill="white"/>
</g>
<g opacity="0.24">
<path opacity="0.24" d="M130.152 477.567C128.106 475.158 125.892 472.897 123.526 470.802C115.992 464.061 107.289 458.801 98.8975 453.155C91.6247 448.256 84.3519 442.784 80.1622 435.074C77.9661 430.735 76.4682 426.076 75.724 421.27C74.1351 412.353 73.817 403.255 74.7791 394.248H56.3174L69.4706 480.054H98.9845H100.228H129.754L130.152 477.567Z" fill="#FEC35B"/>
</g>
<path d="M145.991 410.377L53.2345 410.439L50.5864 390.542L148.614 390.48L145.991 410.377Z" fill="#E8B156"/>
<g opacity="0.15">
<path opacity="0.15" d="M202.271 333.512C196.316 334.459 190.411 335.704 184.58 337.243C183.625 337.504 182.629 337.575 181.646 337.454C177.171 347.104 170.109 355.473 166.218 365.385C164.729 369.239 163.739 373.267 163.271 377.372C164.627 376.126 166.135 375.056 167.759 374.189C169.251 373.406 171.191 372.833 172.533 373.853C172.981 374.264 173.321 374.778 173.525 375.35C173.728 375.922 173.789 376.535 173.702 377.136C173.399 379.335 172.466 381.4 171.017 383.08C173.163 384.998 174.774 387.44 175.691 390.169C181.634 385.921 187.162 381.12 192.201 375.83C190.349 375.321 188.471 374.898 186.818 374.388C185.164 373.878 182.815 372.684 183.598 370.496C184.381 368.307 187.626 368.357 189.466 368.232C192.375 368.075 195.292 368.229 198.169 368.692C200.593 365.459 202.719 362.013 204.521 358.396C204.969 357.5 205.379 356.58 205.765 355.66C202.546 355.415 199.314 355.394 196.092 355.598C193.233 355.734 190.262 355.896 187.601 354.827C187.203 354.716 186.837 354.51 186.536 354.226C186.235 353.942 186.007 353.589 185.873 353.198C185.649 352.053 186.768 351.133 187.788 350.574C194.3 346.952 201.633 345.063 209.084 345.089C209.93 341.14 210.298 337.102 210.178 333.064C207.535 332.996 204.89 333.146 202.271 333.512Z" fill="white"/>
</g>
<g opacity="0.15">
<path opacity="0.15" d="M191.828 324.807C196.911 322.554 202.245 320.917 207.716 319.932C206.327 316.14 204.378 312.577 201.935 309.362C196.488 309.873 191.114 310.982 185.91 312.67C186.382 318.057 185.962 323.486 184.667 328.737C186.918 327.193 189.317 325.877 191.828 324.807Z" fill="white"/>
</g>
<g opacity="0.15">
<path opacity="0.15" d="M181.696 296.192C182.293 297.548 182.84 298.928 183.312 300.334C185.065 299.687 186.843 299.09 188.62 298.493C186.995 297.724 185.306 297.096 183.573 296.615C182.956 296.439 182.329 296.298 181.696 296.192Z" fill="white"/>
</g>
<path d="M240.152 487.154C220.422 489.505 208.425 478.039 211.719 464.236C215.569 467.347 220.215 469.314 225.127 469.912C230.04 470.511 235.022 469.716 239.505 467.618L240.152 487.154Z" fill="#FF8650"/>
<path d="M264.705 283.346C252.969 290.808 211.906 346.035 211.247 339.108C210.588 332.181 220.708 280.573 245.187 257.891C265.178 239.374 294.542 248.999 294.542 248.999L264.705 283.346Z" fill="#FFC37B"/>
<path d="M261.137 284.814C251.415 291.032 217.438 336.695 216.929 330.963C216.419 325.23 228.118 286.194 248.332 267.429C252.433 263.56 257.299 260.594 262.617 258.724C264.344 258.105 266.223 258.049 267.985 258.562C269.747 259.076 271.301 260.134 272.426 261.584C273.495 263.013 274.049 264.762 273.997 266.546C273.945 268.33 273.29 270.044 272.14 271.408L261.137 284.814Z" fill="#CE413E"/>
<path d="M358.543 285.834C369.844 293.606 407.327 349.753 408.272 342.851C409.217 335.949 401.894 282.874 378.634 258.786C359.277 238.74 329.626 249.211 329.626 249.211L358.543 285.834Z" fill="#FFC37B"/>
<path d="M364.187 288.545C373.114 294.675 402.727 339.021 403.461 333.574C404.194 328.127 397.095 289.465 378.733 270.438C375.341 266.836 371.25 263.963 366.711 261.994C364.952 261.249 363 261.086 361.142 261.529C359.283 261.971 357.615 262.996 356.379 264.454C355.144 265.912 354.407 267.726 354.275 269.633C354.143 271.539 354.624 273.438 355.646 275.052L364.187 288.545Z" fill="#CE413E"/>
<path d="M366.537 263.35C365.854 263.052 365.09 262.999 364.372 263.198C363.655 263.397 363.028 263.837 362.596 264.444C362.148 265.065 361.907 265.811 361.907 266.577C361.907 267.343 362.148 268.089 362.596 268.71C374.705 285.224 390.394 305.519 394.335 308.504C392.222 297.399 387.572 282.675 378.621 272.44C375.293 268.576 371.171 265.476 366.537 263.35Z" fill="#E25E54"/>
<path d="M262.07 260.85C262.744 260.559 263.496 260.503 264.206 260.69C264.916 260.877 265.542 261.297 265.986 261.883C266.432 262.466 266.674 263.181 266.674 263.916C266.674 264.651 266.432 265.365 265.986 265.949C253.641 281.705 237.653 301.055 233.662 303.952C235.937 293.357 240.798 279.305 249.911 269.53C253.308 265.813 257.451 262.855 262.07 260.85Z" fill="#E25E54"/>
<path d="M366.885 420.039C366.885 420.039 365.331 365.932 351.419 335.788C337.508 305.644 286.126 298.692 267.975 327.294C249.824 355.896 240.922 424.678 240.922 424.678C218.905 455.991 224.698 460.231 240.922 495.412H371.907C406.68 421.606 366.885 420.039 366.885 420.039Z" fill="#FFA35F"/>
<path d="M330.26 422.85L357.051 377.721C357.051 377.721 365.281 435.435 364.311 446.776C350.959 465.007 343.5 477.741 336.103 495.412H322.937C322.937 495.412 335.344 463.751 330.26 422.85Z" fill="#FFC37B"/>
<path d="M374.021 375.022L330.26 422.85C331.807 435.528 331.887 448.343 330.496 461.04C341.275 446.664 353.247 438.419 359.09 442.063C361.154 443.306 362.186 446.005 362.322 449.524C362.981 448.604 363.652 447.671 364.349 446.726C365.281 435.372 374.021 375.022 374.021 375.022Z" fill="#FFAC61"/>
<path d="M290.962 422.85L262.368 377.721C262.368 377.721 253.665 435.435 254.648 446.776C268.907 465.007 277.61 477.741 285.479 495.412H298.744C298.744 495.412 285.554 463.751 290.962 422.85Z" fill="#FFC37B"/>
<path d="M259.757 435.285C266.384 430.784 278.754 438.233 289.967 452.471C289.337 442.564 289.67 432.618 290.962 422.775L247.686 382.981C247.686 382.981 253.678 435.41 254.71 446.751L255.418 447.671C255.232 441.814 256.662 437.399 259.757 435.285Z" fill="#FFAC61"/>
<path d="M312.793 457.918C291.534 447.87 231.387 383.715 232.17 344.679C232.17 344.679 266.806 260.627 288.115 252.121C309.424 243.615 332.871 246.326 344.134 256.759C355.398 267.193 388.131 302.46 390.842 350.026C390.742 350.002 383.109 422.75 312.793 457.918Z" fill="#FFB469"/>
<path d="M312.643 455.829C293.722 445.88 240.189 381.986 240.873 343.15C240.873 343.15 267.216 259.831 286.126 251.35C305.035 242.868 335.456 245.405 345.439 255.789C355.423 266.173 379.665 301.129 382.077 348.435C382.04 348.435 375.239 420.835 312.643 455.829Z" fill="#FFC37B"/>
<path d="M349.492 354.342C355.709 348.124 352.116 338.039 344.98 339.419C328.109 342.64 328.88 351.531 312.271 350.885C302.225 350.499 308.926 347.925 291.534 339.419C274.141 330.913 282.458 348.957 282.458 348.957C260.752 319.634 250.93 374.624 251.229 394.248C270.523 423.745 299.391 451.588 312.793 457.931C355.062 436.79 374.68 402.095 383.656 377.758C386.192 318.39 349.492 354.342 349.492 354.342Z" fill="#FFE8CA"/>
<path d="M383.357 363.333C374.406 387.669 356.007 426.754 313.737 447.895C300.584 441.677 271.282 410.302 251.999 381.389C251.467 385.659 251.205 389.958 251.216 394.26C270.511 423.757 299.378 453.541 312.78 459.871C355.049 438.73 374.667 402.107 383.643 377.795C383.891 372.974 383.795 368.141 383.357 363.333Z" fill="#F7D9B5"/>
<path d="M297.501 318.49L302.772 318.552C302.772 318.552 302.126 309.76 298.309 311.09C294.492 312.421 297.501 318.49 297.501 318.49Z" fill="#68413C"/>
<path d="M329.303 320.803L334.959 320.902C334.959 320.902 338.502 314.013 334.238 313.864C329.974 313.714 329.303 320.803 329.303 320.803Z" fill="#68413C"/>
<path d="M269.392 334.034V334.867C265.376 333.4 259.956 336.758 259.048 341.284L256.885 340.14C257.88 335.029 263.835 332.069 269.392 334.034Z" fill="#CC7236"/>
<path d="M316.15 359.241C313.377 358.993 296.544 346.221 298.11 343.075C299.677 339.929 323.211 336.397 332.796 343.075C338.316 346.992 316.15 359.241 316.15 359.241Z" fill="#68413C"/>
<path d="M324.765 302.684C324.765 302.684 329.912 320.716 348.721 324.073C349.753 321.885 352.836 316.861 352.836 316.861C347.826 315.993 343.057 314.075 338.84 311.234C334.623 308.392 331.055 304.69 328.37 300.371L324.765 302.684Z" fill="#FFC37B"/>
<path d="M310.194 297.56C310.194 297.56 305.321 315.667 286.573 319.285C285.048 316.973 283.645 314.582 282.371 312.123C287.356 311.187 292.086 309.201 296.246 306.299C300.406 303.396 303.902 299.641 306.502 295.285L310.194 297.56Z" fill="#FFC37B"/>
<g style="mix-blend-mode:overlay" opacity="0.5">
<path d="M326.891 292.636C326.891 292.636 332.038 310.668 350.847 314.025C351.879 311.837 354.962 306.813 354.962 306.813C349.952 305.945 345.182 304.027 340.966 301.186C336.749 298.344 333.181 294.642 330.496 290.323L326.891 292.636Z" fill="#FFE8CA"/>
</g>
<g style="mix-blend-mode:overlay" opacity="0.5">
<path d="M309.61 287.512C309.61 287.512 304.737 305.619 285.989 309.238C284.464 306.925 283.061 304.534 281.787 302.075C286.774 301.138 291.505 299.153 295.667 296.25C299.829 293.347 303.327 289.593 305.93 285.237L309.61 287.512Z" fill="#FFE8CA"/>
</g>
<path d="M305.831 361.393C293.473 362.077 285.231 355.71 281.203 345.935C276.292 334.047 254.884 341.769 267.167 350.909L269.007 350.238C258.887 342.689 275.795 336.77 281.352 348.994C285.28 360.385 295.686 362.437 306.03 361.952L305.831 361.393Z" fill="#CC7236"/>
<path d="M316.846 348.547C309.386 348.547 302.81 347.303 298.782 345.525C301.977 350.3 313.837 359.03 316.125 359.204C316.125 359.204 330.509 351.27 333.219 346.159C327.926 347.836 322.397 348.642 316.846 348.547Z" fill="#56302D"/>
<path d="M311.972 355.324C313.737 355.996 315.005 352.737 313.7 351.506C312.395 350.275 304.165 347.577 304.463 349.243C304.712 350.586 309.859 354.528 311.972 355.324Z" fill="#3D1E1C"/>
<path d="M319.767 355.2C318.114 355.672 317.405 352.302 318.71 351.22C320.016 350.138 327.624 348.385 327.139 349.977C326.766 351.295 321.731 354.64 319.767 355.2Z" fill="#3D1E1C"/>
<path d="M279.947 359.751C280.979 363.482 286.511 371.217 303.257 369.028C303.257 369.028 292.864 376.639 282.657 369.936C274.8 364.775 279.947 359.751 279.947 359.751Z" fill="#F7D9B5"/>
<path d="M326.058 346.42C328.591 346.42 330.645 345.663 330.645 344.729C330.645 343.795 328.591 343.038 326.058 343.038C323.524 343.038 321.47 343.795 321.47 344.729C321.47 345.663 323.524 346.42 326.058 346.42Z" fill="#966E6B"/>
<path d="M322.739 342.167C322.739 341.632 321.222 341.197 319.357 341.197C317.492 341.197 315.976 341.632 315.976 342.167C315.976 342.702 317.492 343.137 319.357 343.137C321.222 343.137 322.739 342.702 322.739 342.167Z" fill="#966E6B"/>
<path d="M348.846 495.412H324.504C324.504 495.412 334.039 488.062 342.021 488.062C350.002 488.062 348.846 495.412 348.846 495.412Z" fill="#FFC37B"/>
<path d="M386.901 495.412H357.474C357.474 495.412 368.998 484.58 378.608 484.58C388.218 484.58 386.901 495.412 386.901 495.412Z" fill="#FFC37B"/>
<path d="M270.785 495.412H293.163C293.163 495.412 285.579 488.062 278.244 488.062C270.909 488.062 270.785 495.412 270.785 495.412Z" fill="#FFC37B"/>
<path d="M225.469 495.412H256.898C256.898 495.412 246.268 484.332 235.95 484.332C225.631 484.332 225.469 495.412 225.469 495.412Z" fill="#FFC37B"/>
<path d="M261.137 287.226L267.999 273.709C261.968 277.766 257.114 283.342 253.926 289.875L261.137 287.226Z" fill="#FFB469"/>
<path d="M256.227 297.15L263.139 283.67C257.079 287.715 252.198 293.293 248.991 299.836L256.227 297.15Z" fill="#FFB469"/>
<path d="M252.398 307.919L257.893 293.805C257.893 293.805 248.382 299.824 244.652 310.668L252.398 307.919Z" fill="#FFB469"/>
<path d="M246.728 319.385L252.223 305.271C246.61 309.91 242.321 315.95 239.791 322.78L246.728 319.385Z" fill="#FFB469"/>
<path d="M240.04 332.791L245.535 318.664C239.918 323.305 235.629 329.35 233.103 336.186L240.04 332.791Z" fill="#FFB469"/>
<path d="M236.024 344.505L240.176 329.943C235.026 335.085 231.328 341.499 229.46 348.534L236.024 344.505Z" fill="#FFB469"/>
<path d="M236.236 358.881L233.898 343.958C231.378 350.788 230.709 358.163 231.959 365.335L236.236 358.881Z" fill="#FFB469"/>
<path d="M241.357 370.62L235.228 356.767C234.561 364.013 235.822 371.306 238.883 377.907L241.357 370.62Z" fill="#FFB469"/>
<path d="M369.297 290.485L362.932 278.36C368.554 281.857 373.104 286.835 376.085 292.748L369.297 290.485Z" fill="#FFB469"/>
<path d="M373.871 299.388L367.432 287.301C373.08 290.764 377.665 295.716 380.684 301.614L373.871 299.388Z" fill="#FFB469"/>
<path d="M377.403 309.101L372.318 296.391C372.318 296.391 381.257 301.602 384.688 311.389L377.403 309.101Z" fill="#FFB469"/>
<path d="M382.674 319.397L377.577 306.688C382.813 310.716 386.829 316.119 389.176 322.295L382.674 319.397Z" fill="#FFB469"/>
<path d="M387.734 331.808L382.649 319.099C387.876 323.133 391.886 328.534 394.236 334.706L387.734 331.808Z" fill="#FFB469"/>
<path d="M389.76 341.906L385.943 328.737C390.738 333.257 394.182 339.022 395.889 345.388L389.76 341.906Z" fill="#FFB469"/>
<path d="M389.002 351.767L389.412 337.864C392.58 343.686 394.078 350.271 393.739 356.891L389.002 351.767Z" fill="#FFB469"/>
<path d="M386.776 363.905L390.32 350.225C392.06 356.687 392.013 363.5 390.183 369.936L386.776 363.905Z" fill="#FFB469"/>
</g>
<defs>
<linearGradient id="paint0_linear" x1="356.106" y1="76.2803" x2="391.443" y2="55.882" gradientUnits="userSpaceOnUse">
<stop stop-color="#FDB232"/>
<stop offset="0.02" stop-color="#FDB432"/>
<stop offset="0.18" stop-color="#FDBE33"/>
<stop offset="0.55" stop-color="#FDCA30"/>
<stop offset="1" stop-color="#FDD42D"/>
</linearGradient>
<linearGradient id="paint1_linear" x1="359.575" y1="59.8901" x2="359.575" y2="42.1444" gradientUnits="userSpaceOnUse">
<stop stop-color="#06AAF4"/>
<stop offset="0.1" stop-color="#17AFF4"/>
<stop offset="0.38" stop-color="#43BAF5"/>
<stop offset="0.64" stop-color="#63C3F6"/>
<stop offset="0.85" stop-color="#77C8F6"/>
<stop offset="1" stop-color="#7ECAF6"/>
</linearGradient>
<clipPath id="clip0">
<rect width="568" height="546" fill="white"/>
</clipPath>
</defs>
</svg>
