<svg width="40" height="40" viewBox="0 0 40 40" fill="none" xmlns="http://www.w3.org/2000/svg">
<circle cx="20" cy="20" r="20" fill="#079477" fill-opacity="0.1"/>
<path d="M10.7413 12.9106C10.6253 14.2338 9.24512 14.4382 9.24512 14.4382C10.4294 14.4981 10.7192 16.0527 10.7192 16.0527C10.7483 14.945 12.2496 14.4321 12.2496 14.4321C11.1266 14.361 10.7413 12.9106 10.7413 12.9106Z" fill="#D7E057"/>
<path d="M12.2609 14.2605C11.2762 14.1983 10.9111 12.8794 10.9075 12.8662C10.8861 12.7855 10.8105 12.7325 10.7267 12.7394C10.6437 12.7468 10.578 12.8123 10.5708 12.8955C10.4682 14.0644 9.27091 14.2605 9.22038 14.2683C9.13296 14.2811 9.06968 14.3582 9.07393 14.4463C9.07818 14.5346 9.14861 14.605 9.23692 14.6095C10.2701 14.6618 10.548 16.0699 10.5507 16.0843C10.5661 16.1659 10.6377 16.2242 10.7195 16.2242C10.724 16.2242 10.7287 16.224 10.7334 16.2235C10.8208 16.2164 10.8888 16.1448 10.8912 16.057C10.9167 15.083 12.2918 14.599 12.3056 14.5943C12.3832 14.5679 12.431 14.4901 12.4201 14.4089C12.4091 14.328 12.3425 14.2658 12.2609 14.2605ZM10.7039 15.4397C10.5496 15.0808 10.282 14.6475 9.83881 14.4206C10.1749 14.2609 10.574 13.9752 10.781 13.4768C10.9572 13.829 11.259 14.2661 11.7314 14.4785C11.3867 14.6649 10.9375 14.98 10.7039 15.4397Z" fill="#3A312A"/>
<path d="M8.25061 14.8459C8.16855 15.7819 7.19238 15.9263 7.19238 15.9263C8.02993 15.9688 8.23496 17.0684 8.23496 17.0684C8.25553 16.2849 9.31755 15.9221 9.31755 15.9221C8.52316 15.8717 8.25061 14.8459 8.25061 14.8459Z" fill="#D7E057"/>
<path d="M9.32879 15.7505C8.67123 15.7091 8.42126 14.817 8.41701 14.8014C8.39555 14.7209 8.32087 14.6686 8.23636 14.6746C8.15318 14.6818 8.08723 14.7477 8.08007 14.8309C8.01121 15.617 7.20139 15.7512 7.16763 15.7565C7.0802 15.7693 7.01715 15.8464 7.02118 15.9345C7.02543 16.0228 7.09586 16.0932 7.18417 16.0977C7.87482 16.1328 8.06487 17.0902 8.06666 17.0996C8.08208 17.1814 8.15341 17.24 8.23546 17.24C8.23994 17.24 8.24441 17.2398 8.2491 17.2393C8.33675 17.2324 8.40494 17.1604 8.40718 17.0728C8.42439 16.4192 9.36434 16.0877 9.37351 16.0843C9.45109 16.0579 9.49916 15.9803 9.48821 15.8992C9.47725 15.818 9.4104 15.7559 9.32879 15.7505ZM8.22898 16.5248C8.1239 16.3086 7.96247 16.072 7.72189 15.9186C7.93452 15.8001 8.14603 15.619 8.2813 15.3579C8.40159 15.5727 8.58358 15.8115 8.84495 15.9578C8.63277 16.083 8.38728 16.2697 8.22898 16.5248Z" fill="#3A312A"/>
<path d="M8.26157 11.7942C8.17929 12.7303 7.20312 12.8748 7.20312 12.8748C8.04067 12.917 8.2457 14.0166 8.2457 14.0166C8.26649 13.2332 9.32829 12.8705 9.32829 12.8705C8.5339 12.8202 8.26157 11.7942 8.26157 11.7942Z" fill="#D7E057"/>
<path d="M9.33884 12.6991C8.68128 12.6575 8.43131 11.7654 8.42706 11.75C8.4056 11.6695 8.3307 11.6167 8.24641 11.6232C8.16324 11.6304 8.09728 11.6961 8.09012 11.7793C8.02126 12.5656 7.21144 12.6998 7.17768 12.7049C7.09026 12.7179 7.0272 12.795 7.03145 12.8831C7.0357 12.9714 7.10591 13.0419 7.19422 13.0463C7.8851 13.0812 8.07492 14.0388 8.07671 14.0482C8.09191 14.13 8.16346 14.1884 8.24551 14.1884C8.24999 14.1884 8.25446 14.1884 8.25915 14.188C8.3468 14.1808 8.41499 14.109 8.41723 14.0214C8.43444 13.3678 9.37439 13.0363 9.38378 13.0331C9.46114 13.0065 9.50921 12.929 9.49826 12.8478C9.48752 12.7666 9.42067 12.7045 9.33884 12.6991ZM8.23903 13.4732C8.13395 13.2569 7.97274 13.0204 7.73216 12.867C7.94479 12.7485 8.1563 12.5674 8.29157 12.306C8.41186 12.5209 8.59386 12.7597 8.85523 12.9061C8.64305 13.0314 8.39755 13.2183 8.23903 13.4732Z" fill="#3A312A"/>
<path d="M20.6539 16.9954C20.6539 15.1908 20.3657 13.7279 20.0104 13.7279C19.6549 13.7279 19.3667 15.1908 19.3667 16.9954C19.3667 18.8001 19.6549 20.2628 20.0104 20.2628C20.3657 20.2628 20.6539 18.8001 20.6539 16.9954Z" fill="#87796F"/>
<path d="M20.0107 13.5561C19.2045 13.5561 19.1953 16.8551 19.1953 16.9953C19.1953 17.1359 19.2045 20.4344 20.0107 20.4344C20.8168 20.4344 20.8259 17.1359 20.8259 16.9953C20.8259 16.8549 20.8168 13.5561 20.0107 13.5561ZM20.0107 20.0854C19.8345 19.9553 19.5387 18.8564 19.5387 16.9953C19.5387 15.1341 19.8345 14.0355 20.0107 13.9053C20.1867 14.0355 20.4825 15.1344 20.4825 16.9953C20.4825 18.8562 20.1867 19.9551 20.0107 20.0854Z" fill="#3A312A"/>
<path d="M13.9045 18.8055C12.8726 17.3252 11.7999 16.2895 11.5083 16.4927C11.2165 16.696 11.8166 18.061 12.8485 19.5413C13.8803 21.0219 14.9528 22.0575 15.2446 21.8543C15.5362 21.6511 14.9363 20.2861 13.9045 18.8055Z" fill="#87796F"/>
<path d="M15.2283 20.7398C14.9707 20.1542 14.5508 19.4325 14.0455 18.7074C13.9652 18.5922 12.0708 15.8914 11.4103 16.3519C10.749 16.8127 12.6275 19.5246 12.7078 19.6397C12.7816 19.7459 14.3956 22.0482 15.1659 22.0482C15.2316 22.0482 15.2911 22.0314 15.343 21.9952C15.5712 21.8362 15.5348 21.4374 15.2283 20.7398ZM15.1433 21.7088C14.9244 21.7025 14.0536 20.9703 12.9895 19.4434C11.9257 17.9168 11.54 16.8461 11.61 16.6386C11.8287 16.6446 12.6998 17.3771 13.7638 18.9039C14.8278 20.4308 15.2133 21.5015 15.1433 21.7088Z" fill="#3A312A"/>
<path d="M10.0886 22.7003C8.73281 21.5093 7.44385 20.76 7.20931 21.027C6.97454 21.2942 7.88319 22.476 9.23878 23.6673C10.5946 24.8586 11.8836 25.6078 12.1181 25.3408C12.3526 25.0736 11.444 23.8916 10.0886 22.7003Z" fill="#87796F"/>
<path d="M11.8355 24.2623C11.4455 23.755 10.8651 23.1545 10.2015 22.5711C9.53792 21.988 8.86784 21.4899 8.31469 21.1681C7.65601 20.7854 7.26362 20.7046 7.08006 20.9135C6.89628 21.1225 7.02707 21.501 7.49146 22.1049C7.88139 22.6123 8.46181 23.2128 9.12541 23.7959C9.21797 23.8773 11.1439 25.5602 11.9728 25.5602C12.0879 25.5602 12.182 25.5276 12.2471 25.4538C12.4307 25.245 12.2999 24.8662 11.8355 24.2623ZM9.3519 23.5381C7.95383 22.3098 7.32377 21.362 7.3421 21.144C7.55585 21.097 8.57696 21.601 9.9748 22.8294C11.3729 24.0577 12.0032 25.0053 11.9846 25.2235C11.7709 25.2707 10.7497 24.7665 9.3519 23.5381Z" fill="#3A312A"/>
<path d="M28.4966 16.4927C28.2048 16.2895 27.1321 17.3251 26.1004 18.8057C25.0686 20.2863 24.4685 21.6513 24.7603 21.8545C25.052 22.0577 26.1248 21.0223 27.1564 19.5415C28.188 18.061 28.7882 16.696 28.4966 16.4927Z" fill="#87796F"/>
<path d="M28.595 16.3519C27.9343 15.8914 26.0401 18.5922 25.9598 18.7074C25.4545 19.4325 25.0346 20.1542 24.777 20.7398C24.4705 21.4374 24.4341 21.8362 24.6623 21.9952C24.7142 22.0314 24.7737 22.0482 24.8394 22.0482C25.6097 22.0482 27.2235 19.7459 27.2975 19.6397C27.3778 19.5246 29.2561 16.8127 28.595 16.3519ZM27.0158 19.4434C25.9518 20.9703 25.0807 21.7027 24.8618 21.7088C24.7918 21.5015 25.1773 20.4308 26.2413 18.9039C27.3056 17.3768 28.1764 16.6446 28.3953 16.6386C28.4653 16.8458 28.0796 17.9168 27.0158 19.4434Z" fill="#3A312A"/>
<path d="M32.796 21.027C32.5612 20.76 31.2723 21.5093 29.9167 22.7003C28.5611 23.8916 27.6524 25.0736 27.887 25.3406C28.1217 25.6078 29.4109 24.8585 30.7663 23.6673C32.1219 22.476 33.0305 21.294 32.796 21.027Z" fill="#87796F"/>
<path d="M32.925 20.9136C32.7414 20.7046 32.3493 20.7857 31.6904 21.1685C31.1372 21.49 30.4671 21.9882 29.8035 22.5715C29.1397 23.1548 28.5595 23.7554 28.1696 24.2625C27.7052 24.8666 27.5746 25.2451 27.7582 25.4542C27.823 25.528 27.9172 25.5606 28.0325 25.5606C28.8613 25.5604 30.7873 23.8777 30.8799 23.7963C30.9852 23.7035 33.4569 21.5193 32.925 20.9136ZM30.6529 23.5383C29.2549 24.7667 28.2349 25.2702 28.0202 25.2234C28.0019 25.0054 28.632 24.0577 30.03 22.8293C31.4279 21.6009 32.4481 21.0967 32.6627 21.1439C32.6811 21.3624 32.0508 22.3099 30.6529 23.5383Z" fill="#3A312A"/>
<path d="M30.3587 23.4022C29.853 22.7366 29.1359 22.2749 28.3174 22.0676C28.3082 21.8895 28.2888 21.7124 28.2577 21.5375C28.0469 20.3512 27.3453 19.3638 26.3324 18.829C25.3855 18.3287 24.2649 18.2759 23.225 18.6754C22.5172 17.5423 21.3371 16.7982 20.0023 16.7982C18.6706 16.7982 17.4926 17.5394 16.7843 18.6685C15.7495 18.2768 14.637 18.3316 13.6961 18.8288C12.6833 19.3638 11.9814 20.3512 11.7706 21.5375C11.7406 21.7057 11.7219 21.8763 11.7123 22.0477C10.8613 22.2447 10.1152 22.7154 9.59357 23.402C8.90046 24.314 8.67978 25.5053 8.98855 26.6699C9.0525 26.9114 9.13835 27.1479 9.24411 27.3767L10.2337 28.7647C10.3741 28.901 10.5235 29.0296 10.6813 29.1497C11.5278 29.7931 12.5143 30.1073 13.4636 30.1073C13.6852 30.1073 13.9047 30.0903 14.12 30.0561C14.5379 30.9887 15.2979 31.7249 16.3402 32.1703C17.5178 32.6731 18.9159 32.7378 20.0025 32.7378C21.0889 32.7378 22.487 32.6731 23.6646 32.1703C24.7047 31.7258 25.4636 30.9922 25.8821 30.0628C26.0813 30.0916 26.2839 30.1073 26.4883 30.1073C27.4378 30.1073 28.424 29.7931 29.2705 29.1497C30.107 28.5142 30.7082 27.6336 30.9635 26.6699C31.2723 25.5053 31.0516 24.314 30.3587 23.4022Z" fill="#FCE8CB"/>
<path d="M30.4954 23.2984C29.993 22.6371 29.2986 22.1671 28.4809 21.9339C28.4695 21.7884 28.4514 21.6453 28.4268 21.5073C28.2066 20.2686 27.4725 19.2368 26.4125 18.677C25.4701 18.179 24.3415 18.1046 23.2949 18.467C22.5235 17.312 21.3023 16.6265 20.0024 16.6265C18.7054 16.6265 17.4859 17.3095 16.7143 18.461C15.6733 18.1059 14.5514 18.1824 13.6159 18.677C12.5559 19.2368 11.8217 20.2684 11.6014 21.5075C11.5784 21.6374 11.561 21.7727 11.5496 21.9113C10.7089 22.1342 9.96949 22.6232 9.45681 23.2982C8.73128 24.2527 8.50009 25.4976 8.8225 26.7139C8.88846 26.9628 8.97789 27.21 9.08834 27.4486C9.12792 27.5347 9.23009 27.5722 9.31617 27.5324C9.40225 27.4927 9.43982 27.3907 9.40002 27.3046C9.29784 27.0839 9.21534 26.8557 9.15452 26.6258C8.85939 25.5126 9.06911 24.3754 9.73003 23.5059C10.2195 22.8618 10.9372 22.4034 11.7508 22.2152C11.8252 22.198 11.8791 22.1338 11.8836 22.0575C11.893 21.8883 11.9118 21.7235 11.9395 21.5677C12.1409 20.4337 12.8103 19.4908 13.7762 18.9808C14.6639 18.5115 15.7382 18.4563 16.7233 18.8292C16.7998 18.8583 16.8863 18.8292 16.9297 18.7599C17.6326 17.6391 18.7812 16.9699 20.0024 16.9699C21.2263 16.9699 22.3766 17.6415 23.0791 18.7664C23.1227 18.8361 23.2099 18.8652 23.2866 18.8357C24.2766 18.4554 25.3577 18.5084 26.252 18.9808C27.2179 19.491 27.8871 20.4339 28.0885 21.5677C28.1176 21.7311 28.137 21.9022 28.1458 22.0768C28.1498 22.1519 28.2021 22.2158 28.2752 22.2344C29.0692 22.4354 29.7424 22.8752 30.222 23.5064C30.8826 24.3757 31.0924 25.5128 30.7972 26.626C30.5517 27.5528 29.9727 28.4006 29.1666 29.0132C28.3836 29.6084 27.4325 29.9362 26.4883 29.9362C26.2978 29.9362 26.1022 29.9217 25.9066 29.8933C25.8312 29.8821 25.7568 29.9228 25.7252 29.9928C25.3203 30.8925 24.5843 31.5909 23.5969 32.0129C22.4482 32.5036 21.0724 32.5664 20.0024 32.5664C18.9323 32.5664 17.5566 32.5036 16.4076 32.0129C15.4182 31.5901 14.6811 30.8893 14.2766 29.9863C14.2449 29.9154 14.1691 29.8749 14.093 29.887C13.8867 29.9194 13.6747 29.9362 13.4634 29.9362C12.5192 29.9362 11.5679 29.6084 10.7851 29.0132C10.6344 28.899 10.4891 28.774 10.3534 28.6419C10.2854 28.5759 10.1767 28.5775 10.1106 28.6455C10.0444 28.7134 10.046 28.8223 10.1141 28.8883C10.2599 29.03 10.4158 29.1639 10.5774 29.2867C11.573 30.0435 12.8302 30.3954 14.0181 30.2445C14.4687 31.1706 15.2456 31.8897 16.2728 32.3286C17.479 32.8439 18.8997 32.9099 20.0024 32.9099C21.1053 32.9099 22.5257 32.8439 23.7318 32.3286C24.7573 31.8905 25.5334 31.1735 25.9841 30.2499C26.1536 30.2696 26.3226 30.2796 26.4883 30.2796C27.507 30.2796 28.5321 29.927 29.3743 29.2869C30.2412 28.6282 30.8643 27.7147 31.1295 26.7141C31.4519 25.4974 31.2207 24.2525 30.4954 23.2984Z" fill="#3A312A"/>
<path d="M20.0027 24.4111C17.8836 24.4111 16.1655 26.4973 16.1655 28.2565C16.1655 29.7822 17.4583 30.2153 19.1839 30.3036H20.8212C22.5473 30.2156 23.8403 29.7825 23.8403 28.2565C23.8403 26.4973 22.122 24.4111 20.0027 24.4111Z" fill="#87796F"/>
<path d="M20.0025 24.2393C17.7819 24.2393 15.9937 26.4369 15.9937 28.2565C15.9937 30.0787 17.6938 30.3993 19.175 30.4749C19.2683 30.4798 19.3503 30.4069 19.3552 30.3123C19.3599 30.2175 19.2873 30.137 19.1925 30.1321C17.1909 30.0297 16.3371 29.469 16.3371 28.2565C16.3371 26.5923 17.9719 24.5827 20.0025 24.5827C22.0331 24.5827 23.6682 26.5925 23.6682 28.2565C23.6682 29.469 22.8141 30.0299 20.8123 30.1321C20.7175 30.1368 20.6447 30.2175 20.6496 30.3123C20.6543 30.404 20.7301 30.4753 20.8208 30.4753C20.8237 30.4753 20.8269 30.4751 20.8296 30.4749C22.311 30.3993 24.0116 30.0789 24.0116 28.2565C24.0118 26.4369 22.2234 24.2393 20.0025 24.2393Z" fill="#3A312A"/>
<path d="M20.0027 19.2131C19.1728 19.2131 18.5 20.0766 18.5 21.142C18.5 22.2071 19.1728 23.0706 20.0027 23.0706C20.8327 23.0706 21.5056 22.2071 21.5056 21.142C21.5056 20.0766 20.8329 19.2131 20.0027 19.2131Z" fill="#87796F"/>
<path d="M20.0025 19.0416C19.0794 19.0416 18.3281 19.9837 18.3281 21.1419C18.3281 22.3001 19.0794 23.2423 20.0025 23.2423C20.9259 23.2423 21.6772 22.3001 21.6772 21.1419C21.6772 19.9837 20.9259 19.0416 20.0025 19.0416ZM20.0025 22.8988C19.2687 22.8988 18.6715 22.1107 18.6715 21.1419C18.6715 20.1733 19.2687 19.385 20.0025 19.385C20.7366 19.385 21.3338 20.1733 21.3338 21.1419C21.3338 22.1107 20.7366 22.8988 20.0025 22.8988Z" fill="#3A312A"/>
<path d="M17.0541 21.9676C16.5564 21.0256 15.5581 20.5764 14.8243 20.9643C14.0905 21.352 13.8989 22.4297 14.3963 23.3714C14.8938 24.3134 15.8921 24.7626 16.6259 24.3749C17.3599 23.987 17.5515 22.9093 17.0541 21.9676Z" fill="#87796F"/>
<path d="M17.206 21.8874C16.9475 21.3981 16.5542 21.0158 16.0984 20.8108C15.6279 20.5991 15.147 20.5997 14.7441 20.8126C14.3414 21.0254 14.0698 21.4223 13.9797 21.9303C13.892 22.4224 13.9864 22.9628 14.2446 23.4518C14.6511 24.2211 15.3755 24.6848 16.057 24.6848C16.2826 24.6848 16.5033 24.6339 16.7065 24.5268C17.5228 24.0952 17.7468 22.9114 17.206 21.8874ZM16.5462 24.2231C15.8969 24.5659 15.0012 24.148 14.5485 23.2912C14.3256 22.8696 14.2437 22.4074 14.3177 21.9902C14.3891 21.5886 14.5977 21.2783 14.9046 21.116C15.0558 21.0364 15.223 20.9964 15.3983 20.9964C15.5792 20.9964 15.7686 21.0388 15.9575 21.1238C16.3439 21.2978 16.6795 21.6258 16.9024 22.0477C17.3549 22.9042 17.1948 23.8802 16.5462 24.2231Z" fill="#3A312A"/>
<path d="M13.9613 24.8338C13.1132 24.1892 12.0186 24.2024 11.5164 24.8633C11.0142 25.5243 11.2946 26.5823 12.1426 27.2268C12.9907 27.8714 14.0854 27.858 14.5875 27.1971C15.0897 26.5364 14.8093 25.4782 13.9613 24.8338Z" fill="#87796F"/>
<path d="M14.065 24.697C13.6248 24.3623 13.1052 24.1805 12.6073 24.1873C12.0912 24.1937 11.6555 24.3967 11.3798 24.7594C11.1041 25.1221 11.025 25.5967 11.1573 26.0953C11.2852 26.5785 11.5984 27.0288 12.0389 27.3635C12.4854 27.7029 12.9983 27.8712 13.4719 27.8712C13.9763 27.8712 14.4362 27.6803 14.7244 27.3011C15.2829 26.5657 14.9871 25.3977 14.065 24.697ZM14.4509 27.0932C14.0067 27.6776 13.018 27.6763 12.2466 27.09C11.8667 26.8014 11.5978 26.4168 11.4891 26.0072C11.3847 25.613 11.4431 25.2437 11.6532 24.9673C11.8634 24.6908 12.2037 24.5356 12.6113 24.5307H12.6316C13.0491 24.5307 13.4835 24.6863 13.8575 24.9705C14.6287 25.5565 14.895 26.5089 14.4509 27.0932Z" fill="#3A312A"/>
<path d="M25.2044 20.9643C24.4706 20.5766 23.4723 21.0258 22.9746 21.9675C22.4769 22.9092 22.6685 23.9871 23.4025 24.3748C24.1363 24.7625 25.1346 24.3133 25.6321 23.3716C26.1298 22.4299 25.9382 21.352 25.2044 20.9643Z" fill="#87796F"/>
<path d="M26.0492 21.9301C25.9589 21.4223 25.6875 21.0252 25.2846 20.8126C24.8817 20.5997 24.401 20.5991 23.9306 20.8108C23.4747 21.0158 23.0814 21.3981 22.8229 21.8874C22.2819 22.9114 22.5059 24.0952 23.3224 24.5265C23.5254 24.6339 23.7461 24.6846 23.9717 24.6846C24.653 24.6846 25.3776 24.2211 25.7841 23.4518C26.0425 22.9626 26.1367 22.4224 26.0492 21.9301ZM25.4804 23.2915C25.0279 24.148 24.132 24.5661 23.483 24.2231C22.8339 23.8802 22.674 22.9044 23.1266 22.0479C23.3495 21.626 23.6851 21.298 24.0714 21.124C24.2604 21.0391 24.4497 20.9966 24.6308 20.9966C24.8059 20.9966 24.9731 21.0366 25.1243 21.1162C25.4315 21.2785 25.6399 21.5889 25.7112 21.9904C25.7852 22.4074 25.7034 22.8696 25.4804 23.2915Z" fill="#3A312A"/>
<path d="M28.4361 24.8633C27.9339 24.2024 26.8395 24.1892 25.9914 24.8338C25.1434 25.4782 24.8628 26.5364 25.365 27.1971C25.8674 27.858 26.9618 27.8714 27.8099 27.2268C28.6579 26.5823 28.9383 25.5243 28.4361 24.8633Z" fill="#87796F"/>
<path d="M28.5725 24.7593C28.2968 24.3967 27.8611 24.1937 27.345 24.1872C26.8453 24.1809 26.3275 24.3622 25.887 24.6969C24.9648 25.3977 24.6692 26.5659 25.2279 27.301C25.5161 27.68 25.976 27.8712 26.4804 27.8712C26.954 27.8712 27.4667 27.7026 27.9134 27.3634C28.8354 26.6627 29.131 25.4945 28.5725 24.7593ZM27.7057 27.09C26.9345 27.6762 25.9456 27.6775 25.5014 27.0931C25.0573 26.5089 25.3234 25.5564 26.0947 24.9704C26.4688 24.6864 26.9032 24.5306 27.3207 24.5306H27.341C27.7486 24.5355 28.0889 24.6907 28.2991 24.9673C28.7431 25.5515 28.4768 26.5039 27.7057 27.09Z" fill="#3A312A"/>
<path d="M30.2217 23.5066C29.7421 22.8747 29.07 22.4351 28.2757 22.2348C28.2023 22.2154 28.1498 22.1523 28.1462 22.0767C28.1373 21.9028 28.1176 21.7311 28.089 21.5674C27.8875 20.4341 27.2179 19.4908 26.2529 18.9803C25.4996 18.5841 24.6158 18.4833 23.7653 18.6883C24.032 18.7536 24.2907 18.8509 24.5358 18.9803C25.5008 19.4908 26.1704 20.4341 26.3718 21.5674C26.4005 21.7311 26.4201 21.9028 26.4291 22.0767C26.4327 22.1523 26.4852 22.2154 26.5585 22.2348C27.3529 22.4351 28.025 22.8747 28.5046 23.5066C29.1662 24.3754 29.3757 25.5121 29.0803 26.626C28.8355 27.5532 28.2562 28.4004 27.4504 29.0128C26.6672 29.6082 25.7161 29.9355 24.7716 29.9355C24.5816 29.9355 24.3857 29.9216 24.1901 29.893C24.1145 29.8816 24.0401 29.923 24.0081 29.9927C23.6039 30.8924 22.8678 31.5907 21.88 32.0121C21.0215 32.3795 20.0346 32.5078 19.144 32.549C19.4439 32.5615 19.7323 32.5662 20.0026 32.5662C21.0729 32.5662 22.4488 32.5031 23.5972 32.0121C24.585 31.5907 25.321 30.8924 25.7252 29.9927C25.7572 29.923 25.8317 29.8816 25.9072 29.893C26.1029 29.9216 26.2987 29.9355 26.4888 29.9355C27.4332 29.9355 28.3843 29.6082 29.1675 29.0128C29.9733 28.4004 30.5526 27.5532 30.7975 26.626C31.0928 25.5121 30.8833 24.3754 30.2217 23.5066Z" fill="#DECAAD"/>
<path d="M25.1094 11.0778L25.1128 11.0423C25.1289 10.8341 25.2022 10.6452 25.3156 10.4871L19.9133 10.0533C19.9066 10.4676 19.8058 10.8591 19.6318 11.2073L25.2206 11.656C25.1347 11.4832 25.0922 11.2851 25.1094 11.0778Z" fill="#87796F"/>
<path d="M25.2839 11.0557C25.2969 10.8871 25.3561 10.725 25.4549 10.5873C25.4909 10.537 25.4972 10.4712 25.4713 10.4151C25.4451 10.3588 25.391 10.321 25.3293 10.3161L19.9271 9.88232C19.8803 9.8783 19.8332 9.8944 19.7978 9.92614C19.7627 9.95812 19.7424 10.0033 19.7415 10.0505C19.7352 10.4301 19.6467 10.7934 19.4781 11.1306C19.4526 11.1816 19.454 11.2419 19.4821 11.2918C19.5101 11.3414 19.5608 11.3738 19.6179 11.3785L25.2065 11.8273C25.2112 11.8275 25.2157 11.8277 25.2204 11.8277C25.277 11.8277 25.3304 11.7998 25.3626 11.7524C25.3973 11.701 25.4017 11.6352 25.3742 11.5798C25.2989 11.4282 25.2667 11.2596 25.2803 11.0941L25.2839 11.0557ZM24.9689 11.4635L19.8875 11.0555C19.9908 10.7941 20.0541 10.5209 20.0762 10.2387L25.036 10.6371C24.9841 10.761 24.9521 10.8925 24.9418 11.0262L24.9382 11.0637C24.9271 11.1981 24.9376 11.3332 24.9689 11.4635Z" fill="#3A312A"/>
<path d="M31.7439 10.4687L26.2992 10.0314C25.6922 9.98263 25.1607 10.4352 25.112 11.042L25.1091 11.0775C25.0603 11.6845 25.5129 12.216 26.1199 12.2648L31.5644 12.7021C32.1714 12.751 32.7029 12.2985 32.7516 11.6915L32.7545 11.6559C32.8033 11.0491 32.3507 10.5174 31.7439 10.4687Z" fill="#8AC6DD"/>
<path d="M31.758 10.2976L26.313 9.86026C25.6134 9.80369 24.9972 10.3278 24.9409 11.028V11.0285L24.9382 11.0638C24.8821 11.7641 25.4059 12.3796 26.1062 12.4359L31.5509 12.8733C31.5856 12.876 31.62 12.8773 31.654 12.8773C32.3105 12.8773 32.8696 12.3709 32.9231 11.7048L32.9258 11.6697C32.9821 10.9692 32.458 10.3537 31.758 10.2976ZM32.5834 11.6424L32.5808 11.6778C32.5396 12.1893 32.0896 12.5723 31.5784 12.531L26.1335 12.0936C25.6219 12.0525 25.2394 11.6029 25.2805 11.0909L25.2832 11.0553C25.3243 10.544 25.7722 10.1614 26.2855 10.2023L31.7303 10.6397C32.2418 10.681 32.6246 11.1307 32.5834 11.6424Z" fill="#3A312A"/>
<path d="M25.3155 9.52219C25.2022 9.36434 25.1288 9.17541 25.1127 8.96703L25.1094 8.93148C25.0922 8.72422 25.1346 8.52634 25.2216 8.35217L23.138 8.51964L21.67 8.63769L19.626 8.80225C19.8001 9.14209 19.9019 9.5233 19.9133 9.92866C19.9133 9.93783 19.9146 9.947 19.9133 9.95616L25.3155 9.52219Z" fill="#87796F"/>
<path d="M25.4547 9.42225C25.3559 9.28453 25.2967 9.12243 25.2835 8.95094L25.2803 8.9174C25.2665 8.74971 25.2991 8.58068 25.3749 8.42887C25.4026 8.37364 25.3982 8.30746 25.3635 8.25604C25.3289 8.20462 25.2689 8.17533 25.2075 8.18092L23.1241 8.3486C23.0295 8.35598 22.9591 8.43893 22.9667 8.53328C22.9743 8.62808 23.0586 8.69874 23.1516 8.69069L24.9691 8.54469C24.9376 8.67571 24.9271 8.81142 24.9383 8.94759L24.9414 8.98023C24.9519 9.11572 24.9839 9.24786 25.036 9.37217L20.0764 9.7706C20.0534 9.48776 19.9888 9.21432 19.8835 8.95362L21.6835 8.80896C21.7779 8.80136 21.8483 8.71864 21.8409 8.62406C21.8333 8.52948 21.75 8.45905 21.656 8.46666L19.612 8.63099C19.5548 8.63546 19.5038 8.66833 19.4759 8.71841C19.4479 8.76872 19.4468 8.82931 19.473 8.88029C19.6407 9.20806 19.731 9.56222 19.7415 9.92845L19.7419 9.94365C19.7386 9.9915 19.7554 10.0391 19.7884 10.074C19.8211 10.1084 19.8663 10.1277 19.9132 10.1277C19.9177 10.1277 19.9224 10.1277 19.9268 10.127L25.3291 9.69324C25.3908 9.68832 25.4451 9.65053 25.4713 9.59441C25.497 9.53829 25.4907 9.47234 25.4547 9.42225Z" fill="#3A312A"/>
<path d="M32.7548 8.35321L32.7519 8.31766C32.7031 7.71085 32.1717 7.25832 31.5646 7.30706L26.1202 7.74439C25.5131 7.79313 25.0608 8.32482 25.1096 8.93162L25.1122 8.96717C25.1612 9.5742 25.6927 10.0265 26.2995 9.97777L31.7442 9.54044C32.351 9.4917 32.8035 8.96024 32.7548 8.35321Z" fill="#8AC6DD"/>
<path d="M32.9258 8.33983L32.9231 8.30384C32.8668 7.60357 32.2535 7.07971 31.551 7.13583L26.1063 7.57316C25.7671 7.60044 25.4588 7.75829 25.2381 8.01743C25.0174 8.27656 24.911 8.60612 24.9383 8.94508L24.941 8.98063V8.98085C24.9946 9.64668 25.5536 10.1531 26.2102 10.1531C26.2445 10.1531 26.2787 10.1518 26.3131 10.1491L31.758 9.71152C32.0972 9.68447 32.4055 9.52662 32.6262 9.26748C32.8467 9.00835 32.9531 8.67879 32.9258 8.33983ZM32.3646 9.04502C32.2034 9.23417 31.9783 9.34932 31.7303 9.36944L26.2856 9.80677C25.7725 9.84791 25.3246 9.46513 25.2833 8.9538L25.2806 8.91802C25.2605 8.67007 25.3385 8.42949 25.4995 8.24012C25.6607 8.05074 25.8858 7.93559 26.1336 7.91569L31.5785 7.47814C32.0914 7.43678 32.5395 7.82 32.5808 8.33111L32.5835 8.36689C32.6034 8.61484 32.5256 8.85564 32.3646 9.04502Z" fill="#3A312A"/>
<path d="M11.9737 7.30042C11.7296 7.30042 11.5312 7.49851 11.5312 7.74289V7.83322C11.5312 8.06306 11.707 8.254 11.9359 8.2739C13.1428 8.37675 14.1353 8.82012 14.557 9.41239L16.6692 7.30042H11.9737Z" fill="#8AC6DD"/>
<path d="M16.8283 7.23464C16.8015 7.17047 16.7391 7.12866 16.6695 7.12866H11.974C11.6353 7.12866 11.3599 7.40412 11.3599 7.74285V7.83318C11.3599 8.15424 11.6013 8.41718 11.9217 8.4449C13.0616 8.54194 14.0178 8.95087 14.4176 9.51207C14.4469 9.55298 14.493 9.57937 14.5433 9.58362C14.548 9.58384 14.5529 9.58406 14.5576 9.58406C14.603 9.58406 14.6466 9.56618 14.679 9.53376L16.791 7.42178C16.8399 7.37259 16.8547 7.29881 16.8283 7.23464ZM14.571 9.15612C14.0639 8.59694 13.0853 8.19918 11.951 8.10259C11.8097 8.0903 11.7033 7.97448 11.7033 7.83295V7.74285C11.7033 7.59327 11.8247 7.47186 11.974 7.47186H16.255L14.571 9.15612Z" fill="#3A312A"/>
<path d="M19.9134 9.92887C19.8729 8.4559 18.6271 7.30042 17.1542 7.30042H16.6692L14.5572 9.41239C14.6988 9.61049 14.7761 9.82513 14.7761 10.0496C14.7761 10.9446 13.5469 11.6883 11.9359 11.8253C11.8215 11.8354 11.7204 11.8884 11.6473 11.9668C11.5753 12.0462 11.5312 12.1517 11.5312 12.2662C11.5312 12.5106 11.7296 12.7089 11.9737 12.7089H17.2101C18.7289 12.7089 19.9548 11.4566 19.9134 9.92887Z" fill="#F16C7A"/>
<path d="M20.0852 9.92413C20.043 8.38275 18.7283 7.12866 17.1545 7.12866H16.6695C16.6242 7.12866 16.5803 7.14677 16.5481 7.17874L14.4362 9.29094C14.3767 9.35019 14.3691 9.44365 14.4178 9.51207C14.5419 9.68602 14.605 9.8669 14.605 10.0496C14.605 10.8343 13.4515 11.5241 11.9215 11.6542C11.769 11.6674 11.6273 11.737 11.5208 11.8514C11.4171 11.9655 11.3599 12.1128 11.3599 12.2662C11.3599 12.6049 11.6355 12.8804 11.9743 12.8804H17.2104C17.9934 12.8804 18.7254 12.5714 19.2716 12.0102C19.8176 11.4492 20.1067 10.7082 20.0852 9.92413ZM19.0254 11.7707C18.5445 12.2648 17.8999 12.5369 17.2104 12.5369H11.974C11.8247 12.5369 11.7033 12.4155 11.7033 12.2662C11.7033 12.1984 11.7286 12.1331 11.7735 12.084C11.8204 12.0334 11.8835 12.0023 11.9508 11.9963C13.6876 11.8485 14.9484 11.03 14.9484 10.0496C14.9484 9.8385 14.8907 9.63258 14.7769 9.43583L16.7406 7.47186H17.1545C18.5438 7.47186 19.7047 8.57615 19.742 9.9333C19.7608 10.6242 19.5064 11.2766 19.0254 11.7707Z" fill="#3A312A"/>
<path d="M17.9163 8.51847C17.071 8.15335 16.0894 8.54284 15.7243 9.38843C15.3594 10.2338 15.7489 11.2153 16.5943 11.5805C17.4399 11.9453 18.4212 11.5559 18.7863 10.7105C19.1514 9.86489 18.7619 8.88336 17.9163 8.51847Z" fill="#D7E057"/>
<path d="M17.2554 8.21033C16.241 8.21033 15.416 9.03535 15.416 10.0495C15.416 11.0637 16.241 11.8887 17.2554 11.8887C18.2696 11.8887 19.0946 11.0637 19.0946 10.0495C19.0946 9.03535 18.2696 8.21033 17.2554 8.21033ZM17.2554 11.5455C16.4304 11.5455 15.7594 10.8743 15.7594 10.0495C15.7594 9.22473 16.4304 8.55375 17.2554 8.55375C18.0802 8.55375 18.7512 9.22473 18.7512 10.0495C18.7512 10.8743 18.0802 11.5455 17.2554 11.5455Z" fill="#3A312A"/>
<path d="M17.2552 9.37378C16.8818 9.37378 16.5791 9.67629 16.5791 10.0497C16.5791 10.4233 16.8818 10.7258 17.2552 10.7258C17.6286 10.7258 17.9313 10.4233 17.9313 10.0497C17.9313 9.67629 17.6286 9.37378 17.2552 9.37378Z" fill="#FCE8CB"/>
<path d="M17.2555 9.20197C16.788 9.20197 16.4077 9.58206 16.4077 10.0496C16.4077 10.5171 16.788 10.8974 17.2555 10.8974C17.7228 10.8974 18.1032 10.5171 18.1032 10.0496C18.1032 9.58206 17.7228 9.20197 17.2555 9.20197ZM17.2555 10.554C16.9774 10.554 16.7511 10.3277 16.7511 10.0496C16.7511 9.77143 16.9774 9.54517 17.2555 9.54517C17.5335 9.54517 17.7597 9.77143 17.7597 10.0496C17.7597 10.3277 17.5335 10.554 17.2555 10.554Z" fill="#3A312A"/>
<path d="M32.3647 10.9647C32.2033 10.7746 31.9777 10.6601 31.7304 10.6396L30.5662 10.5457C30.8788 10.7632 31.07 11.1352 31.038 11.5417L31.0344 11.577C31.0047 11.9516 30.7896 12.2675 30.4873 12.4425L31.5782 12.5306C32.09 12.572 32.5398 12.1897 32.5809 11.6779L32.5834 11.6423C32.604 11.3939 32.5262 11.1536 32.3647 10.9647Z" fill="#6CA8BF"/>
<path d="M32.5834 8.36727L32.581 8.33172C32.5398 7.82016 32.0911 7.43783 31.5782 7.47785L30.4873 7.56594C30.7896 7.74101 31.0047 8.05693 31.0344 8.43256L31.038 8.46811C31.07 8.87436 30.8777 9.2464 30.5651 9.46283L31.7304 9.36893C32.2422 9.3289 32.6246 8.87905 32.5834 8.36727Z" fill="#6CA8BF"/>
</svg>
