<?xml version="1.0" encoding="utf-8"?>
<!-- Generator: Adobe Illustrator 24.0.3, SVG Export Plug-In . SVG Version: 6.00 Build 0)  -->
<svg version="1.1" xmlns="http://www.w3.org/2000/svg" xmlns:xlink="http://www.w3.org/1999/xlink" x="0px" y="0px"
	 viewBox="0 0 512 346" style="enable-background:new 0 0 512 346;" xml:space="preserve">
<style type="text/css">
	.st0{display:none;}
	.st1{display:inline;}
	.st2{fill:#FFFFFF;}
	.st3{fill-rule:evenodd;clip-rule:evenodd;fill:#569C94;}
	.st4{fill-rule:evenodd;clip-rule:evenodd;fill:#005987;}
	.st5{fill:#1E1E1E;}
	.st6{font-family:'Raleway-Bold';}
	.st7{font-size:85.0784px;}
</style>
<g id="Capa_2" class="st0">
	<g class="st1">
		<rect y="-83" class="st2" width="512" height="512"/>
	</g>
</g>
<g id="Capa_1">
	<g>
		<g>
			<path class="st3" d="M234.41,20.82l-0.86,128.85c0.85,16.38-21.45-21.2-41.39,2.94c-16.82,20.36,15.18,45.95,37.13,61.03
				c9.45,6.49,10.28,8.51-5.04,8.51H122.46c-3.54-24.16-0.41-60.77,8.54-71.37c3.76-4.45-27.31-1.12-40.16-1.12
				c-28.49-16.77,31.62-205.47,33.09-122.79c0.15,8.7,4.04,19.46,12.41,19.46h55.9C212.17,32.19,234.66-17.28,234.41,20.82
				L234.41,20.82z M159.76,104.26c0.67-1.1,0.72-3.72-0.46-4.25c-1.86-0.83-6.36-0.88-8.24-0.08c-1.26,0.53-1.8,3.11-1.22,4.34
				c0.74,1.59,3.14,3.17,4.9,3.17C156.59,107.44,158.8,105.84,159.76,104.26L159.76,104.26z M187.96,81.71
				c-3.09,0-5.59,2.5-5.59,5.59c0,3.09,2.5,5.59,5.59,5.59c3.09,0,5.59-2.5,5.59-5.59C193.55,84.22,191.04,81.71,187.96,81.71
				L187.96,81.71z M125.83,81.04c-3.09,0-5.59,2.5-5.59,5.59c0,3.09,2.5,5.59,5.59,5.59c3.09,0,5.59-2.5,5.59-5.59
				C131.42,83.54,128.92,81.04,125.83,81.04z"/>
			<path class="st4" d="M246.17,6.97v143.63c-0.55,10.88,11.61-9.48,25.56-6.99c21.73,3.86,39.13,33.53-19.39,70.23
				c-9.98,5.6-10.67,8.79,1.54,8.68h109.5c-1.59-68.63-5.48-47.99-14.27-74.42h39.33c15.52,0.85,13.21-51.43-2.89-82.13
				c18.62,5.84,31.83,1.46,43.25-14.3l-53.08-39.49c-11.82-9.64-14.4,32.39-31.62,37.79h-44.92c-18.26-1.23-5.9-41.39-23.91-42.99
				H246.17L246.17,6.97z M297.87,81.68c3.09,0,5.59,2.5,5.59,5.59c0,3.09-2.5,5.59-5.59,5.59c-3.09,0-5.59-2.5-5.59-5.59
				C292.28,84.18,294.79,81.68,297.87,81.68L297.87,81.68z M360.34,81.68c3.09,0,5.59,2.5,5.59,5.59c0,3.09-2.5,5.59-5.59,5.59
				c-3.09,0-5.59-2.5-5.59-5.59C354.75,84.18,357.25,81.68,360.34,81.68L360.34,81.68z M315.61,104.62
				c-0.78-1.8,1.13-5.01,3.08-5.01h24.68c1.82,0,4.22,2.58,3.47,4.24c-3.2,7.13-9.36,13.7-16.19,13.88
				C324.54,117.89,318.67,111.67,315.61,104.62z"/>
		</g>
		<text transform="matrix(1 0 0 1 7.998 320.5018)" class="st5 st6 st7">Pet Kennect</text>
	</g>
</g>
</svg>
