<svg width="568" height="532" viewBox="0 0 568 532" fill="none" xmlns="http://www.w3.org/2000/svg">
<path d="M315.294 532C454.842 532 567.968 418.948 567.968 279.492C567.968 140.035 454.842 26.983 315.294 26.983C175.746 26.983 62.6196 140.035 62.6196 279.492C62.6196 418.948 175.746 532 315.294 532Z" fill="#EBF0F3"/>
<path opacity="0.22" d="M479 474.964C508.666 474.964 532.716 471.555 532.716 467.351C532.716 463.146 508.666 459.737 479 459.737C449.333 459.737 425.283 463.146 425.283 467.351C425.283 471.555 449.333 474.964 479 474.964Z" fill="#A6AAC7"/>
<path opacity="0.22" d="M108.408 474.964C138.075 474.964 162.124 471.555 162.124 467.351C162.124 463.146 138.075 459.737 108.408 459.737C78.7411 459.737 54.6914 463.146 54.6914 467.351C54.6914 471.555 78.7411 474.964 108.408 474.964Z" fill="#A6AAC7"/>
<path opacity="0.22" d="M304.615 495.869C351.233 495.869 389.025 490.34 389.025 483.519C389.025 476.699 351.233 471.17 304.615 471.17C257.997 471.17 220.205 476.699 220.205 483.519C220.205 490.34 257.997 495.869 304.615 495.869Z" fill="#A6AAC7"/>
<path d="M483.907 423.347C466.216 425.025 452.4 437.671 446.718 448.64L519.287 446.962C517.221 437.929 499.014 426.444 483.907 423.347Z" fill="#682F35"/>
<path d="M524.323 445.117C524.066 443.791 523.362 442.594 522.328 441.725C521.294 440.856 519.992 440.368 518.642 440.342H447.751C446.151 440.379 444.612 440.962 443.39 441.995C442.168 443.028 441.337 444.449 441.037 446.02L436.388 466.151H529.359L524.323 445.117Z" fill="#FFBC45"/>
<path d="M516.472 445.117C515.955 442.278 514.019 440.342 511.823 440.342H454.362C451.78 440.342 449.585 442.665 448.939 446.02L445.194 466.151H520.475L516.472 445.117Z" fill="#FFCA55"/>
<path d="M471.381 442.923H449.326C448.337 442.876 447.349 443.048 446.433 443.427C445.518 443.806 444.698 444.383 444.032 445.117C448.681 448.73 455.912 451.569 464.692 453.117L471.381 442.923Z" fill="#FFE394"/>
<path d="M517.092 442.923H483.648L476.03 454.408C477.838 454.537 479.774 454.537 481.711 454.537C498.885 454.537 513.735 450.149 520.707 443.955C519.628 443.269 518.372 442.91 517.092 442.923Z" fill="#FFE394"/>
<path d="M184.696 67.1021H230.303C233.159 67.0987 235.987 67.6574 238.626 68.7463C241.266 69.8353 243.665 71.4331 245.686 73.4486C247.708 75.464 249.313 77.8577 250.408 80.4929C251.504 83.1281 252.07 85.9532 252.074 88.8069V107.105C252.068 112.137 250.332 117.014 247.156 120.919C243.98 124.824 239.557 127.519 234.629 128.552L233.621 139.223L222.697 129.003H184.734C181.878 129.007 179.05 128.447 176.41 127.358C173.77 126.268 171.372 124.669 169.351 122.652C167.33 120.634 165.727 118.239 164.633 115.603C163.54 112.966 162.977 110.14 162.977 107.286V88.794C162.983 83.0408 165.274 77.5254 169.346 73.4585C173.418 69.3916 178.939 67.1055 184.696 67.1021Z" fill="#FEC35B"/>
<path d="M194.625 103.943L222.697 107.505C224.105 110.86 226.158 115.131 232.072 113.583C239.484 111.634 233.996 102.563 233.996 102.563C235.029 101.956 240.878 95.9945 234.19 90.949C229.089 87.0777 225.641 92.4587 223.859 96.6784L197.866 93.3749C197.77 93.0085 197.645 92.6504 197.492 92.3039C196.007 88.923 194.328 82.9742 187.51 84.7679C180.086 86.7164 185.574 95.7751 185.574 95.7751C184.541 96.3945 178.704 102.356 185.393 107.466C189.602 110.615 192.676 107.492 194.625 103.943Z" fill="#FFE394"/>
<g style="mix-blend-mode:multiply" opacity="0.2">
<path d="M194.625 103.943L222.697 107.505C224.105 110.86 226.158 115.131 232.072 113.583C239.484 111.634 233.996 102.563 233.996 102.563C235.029 101.956 240.878 95.9945 234.19 90.949C229.089 87.0777 225.641 92.4587 223.859 96.6784L197.866 93.3749C197.77 93.0085 197.645 92.6504 197.492 92.3039C196.007 88.923 194.328 82.9742 187.51 84.7679C180.086 86.7164 185.574 95.7751 185.574 95.7751C184.541 96.3945 178.704 102.356 185.393 107.466C189.602 110.615 192.676 107.492 194.625 103.943Z" fill="#FFE394"/>
</g>
<path opacity="0.2" d="M189.021 89.1295C187.162 89.6715 185.47 89.4779 185.25 88.7037C185.031 87.9294 186.348 86.8584 188.207 86.3164C190.067 85.7744 191.771 85.968 191.991 86.7423C192.21 87.5165 190.893 88.5876 189.021 89.1295Z" fill="#FFE394"/>
<path d="M39.0281 300.035C40.965 285.454 53.3223 275.763 67.113 272.82C82.9051 269.452 95.5208 280.563 103.836 292.551C121.114 317.443 121.346 346.658 120.403 375.718C120.403 377.409 122.986 377.409 122.986 375.718C124.122 342.077 122.741 307.545 98.3099 281.595C93.6259 276.381 87.4908 272.683 80.6905 270.975C73.8903 269.267 66.7346 269.626 60.1402 272.007C47.6279 276.24 38.0855 286.95 36.3422 300.035C36.1486 301.7 38.7698 301.687 38.9893 300.035H39.0281Z" fill="#8C8E38"/>
<path d="M195.026 329.25C201.79 325.492 209.406 323.533 217.145 323.56C218.011 319.459 218.393 315.271 218.281 311.081C215.533 311.01 212.783 311.153 210.056 311.507C203.865 312.484 197.728 313.776 191.668 315.378C189.977 315.778 187.795 315.985 186.865 314.552C185.935 313.12 186.865 311.172 188.066 309.881C191.214 306.643 195.012 304.106 199.209 302.435C204.489 300.098 210.029 298.399 215.712 297.377C214.278 293.44 212.259 289.742 209.72 286.408C199.39 287.157 189.396 291.17 179.376 294.151C177.452 294.732 175.089 295.17 173.655 293.751C171.899 292.009 173.048 289.002 174.598 287.079C178.136 282.666 183.262 279.789 188.531 277.672C190.945 276.705 193.412 275.892 195.878 275.092C194.189 274.294 192.435 273.642 190.635 273.143C183.34 271.169 175.36 272.988 168.929 276.705C164.255 279.414 157.682 286.731 160.11 292.602C150.619 288.576 141.335 287.209 132.838 293.532C128.66 296.647 125.301 300.73 123.051 305.429C128.057 302.055 133.827 299.984 139.837 299.403C142.904 298.98 146.029 299.399 148.876 300.616C149.598 300.889 150.195 301.417 150.555 302.1C151.291 303.816 149.354 305.403 147.675 306.216C140.651 309.559 133.045 311.739 126.395 315.778C124.2 317.099 122.164 318.666 120.326 320.45C120.806 325.634 122.538 330.625 125.375 334.993C127.513 333.162 129.741 331.439 132.051 329.831C138.079 325.374 145.081 322.411 152.479 321.185C153.537 321.043 154.803 321.03 155.423 321.908C155.639 322.304 155.752 322.747 155.752 323.198C155.752 323.649 155.639 324.093 155.423 324.489C154.275 326.816 152.61 328.851 150.555 330.437C145.906 334.476 140.715 337.857 136.222 342.051C135.537 342.684 134.93 343.342 134.22 344.038C134.84 344.451 135.511 344.839 136.105 345.2C139.938 347.173 143.996 348.673 148.192 349.665C148.566 349.226 148.915 348.761 149.302 348.374C153.37 343.935 158.767 340.128 164.797 340.09C166.682 340.09 168.968 340.812 169.278 342.671C169.51 344.064 168.49 345.316 167.509 346.322C165.223 348.697 162.783 350.916 160.601 353.368C163.628 354.49 166.575 355.818 169.42 357.343C170.881 355.961 172.523 354.785 174.301 353.846C175.85 353.033 177.865 352.439 179.259 353.497C179.733 353.919 180.098 354.449 180.323 355.042C180.548 355.635 180.626 356.274 180.551 356.904C180.236 359.186 179.267 361.328 177.761 363.072C179.987 365.062 181.656 367.597 182.604 370.427C188.779 366.023 194.521 361.041 199.752 355.549C197.828 355.02 195.878 354.581 194.16 354.052C192.443 353.523 190.003 352.284 190.816 350.013C191.63 347.742 195.013 347.794 196.924 347.665C199.945 347.494 202.976 347.654 205.963 348.142C208.481 344.79 210.686 341.213 212.548 337.457C213.013 336.528 213.439 335.573 213.839 334.618C210.496 334.367 207.14 334.341 203.793 334.541C200.823 334.696 197.737 334.864 194.974 333.754C194.56 333.639 194.18 333.425 193.868 333.13C193.555 332.836 193.319 332.47 193.179 332.063C192.779 330.799 193.967 329.844 195.026 329.25Z" fill="#ABC138"/>
<path d="M89.2323 380.118C87.8636 346.464 89.9296 313.133 113.573 286.989C118.738 281.285 125.039 276.988 132.838 276.356C141.735 275.646 149.366 281.75 154.88 287.97C166.049 300.655 170.969 318.501 174.882 334.515C175.282 336.154 177.813 335.457 177.464 333.818C173.19 316.359 167.586 298.358 155.513 284.615C145.183 273.001 130.139 270.42 117.576 279.75C105.012 289.08 96.2697 305.261 91.5824 320.114C85.5393 339.328 85.9267 360.117 86.7273 380.08C86.7919 381.77 89.4131 381.77 89.3098 380.08L89.2323 380.118Z" fill="#8C8E38"/>
<path d="M72.6526 304.036C67.2164 293.828 56.1116 292.138 45.7944 291.131C34.9607 290.138 24.4886 293.131 16.5215 300.448C8.83848 307.52 3.90586 317.224 1.50412 327.431C0.128789 332.822 -0.308005 338.409 0.212854 343.948C1.67198 357.704 10.2976 369.434 18.6521 380.415C19.731 373.854 22.9013 367.816 27.6909 363.201C23.1037 360.04 19.3761 355.787 16.8443 350.826C15.553 348.245 14.9203 344.374 17.5158 342.993C18.2299 342.741 18.9873 342.633 19.7434 342.678C20.4996 342.722 21.2393 342.917 21.919 343.251C26.4445 344.877 30.5324 347.527 33.8631 350.994C34.2092 351.457 34.7157 351.774 35.2835 351.884C35.8488 351.834 36.3721 351.565 36.7426 351.136C40.0741 348.181 43.3926 345.213 46.7241 342.271C42.6352 339.166 38.8245 335.712 35.3352 331.947C33.9097 330.579 32.8032 328.913 32.0941 327.069C31.768 326.137 31.7163 325.131 31.9452 324.171C32.1741 323.21 32.6739 322.335 33.3854 321.65C35.8 319.701 39.3897 321.34 41.9077 323.159C45.8723 325.978 49.5564 329.172 52.9092 332.696C57.4508 330.805 61.2691 327.513 63.8075 323.301C57.8697 320.422 52.9051 315.869 49.5261 310.204C48.5448 308.565 47.7313 306.397 48.8547 304.848C49.2733 304.372 49.7932 303.995 50.3762 303.745C50.9593 303.495 51.5909 303.378 52.2249 303.403C58.552 303.158 63.5105 308.746 66.4933 314.333L72.3427 307.042C72.6865 306.68 72.9311 306.236 73.0529 305.752C73.1059 305.152 72.9657 304.55 72.6526 304.036Z" fill="#ABC138"/>
<path d="M143.297 327.095C150.792 325.168 158.656 325.19 166.14 327.16C168.019 323.41 169.445 319.451 170.388 315.365C167.75 314.604 165.056 314.051 162.331 313.714C156.092 313.098 149.824 312.818 143.556 312.875C141.825 312.875 139.682 312.501 139.114 310.862C138.546 309.223 140.005 307.597 141.451 306.642C145.314 304.295 149.632 302.795 154.118 302.242C159.816 301.324 165.602 301.082 171.357 301.519C170.97 297.35 169.951 293.265 168.335 289.402C158.108 287.505 147.468 288.886 137.009 289.26C134.995 289.338 132.606 289.157 131.586 287.428C130.294 285.312 132.18 282.679 134.168 281.208C138.713 277.827 144.408 276.343 150.038 275.621C152.62 275.298 155.203 275.13 157.785 274.962C156.35 273.766 154.816 272.691 153.201 271.749C146.642 267.994 138.455 267.736 131.25 269.723C126.085 271.156 117.834 276.575 118.686 282.86C110.512 276.575 101.9 272.898 92.0602 276.885C87.229 278.837 82.9474 281.938 79.5866 285.918C85.263 283.924 91.3461 283.37 97.2898 284.305C100.406 284.656 103.366 285.852 105.851 287.763C106.49 288.214 106.948 288.877 107.142 289.634C107.413 291.467 105.128 292.525 103.268 292.873C95.6241 294.357 87.7732 294.538 80.258 296.745C77.8042 297.478 75.4395 298.482 73.2078 299.738C72.361 304.875 72.7776 310.141 74.4215 315.081C77.0041 313.791 79.5866 312.694 82.1691 311.701C89.1272 308.903 96.6519 307.802 104.121 308.487C105.179 308.616 106.406 308.926 106.781 309.933C106.877 310.366 106.865 310.817 106.746 311.244C106.627 311.672 106.403 312.064 106.096 312.384C104.396 314.345 102.272 315.893 99.8852 316.914C94.3715 319.65 88.5092 321.611 83.0988 324.514C82.2724 324.953 81.4589 325.443 80.6583 325.934C81.149 326.489 81.6655 327.018 82.1949 327.534C85.4043 330.414 88.9561 332.889 92.7704 334.902C93.2352 334.58 93.6872 334.231 94.1778 333.922C99.2396 330.644 105.412 328.321 111.248 329.805C113.069 330.27 115.122 331.56 114.928 333.431C114.799 334.838 113.495 335.806 112.346 336.541C109.544 338.244 106.626 339.78 103.901 341.6C106.543 343.445 109.05 345.476 111.403 347.677C113.17 346.706 115.059 345.977 117.02 345.509C118.725 345.109 120.894 345.045 121.901 346.426C122.244 346.957 122.452 347.564 122.506 348.194C122.56 348.824 122.459 349.457 122.211 350.039C121.33 352.168 119.85 353.997 117.95 355.304C119.609 357.786 120.584 360.661 120.778 363.64C127.865 360.936 134.679 357.566 141.128 353.575C139.398 352.568 137.603 351.665 136.092 350.71C134.581 349.755 132.515 347.961 133.871 345.961C135.227 343.961 138.494 344.864 140.328 345.226C143.291 345.827 146.18 346.753 148.94 347.987C152.206 345.367 155.23 342.46 157.979 339.303C158.651 338.515 159.27 337.702 159.942 336.877C156.772 335.797 153.532 334.935 150.244 334.296C147.339 333.689 144.305 333.083 141.916 331.302C141.548 331.083 141.239 330.779 141.014 330.415C140.789 330.051 140.656 329.638 140.625 329.211C140.779 328.011 142.161 327.392 143.297 327.095Z" fill="#9DAD2D"/>
<g opacity="0.15">
<path opacity="0.15" d="M158.793 338.49C158.663 337.767 158.508 337.057 158.341 336.348C155.758 335.522 153.046 334.876 150.386 334.309C147.481 333.702 144.447 333.096 142.058 331.315C141.69 331.096 141.381 330.792 141.156 330.428C140.931 330.064 140.798 329.651 140.767 329.224C140.844 328.011 142.226 327.392 143.349 327.095C146.759 326.216 150.261 325.744 153.782 325.689C150.445 320.687 146.3 316.274 141.515 312.63C141.003 312.562 140.517 312.363 140.103 312.054C139.69 311.744 139.362 311.334 139.152 310.862C139.145 310.832 139.145 310.801 139.152 310.771C131.198 304.758 122.366 299.442 115.458 292.28C112.565 289.446 110.246 286.081 108.627 282.369C107.867 280.427 107.346 278.399 107.078 276.33C102.211 274.705 96.9181 274.907 92.1893 276.898C87.3582 278.85 83.0765 281.951 79.7157 285.931C85.3921 283.937 91.4752 283.383 97.4189 284.318C100.488 284.688 103.401 285.878 105.851 287.763C106.49 288.214 106.948 288.877 107.142 289.634C107.413 291.467 105.128 292.525 103.268 292.873C95.6241 294.357 87.7732 294.538 80.258 296.745C77.8042 297.478 75.4395 298.482 73.2078 299.738C72.361 304.875 72.7776 310.141 74.4215 315.081C77.0041 313.791 79.5866 312.694 82.1691 311.701C89.1272 308.903 96.6519 307.802 104.121 308.487C105.179 308.616 106.406 308.926 106.781 309.933C106.877 310.366 106.865 310.817 106.746 311.244C106.627 311.672 106.403 312.064 106.096 312.384C104.396 314.345 102.272 315.893 99.8852 316.914C94.3715 319.65 88.5092 321.611 83.0988 324.514C82.2724 324.953 81.4589 325.444 80.6583 325.934C81.149 326.489 81.6655 327.018 82.1949 327.534C85.4043 330.414 88.9561 332.889 92.7704 334.902C93.2352 334.58 93.6872 334.231 94.1778 333.922C99.2396 330.644 105.412 328.321 111.248 329.805C113.069 330.27 115.122 331.56 114.928 333.431C114.799 334.838 113.495 335.806 112.346 336.541C109.544 338.244 106.626 339.78 103.901 341.6C106.543 343.445 109.05 345.476 111.403 347.677C113.17 346.706 115.059 345.977 117.02 345.509C118.725 345.109 120.829 345.045 121.901 346.426C122.244 346.957 122.452 347.564 122.506 348.194C122.56 348.824 122.459 349.457 122.211 350.039C121.33 352.168 119.85 353.997 117.95 355.304C119.609 357.786 120.584 360.661 120.778 363.64C127.865 360.936 134.679 357.566 141.128 353.575C139.398 352.568 137.603 351.665 136.092 350.71C134.581 349.755 132.515 347.961 133.871 345.961C135.227 343.961 138.494 344.864 140.328 345.226C143.291 345.827 146.18 346.753 148.94 347.987C152.206 345.367 155.231 342.46 157.979 339.303C158.265 339.047 158.537 338.775 158.793 338.49Z" fill="#9DAD2D"/>
</g>
<path d="M77.8178 388.171C72.0587 367.098 66.842 345.69 66.9453 323.714C67.0099 309.713 68.5852 294.448 75.6484 282.086C84.1191 267.246 103.72 266.781 114.696 279.298C125.323 291.441 125.297 311.055 126.769 326.192C126.924 327.857 129.559 327.869 129.352 326.192C127.828 310.526 127.648 291.441 117.356 278.511C107.995 266.768 90.1106 263.542 78.6183 274.02C67.3069 284.344 65.2667 303.094 64.4145 317.391C63.1232 341.69 68.8306 365.601 75.1965 388.867C75.289 389.21 75.5137 389.501 75.8212 389.678C76.1288 389.855 76.4939 389.902 76.8364 389.809C77.1789 389.717 77.4706 389.493 77.6473 389.185C77.8241 388.878 77.8715 388.513 77.779 388.171H77.8178Z" fill="#717723"/>
<path d="M104.017 374.518H102.674L58.4229 374.557L72.0715 463.583L102.739 463.557H104.095L134.749 463.531L148.282 374.479L104.017 374.518Z" fill="#FEC35B"/>
<g opacity="0.23">
<path opacity="0.23" d="M66.6098 428.315L137.384 374.492L104.482 374.518L63.1621 405.927L66.6098 428.315Z" fill="white"/>
<path opacity="0.23" d="M70.5609 454.524L144.808 398.081L146.229 388.713L69.4375 447.104L70.5609 454.524Z" fill="white"/>
<path opacity="0.23" d="M141.761 417.708L81.4336 463.57L102.739 463.557H104.095H114.361L137.474 445.968L141.761 417.708Z" fill="white"/>
</g>
<g opacity="0.24">
<path opacity="0.24" d="M135.15 460.976C133.025 458.476 130.725 456.13 128.267 453.956C120.429 446.975 111.377 441.516 102.674 435.658C95.1334 430.574 87.5666 424.896 83.215 416.895C80.9363 412.407 79.3847 407.585 78.6181 402.61C76.965 393.361 76.6302 383.925 77.6239 374.583H58.397L72.0585 463.621H102.726H104.017H134.685L135.15 460.976Z" fill="#FEC35B"/>
</g>
<path d="M151.6 391.255L55.2592 391.332L52.5088 370.686L154.325 370.608L151.6 391.255Z" fill="#E8B156"/>
<g opacity="0.15">
<path opacity="0.15" d="M210.056 311.507C203.865 312.484 197.727 313.776 191.668 315.378C190.676 315.649 189.641 315.724 188.621 315.598C183.985 325.611 176.638 334.296 172.609 344.58C171.051 348.576 170.022 352.758 169.549 357.02C170.95 355.724 172.512 354.613 174.197 353.717C175.747 352.904 177.761 352.31 179.156 353.368C179.618 353.796 179.971 354.329 180.184 354.922C180.398 355.515 180.466 356.15 180.383 356.775C180.068 359.057 179.099 361.199 177.593 362.943C179.819 364.933 181.488 367.468 182.436 370.298C188.611 365.894 194.353 360.912 199.584 355.42C197.66 354.891 195.71 354.452 193.992 353.923C192.275 353.394 189.835 352.155 190.648 349.884C191.462 347.613 194.845 347.664 196.756 347.535C199.777 347.365 202.808 347.525 205.795 348.013C208.313 344.661 210.518 341.084 212.38 337.328C212.845 336.399 213.271 335.444 213.671 334.489C210.328 334.238 206.972 334.212 203.625 334.412C200.655 334.567 197.569 334.735 194.806 333.625C194.392 333.51 194.012 333.296 193.699 333.001C193.387 332.707 193.15 332.341 193.011 331.934C192.779 330.747 193.954 329.792 195.013 329.212C201.776 325.453 209.393 323.494 217.132 323.521C217.998 319.42 218.38 315.232 218.268 311.042C215.523 310.972 212.776 311.127 210.056 311.507Z" fill="white"/>
</g>
<g opacity="0.15">
<path opacity="0.15" d="M199.209 302.474C204.488 300.136 210.028 298.438 215.711 297.416C214.278 293.479 212.258 289.781 209.72 286.447C204.061 286.971 198.479 288.122 193.075 289.88C193.553 295.47 193.117 301.101 191.784 306.552C194.119 304.953 196.606 303.587 199.209 302.474Z" fill="white"/>
</g>
<g opacity="0.15">
<path opacity="0.15" d="M188.686 272.782C189.305 274.188 189.874 275.621 190.364 277.079C192.185 276.408 194.031 275.788 195.878 275.169C194.189 274.371 192.435 273.719 190.635 273.22C189.994 273.037 189.343 272.891 188.686 272.782Z" fill="white"/>
</g>
<path d="M314.079 186.298C311.652 171.432 311.639 144.527 306.048 128.061C314.725 133.649 346.671 166.206 351.113 198.221L314.079 186.298Z" fill="#FFC37B"/>
<path d="M319.335 187.111C317.489 175.497 317.36 154.334 313.202 141.404C319.58 145.818 343.172 171.484 346.568 196.608L319.335 187.111Z" fill="#E25E54"/>
<path d="M341.829 194.931L346.568 196.583C343.172 171.458 319.58 145.792 313.202 141.379C313.667 142.811 314.067 144.359 314.493 145.96C323.403 155.831 337.426 175.2 341.829 194.931Z" fill="#CE413E"/>
<path d="M265.27 219.733C253.055 224.184 240.142 164.722 225.331 157.431C217.855 153.754 256.038 149.031 287.544 190.479L265.27 219.733Z" fill="#FFC37B"/>
<path d="M267.504 215.5C257.652 219.074 247.102 167.535 235.222 161.703C229.205 158.748 260.079 158.644 285.439 192.002L267.504 215.5Z" fill="#E25E54"/>
<path d="M235.21 161.69C236.025 162.115 236.773 162.659 237.431 163.303C245.669 164.671 265.593 172.452 282.121 196.324L285.427 191.989C260.066 158.631 229.192 158.722 235.21 161.69Z" fill="#CE413E"/>
<path d="M267.078 215.603L267.504 215.487L270.177 211.977L267.078 215.603Z" fill="#CE413E"/>
<path d="M267.388 432.445L280.455 447.607C274.102 454.292 253.855 458.369 240.594 438.703C240.594 438.742 256.348 442.988 267.388 432.445Z" fill="#FF8E55"/>
<path d="M280.558 481.79H288.513C288.513 481.79 310.025 452.808 314.235 434.639C318.444 416.469 271.623 382.299 259.046 392.687C246.469 403.075 271.7 448.691 274.541 455.556C278.647 465.196 280.558 481.79 280.558 481.79Z" fill="#FFA35F"/>
<path d="M320.058 481.79H328.012C328.012 481.79 356.82 433.593 363.819 415.682C370.818 397.771 326.502 383.719 312.285 393.952C298.068 404.185 316.288 449.169 318.121 455.892C320.704 465.428 320.058 481.79 320.058 481.79Z" fill="#FFA35F"/>
<path d="M298.339 453.672C311.155 455.54 324.231 453.229 335.629 447.083C347.026 440.937 356.138 431.283 361.611 419.554C377.106 387.977 378.398 305.481 357.867 276.072C337.335 246.664 262.442 254.664 259.64 264.175C256.838 273.685 234.319 326.45 259.808 420.508C263.695 434.768 276.039 450.214 298.339 453.672Z" fill="#FFA35F"/>
<path d="M299.23 453.35C315.423 456.047 343.805 450.769 358.176 419.231C372.548 387.693 373.839 305.158 354.677 275.75C335.515 246.341 265.838 254.342 263.23 263.852C260.622 273.362 239.665 326.127 263.385 420.186C266.988 434.445 278.48 449.891 299.23 453.35Z" fill="#FFC37B"/>
<path d="M336.69 362.13C365.963 331.521 371.735 346.993 370.882 385.074C376.228 347.458 372.936 297.583 357.892 276.072C337.31 246.664 262.468 254.664 259.666 264.175C256.864 273.685 234.345 326.45 259.834 420.508C261.859 427.785 265.667 434.442 270.913 439.879C276.159 445.316 282.679 449.36 289.882 451.646C257.703 428.535 266.781 375.254 284.975 354.039C298.249 338.632 312.672 347.226 336.69 362.13Z" fill="#FFA35F"/>
<path d="M264.676 342.296C253.894 339.019 242.931 295.583 256.722 276.33C270.513 257.077 286.628 314.178 286.628 314.178C286.628 314.178 282.431 347.703 264.676 342.296Z" fill="#FFB469"/>
<path d="M277.769 313.688C280.295 317.083 282.503 320.703 284.368 324.501C285.38 321.122 286.14 317.671 286.64 314.178C286.64 314.178 270.512 257.077 256.709 276.33C253.222 281.195 251.324 287.608 250.601 294.525C258.065 294.448 269.002 301.88 277.769 313.688Z" fill="#FFA35F"/>
<path d="M337.155 355.923C312.518 347.561 254.514 292.77 249.853 261.336C245.191 229.901 278.88 195.589 285.078 190.982C291.276 186.375 322.525 181.175 330.272 184.349C338.02 187.524 365.821 201.125 378.914 232.495C389.838 274.317 368.842 314.772 337.155 355.923Z" fill="#FFB469"/>
<path d="M336.987 342.774C314.351 335.096 261.061 284.705 256.761 255.851C252.461 226.998 283.412 195.421 289.133 191.176C294.853 186.93 323.519 182.143 330.686 185.085C337.852 188.027 363.354 200.454 375.389 229.346C385.461 267.775 366.169 304.965 336.987 342.774Z" fill="#FFC37B"/>
<path d="M359.3 229.966L307.094 237.837C279.422 259.232 272.23 283.479 275.264 305.507C295.356 328.992 322.305 350.878 337.154 355.923C360.397 325.689 377.932 295.828 381.251 265.594C380.812 253.954 366.763 235.966 359.3 229.966Z" fill="#FFE8CA"/>
<path d="M378.049 254.548C377.171 285.441 356.498 319.882 336.47 350.039C322.124 345.161 294.75 312.681 274.903 290.112C274.233 295.236 274.355 300.433 275.264 305.52C295.357 329.005 322.499 352.129 337.335 357.136C360.578 326.902 377.933 295.803 381.238 265.517C381.367 261.103 379.263 257.542 378.049 254.548Z" fill="#EFCEA8"/>
<path d="M318.56 236.779C315.978 243.554 321.608 262.303 331.873 264.665C345.961 267.904 350.467 236.031 350.467 236.031L318.56 236.779Z" fill="#EFCEA8"/>
<path d="M321.091 232.921C318.444 239.695 323.222 258.794 333.255 262.007C342.578 264.988 352.482 232.792 352.482 232.792L321.091 232.921Z" fill="#68413C"/>
<path d="M333.63 240.095C332.248 239.736 330.796 239.74 329.416 240.107C328.036 240.473 326.774 241.189 325.753 242.186C324.768 243.139 324.077 244.354 323.763 245.688C323.45 247.022 323.526 248.417 323.984 249.709C325.727 254.548 328.839 259.065 333.113 260.342C336.987 261.516 339.427 257.155 340.861 252.458C341.261 251.197 341.39 249.865 341.239 248.55C341.088 247.236 340.66 245.968 339.983 244.831C338.572 242.478 336.289 240.776 333.63 240.095Z" fill="#CE413E"/>
<path d="M331.279 252.509C329.356 252.503 327.442 252.777 325.598 253.322C327.405 256.651 329.936 259.387 333.113 260.342C336.289 261.297 338.614 258.406 340.124 254.651C337.406 253.199 334.362 252.462 331.279 252.509Z" fill="#E25E54"/>
<path d="M355.981 243.889C352.879 245.686 349.212 246.244 345.716 245.451L347.356 241.992L355.981 243.889Z" fill="#68413C"/>
<path d="M313.538 240.418C315.652 243.863 319.03 246.345 322.951 247.335L323.829 243.528L313.538 240.418Z" fill="#68413C"/>
<path d="M344.321 237.114C340.861 242.276 332.79 248.367 322.964 245.334C313.137 242.302 303.414 235.708 302.859 231.488C301.761 223.268 325.353 222.171 333.462 222.752C341.571 223.333 347.123 232.934 344.321 237.114Z" fill="#FFE8CA"/>
<path d="M336.69 226.559C330.479 226.662 307.288 233.966 297.474 230.933C287.66 227.901 285.452 230.933 284.897 226.74C283.799 218.52 330.311 214.3 338.42 214.881C346.529 215.461 349.021 226.34 336.69 226.559Z" fill="#FFC37B"/>
<path d="M343.52 237.115C345.922 242.276 352.83 248.548 359.015 244.289C378.281 230.908 361.74 218.249 343.921 220.068C338.278 220.662 341.57 232.934 343.52 237.115Z" fill="#FFE8CA"/>
<path d="M340.628 223.32C343.043 228.482 363.174 233.256 370.005 230.237C381.032 225.346 364.168 211.113 352.263 213.371C341.067 215.5 338.679 219.139 340.628 223.32Z" fill="#FFC37B"/>
<path d="M346.025 238.482C340.977 239.411 329.665 230.624 331.047 226.069C332.17 222.378 355.387 223.152 357.027 225.746C358.667 228.34 350.713 237.618 346.025 238.482Z" fill="#68413C"/>
<path d="M344.734 228.507C340.154 228.536 335.579 228.216 331.047 227.552C331.925 232.301 341.532 239.321 346.077 238.482C349.951 237.773 355.904 231.462 357.079 227.759C352.984 228.272 348.861 228.522 344.734 228.507Z" fill="#4F2A28"/>
<path d="M308.049 218.081L313.641 216.79C313.641 216.79 312.259 208.97 309.767 210.338C307.275 211.706 308.049 218.081 308.049 218.081Z" fill="#68413C"/>
<path d="M341.17 214.61L346.581 214.842C346.581 214.842 346.787 205.964 343.998 207.448C341.209 208.932 341.17 214.61 341.17 214.61Z" fill="#68413C"/>
<path d="M296.235 313.314C292.361 323.637 280.985 343.264 271.43 342.451C261.874 341.638 257.652 337.109 262.559 325.211C267.465 313.314 293.898 286.718 299.037 289.312C304.176 291.906 296.235 313.314 296.235 313.314Z" fill="#FFC37B"/>
<path d="M299.037 289.312C298.356 289.047 297.6 289.047 296.919 289.312C295.537 292.796 294.337 295.403 294.337 295.403C289.546 305.287 276.414 323.792 266.962 322.153C266.071 321.985 265.244 321.792 264.457 321.572C263.756 322.722 263.139 323.921 262.61 325.16C257.703 337.057 261.913 341.599 271.481 342.4C281.049 343.2 292.425 323.547 296.286 313.262C296.235 313.314 304.176 291.906 299.037 289.312Z" fill="#FFB469"/>
<path d="M308.76 320.424C302.071 324.05 295.421 318.914 296.131 313.714C296.842 308.513 297.797 293.725 302.446 293.39C311.329 292.744 322.292 313.081 308.76 320.424Z" fill="#FFC37B"/>
<path d="M285.788 474.177C295.215 461.608 309.238 438.871 307.417 431.129C305.596 423.386 266.794 403.617 266.097 412.714C265.399 421.812 285.788 474.177 285.788 474.177Z" fill="#FFC37B"/>
<path d="M298.933 452.291C298.933 452.291 311.097 465.75 329.601 451.801L298.933 452.291Z" fill="#FFA35F"/>
<path d="M385.68 305.132C384.389 315.946 381.341 329.56 376.008 333.431C368.493 338.864 358.305 334.051 360.203 321.456C362.102 308.862 376.99 279.595 382.581 281.118C388.172 282.64 385.68 305.132 385.68 305.132Z" fill="#FFC37B"/>
<path d="M382.581 281.118H382.245C378.294 281.402 377.558 284.692 376.822 288.383C374.149 301.674 372.729 314.939 368.623 314.114C366.686 313.726 365.407 310.939 364.891 306.732C362.787 311.449 361.224 316.389 360.229 321.456C358.344 334.051 368.584 342.103 376.112 336.657C381.445 332.786 384.466 316.011 385.719 305.132C385.68 305.132 388.224 282.602 382.581 281.118Z" fill="#FFB469"/>
<path d="M391.297 307.765C385.125 311.92 377.92 307.3 377.971 302.061C378.023 296.822 377.145 281.944 381.703 281.234C390.419 279.892 403.81 299.377 391.297 307.765Z" fill="#FFC37B"/>
<path d="M279.939 464.938C280.658 455.377 280.498 445.77 279.461 436.239L274.916 447.917L279.939 464.938Z" fill="#FFA35F"/>
<path d="M276.543 455.517C277.254 445.956 277.09 436.35 276.052 426.819L271.507 438.497L276.543 455.517Z" fill="#FFA35F"/>
<path d="M271.83 441.594C272.966 424.728 272.643 413.863 272.643 413.863L266.807 424.547L271.83 441.594Z" fill="#FFA35F"/>
<path d="M267.168 424.548C270.577 407.991 274.8 385.5 274.8 385.5L264.47 406.998L267.168 424.548Z" fill="#FFA35F"/>
<path d="M252.306 379.422L254.036 415.747L259.872 405.153L252.306 379.422Z" fill="#FFA35F"/>
<path d="M250.278 359.433L249.439 398.455L254.888 385.861L250.278 359.433Z" fill="#FFA35F"/>
<path d="M249.168 338.141L246.03 377.034L252.215 364.788L249.168 338.141Z" fill="#FFA35F"/>
<g style="mix-blend-mode:overlay" opacity="0.5">
<path d="M305.906 205.99C303.324 209.512 297.655 210.313 299.385 206.093C301.116 201.873 309.715 199.809 311.433 201.46C313.15 203.112 308.656 202.222 305.906 205.99Z" fill="#FFE8CA"/>
</g>
<g style="mix-blend-mode:overlay" opacity="0.5">
<path d="M347.149 204.88C349.331 207.203 353.205 206.751 352.495 204.299C351.656 201.396 342.565 198.879 339.582 200.596C336.044 202.596 344.037 201.564 347.149 204.88Z" fill="#FFE8CA"/>
</g>
<path d="M342.578 236.147C339.014 235.347 335.928 232.753 336.896 231.127C337.865 229.501 343.818 229.591 345.755 231.062C347.691 232.534 342.578 236.147 342.578 236.147Z" fill="#351817"/>
<path d="M353.696 225.823C353.696 225.049 351.113 224.417 348.053 224.417C344.992 224.417 342.423 225.049 342.423 225.823C342.423 226.598 345.005 227.217 348.053 227.217C351.1 227.217 353.696 226.585 353.696 225.823Z" fill="#9B6D6A"/>
<path d="M320.058 481.79H336.987C336.987 481.79 333.849 475.971 330.388 475.003C326.928 474.035 320.058 481.79 320.058 481.79Z" fill="#FFB469"/>
<path d="M280.894 481.79H297.848C297.848 481.79 295.653 476.358 292.193 475.338C288.732 474.319 280.894 481.79 280.894 481.79Z" fill="#FFB469"/>
<path d="M450.256 0.000542231H395.558C392.117 0.00223569 388.709 0.681572 385.53 1.99974C382.351 3.31791 379.463 5.24908 377.032 7.68292C374.6 10.1168 372.672 13.0056 371.357 16.1843C370.043 19.3631 369.368 22.7695 369.372 26.2089V47.6427C369.403 53.6545 371.513 59.4706 375.344 64.1058C379.175 68.741 384.492 71.9103 390.393 73.0768L391.62 85.7487L404.765 73.5543H450.385C457.332 73.5474 463.991 70.7841 468.899 65.8719C473.807 60.9597 476.563 54.3006 476.559 47.3588V25.9508C476.537 22.5209 475.839 19.129 474.506 15.9686C473.172 12.8082 471.228 9.94128 468.786 7.53156C466.343 5.12184 463.45 3.21649 460.271 1.92432C457.091 0.632142 453.688 -0.0215584 450.256 0.000542231Z" fill="#474668"/>
<path d="M421.796 59.0241C434.362 59.0241 444.548 48.8443 444.548 36.2869C444.548 23.7296 434.362 13.5498 421.796 13.5498C409.231 13.5498 399.044 23.7296 399.044 36.2869C399.044 48.8443 409.231 59.0241 421.796 59.0241Z" fill="#FF4141"/>
<path d="M433.689 16.8792C436.463 21.2143 437.683 26.3615 437.151 31.4794C436.618 36.5974 434.364 41.3835 430.757 45.0555C427.15 48.7275 422.404 51.0683 417.293 51.6953C412.182 52.3223 407.01 51.1984 402.622 48.5073C404.464 51.3873 406.933 53.815 409.844 55.6099C412.756 57.4047 416.034 58.5204 419.437 58.874C422.839 59.2276 426.277 58.81 429.496 57.6522C432.714 56.4944 435.63 54.6263 438.027 52.1868C440.423 49.7473 442.238 46.7992 443.337 43.5619C444.435 40.3246 444.789 36.8813 444.373 33.4884C443.956 30.0954 442.779 26.84 440.929 23.9644C439.08 21.0888 436.605 18.667 433.689 16.8792Z" fill="#FF3636"/>
<path d="M402.131 38.713C402.123 34.3004 403.499 29.9964 406.066 26.4057C408.632 22.815 412.26 20.1182 416.439 18.6943C420.618 17.2703 425.139 17.1908 429.365 18.4669C433.592 19.743 437.312 22.3106 440.004 25.8088C438.566 23.2947 436.626 21.1031 434.305 19.3701C431.984 17.6371 429.33 16.3999 426.51 15.7354C423.69 15.0708 420.763 14.9932 417.912 15.5072C415.06 16.0213 412.345 17.116 409.935 18.7235C407.525 20.3309 405.472 22.4166 403.903 24.8509C402.334 27.2852 401.282 30.0161 400.814 32.8737C400.346 35.7313 400.472 38.6545 401.183 41.4617C401.893 44.2688 403.174 46.8998 404.946 49.1911C403.101 46.0068 402.13 42.3924 402.131 38.713Z" fill="#FF6363"/>
<path d="M435.123 33.6416C435.123 33.6416 435.123 33.6416 435.123 33.5771C435.161 32.5966 435.002 31.6185 434.657 30.7C434.311 29.7815 433.786 28.9412 433.111 28.2284C432.436 27.5156 431.626 26.9447 430.727 26.5492C429.829 26.1536 428.86 25.9414 427.879 25.9249C426.467 25.9304 425.096 26.405 423.984 27.2741C422.871 28.1431 422.079 29.3572 421.732 30.7253C421.386 29.3572 420.594 28.1431 419.481 27.2741C418.368 26.405 416.998 25.9304 415.586 25.9249C414.612 25.9499 413.653 26.1675 412.763 26.5652C411.874 26.9629 411.072 27.5328 410.405 28.242C409.737 28.9511 409.217 29.7854 408.874 30.6967C408.531 31.6081 408.372 32.5783 408.406 33.5513V33.6158C408.406 34.4804 408.406 43.3326 421.784 50.5461C435.187 43.3585 435.2 34.5062 435.123 33.6416Z" fill="white"/>
<path d="M492.868 169.045H438.17C434.728 169.047 431.32 169.726 428.142 171.044C424.963 172.362 422.075 174.294 419.643 176.727C417.211 179.161 415.283 182.05 413.969 185.229C412.654 188.408 411.98 191.814 411.983 195.253V216.648C412.015 222.66 414.125 228.476 417.956 233.111C421.787 237.747 427.103 240.916 433.005 242.083L434.231 254.754L447.376 242.599H492.997C499.943 242.592 506.602 239.829 511.51 234.916C516.419 230.004 519.174 223.345 519.17 216.403V194.995C519.149 191.565 518.451 188.173 517.117 185.013C515.783 181.853 513.84 178.986 511.397 176.576C508.955 174.166 506.061 172.261 502.882 170.969C499.703 169.677 496.3 169.023 492.868 169.045Z" fill="#474668"/>
<path d="M489.253 199.396C488.374 196.348 486.499 193.683 483.928 191.825C481.356 189.966 478.236 189.022 475.065 189.142C471.894 189.263 468.855 190.441 466.432 192.488C464.009 194.536 462.342 197.336 461.697 200.441L439.306 206.725L437.951 211.267L438.919 214.752L445.375 218.391L447.958 215.577L451.664 216.623L455.086 212.377L460.251 214.223L465.132 212.842C467.3 215.156 470.182 216.679 473.318 217.166C476.453 217.653 479.661 217.077 482.431 215.53C485.2 213.983 487.372 211.553 488.599 208.629C489.826 205.705 490.038 202.454 489.201 199.396H489.253ZM476.159 203.073C475.952 202.356 475.963 201.594 476.189 200.884C476.416 200.173 476.849 199.545 477.433 199.08C478.017 198.616 478.726 198.335 479.47 198.273C480.215 198.212 480.96 198.372 481.613 198.735C482.265 199.097 482.796 199.645 483.137 200.309C483.477 200.972 483.613 201.722 483.527 202.464C483.441 203.205 483.136 203.904 482.652 204.472C482.168 205.04 481.526 205.451 480.808 205.654C479.849 205.925 478.822 205.806 477.951 205.322C477.08 204.839 476.435 204.03 476.159 203.073Z" fill="#FCD577"/>
<path d="M475.565 203.241C475.329 202.408 475.346 201.524 475.613 200.701C475.88 199.878 476.385 199.152 477.065 198.616C477.745 198.08 478.568 197.757 479.432 197.689C480.295 197.621 481.159 197.81 481.915 198.233C482.671 198.655 483.284 199.293 483.677 200.064C484.07 200.835 484.226 201.705 484.124 202.565C484.022 203.424 483.667 204.234 483.104 204.892C482.541 205.55 481.796 206.026 480.962 206.261C479.846 206.571 478.652 206.428 477.641 205.862C476.63 205.297 475.884 204.354 475.565 203.241ZM482.835 201.202C482.67 200.598 482.33 200.055 481.857 199.644C481.384 199.233 480.799 198.972 480.177 198.894C479.555 198.815 478.923 198.924 478.363 199.205C477.803 199.486 477.338 199.927 477.029 200.472C476.72 201.017 476.58 201.642 476.627 202.266C476.674 202.891 476.905 203.488 477.292 203.981C477.679 204.474 478.204 204.841 478.8 205.036C479.396 205.23 480.036 205.243 480.64 205.074C481.043 204.969 481.421 204.785 481.753 204.533C482.085 204.282 482.364 203.967 482.574 203.607C482.784 203.247 482.921 202.85 482.977 202.437C483.033 202.024 483.006 201.605 482.899 201.202H482.835Z" fill="#EAC36E"/>
<path d="M470.409 198.687L468.656 199.179L471.799 210.36L473.551 209.868L470.409 198.687Z" fill="#EAC36E"/>
<path d="M462.185 204.495L437.944 211.3L438.377 212.84L462.618 206.035L462.185 204.495Z" fill="#EAC36E"/>
</svg>
