<?xml version="1.0" encoding="utf-8"?>
<!-- Generator: Adobe Illustrator 24.0.3, SVG Export Plug-In . SVG Version: 6.00 Build 0)  -->
<svg version="1.1" xmlns="http://www.w3.org/2000/svg" xmlns:xlink="http://www.w3.org/1999/xlink" x="0px" y="0px"
	 viewBox="0 0 488.73 500" style="enable-background:new 0 0 488.73 500;" xml:space="preserve">
<style type="text/css">
	.st0{fill:#EBF0F3;}
	.st1{opacity:0.22;fill:#A6AAC7;}
	.st2{fill:#FFC37B;}
	.st3{fill:#E25E54;}
	.st4{fill:#CE413E;}
	.st5{fill:#FF8E55;}
	.st6{fill:#FFA35F;}
	.st7{fill:#FFB469;}
	.st8{fill:#FFE8CA;}
	.st9{fill:#EFCEA8;}
	.st10{fill:#68413C;}
	.st11{fill:#4F2A28;}
	.st12{opacity:0.5;fill:#FFE8CA;}
	.st13{fill:#351817;}
	.st14{fill:#9B6D6A;}
	.st15{fill:#FFFFFF;}
	.st16{fill:#4E4E7C;}
	.st17{fill:#FEC35B;}
	.st18{fill:#FCA596;}
	.st19{fill:#8B77E8;}
	.st20{fill:#6157AA;}
	.st21{fill:#172328;}
	.st22{fill:#23353F;}
	.st23{fill:#A8DCE7;}
	.st24{opacity:0.25;}
	.st25{fill:#91C7CE;}
	.st26{fill:#DBA349;}
	.st27{opacity:0.18;}
	.st28{fill:#895743;}
	.st29{opacity:0.12;}
	.st30{fill:#BC665B;}
	.st31{opacity:0.12;fill:#FCA596;}
	.st32{fill:#474668;}
	.st33{fill:#363651;}
	.st34{opacity:0.17;}
	.st35{opacity:0.34;}
	.st36{fill:#8C8E38;}
	.st37{fill:#ABC138;}
	.st38{fill:#9DAD2D;}
	.st39{opacity:0.15;}
	.st40{fill:#717723;}
	.st41{opacity:0.23;}
	.st42{opacity:0.24;}
	.st43{fill:#E8B156;}
</style>
<g id="BACKGROUND">
	<circle class="st0" cx="271.12" cy="282.39" r="217.61"/>
	<ellipse class="st1" cx="83.49" cy="453.64" rx="41.64" ry="5.93"/>
	<ellipse class="st1" cx="422.76" cy="450.94" rx="41.64" ry="5.93"/>
	<ellipse class="st1" cx="249.31" cy="460.87" rx="124.04" ry="11.18"/>
</g>
<g id="PET">
	<g>
		<path class="st2" d="M412.88,255.02c1.59-9.71,1.59-27.28,5.24-38.03c-5.66,3.65-26.5,24.9-29.4,45.81L412.88,255.02z"/>
		<path class="st3" d="M409.45,255.53c1.2-7.62,1.28-21.4,4-29.84c-4.17,2.88-19.56,19.64-21.77,36.04L409.45,255.53z"/>
		<path class="st4" d="M394.77,260.65l-3.09,1.08c2.21-16.4,17.6-33.16,21.77-36.04c-0.3,0.94-0.56,1.94-0.81,2.99
			C406.79,235.12,397.64,247.77,394.77,260.65z"/>
		<path class="st2" d="M444.72,276.84c7.98,2.9,16.41-35.91,26.05-40.65c4.88-2.4-20.03-5.48-40.59,21.58L444.72,276.84z"/>
		<path class="st3" d="M443.26,274.07c6.42,2.34,13.31-31.31,21.07-35.12c3.93-1.93-16.22-1.99-32.76,19.78L443.26,274.07z"/>
		<g>
			<path class="st4" d="M464.33,238.95c-0.49,0.24-0.97,0.6-1.45,1.05c-5.37,0.89-18.37,5.97-29.15,21.56l-2.16-2.83
				C448.11,236.96,468.26,237.02,464.33,238.95z"/>
			<path class="st4" d="M443.54,274.15c-0.09-0.02-0.18-0.04-0.27-0.08l-1.75-2.29L443.54,274.15z"/>
		</g>
		<path class="st5" d="M443.34,415.71l-8.52,9.9c4.14,4.36,17.36,7.02,26-5.81C460.82,419.8,450.54,422.6,443.34,415.71z"/>
		<path class="st6" d="M434.74,447.93h-5.19c0,0-14.04-18.92-16.78-30.78c-2.75-11.86,27.77-34.17,36-27.39
			c8.24,6.78-8.25,36.57-10.14,41.05C435.99,437.1,434.74,447.93,434.74,447.93z"/>
		<path class="st6" d="M408.98,447.93h-5.19c0,0-18.8-31.46-23.37-43.15c-4.57-11.69,24.35-20.87,33.63-14.19
			c9.28,6.68-2.62,36.04-3.81,40.46C408.55,437.25,408.98,447.93,408.98,447.93z"/>
		<path class="st6" d="M423.15,429.57c-11.34,1.76-31.24-1.66-41.3-22.27c-10.07-20.61-10.98-74.47,2.45-93.68
			c13.42-19.2,62.26-13.98,64.09-7.76c1.83,6.21,16.52,40.65-0.11,102.06C445.75,417.23,437.69,427.32,423.15,429.57z"/>
		<path class="st2" d="M422.56,429.36c-10.56,1.76-29.08-1.66-38.45-22.27c-9.37-20.61-10.22-74.47,2.28-93.68
			c12.5-19.2,57.96-13.98,59.66-7.76c1.7,6.21,15.38,40.65-0.1,102.06C443.6,417.02,436.1,427.1,422.56,429.36z"/>
		<path class="st6" d="M398.13,369.81c-19.1-19.98-22.87-9.88-22.32,14.98c-3.49-24.55-1.34-57.12,8.48-71.16
			c13.42-19.2,62.26-13.98,64.09-7.76c1.83,6.21,16.52,40.65-0.11,102.06c-2.18,8.05-8.52,16.68-19.6,20.32
			c21-15.09,15.07-49.88,3.2-63.73C423.25,354.47,413.79,360.08,398.13,369.81z"/>
		<path class="st7" d="M445.12,356.86c7.04-2.14,14.19-30.5,5.19-43.06c-9-12.57-19.53,24.71-19.53,24.71
			S433.52,360.39,445.12,356.86z"/>
		<path class="st6" d="M436.57,338.19c-1.74,2.34-3.18,4.73-4.31,7.06c-1.09-3.66-1.48-6.74-1.48-6.74s10.53-37.28,19.53-24.71
			c2.28,3.18,3.52,7.36,3.99,11.88C449.42,325.63,442.28,330.47,436.57,338.19z"/>
		<path class="st7" d="M397.82,365.76c16.07-5.46,53.9-41.23,56.95-61.75c3.05-20.52-18.92-42.92-22.99-45.94
			c-4.07-3.01-24.41-6.4-29.49-4.33c-5.09,2.07-23.19,10.92-31.73,31.44C363.45,312.48,377.14,338.9,397.82,365.76z"/>
		<path class="st2" d="M397.9,357.18c14.77-5.02,49.54-37.89,52.35-56.76c2.8-18.86-17.39-39.45-21.13-42.22
			c-3.74-2.77-22.44-5.88-27.11-3.98c-4.67,1.9-21.31,10.04-29.17,28.9C366.3,308.21,378.89,332.49,397.9,357.18z"/>
		<path class="st8" d="M383.38,283.52l34.06,5.14c18.06,13.97,22.78,29.79,20.77,44.17c-13.12,15.33-30.7,29.63-40.38,32.91
			c-15.19-19.73-26.6-39.23-28.77-59.01C369.33,299.19,378.51,287.44,383.38,283.52z"/>
		<path class="st9" d="M371.14,299.57c0.58,20.17,14.06,42.66,27.13,62.33c9.36-3.18,27.22-24.38,40.17-39.12
			c0.5,3.88,0.29,6.32-0.24,10.06c-13.12,15.33-30.82,30.43-40.5,33.72c-15.19-19.73-26.48-40.04-28.65-59.82
			C368.98,303.85,370.35,301.53,371.14,299.57z"/>
		<path class="st9" d="M409.95,287.97c1.73,4.42-1.98,16.67-8.68,18.21c-9.19,2.11-12.14-18.69-12.14-18.69L409.95,287.97z"/>
		<path class="st10" d="M408.3,285.46c1.73,4.42-1.39,16.89-7.94,18.99c-6.08,1.95-12.5-19.07-12.5-19.07L408.3,285.46z"/>
		<path class="st4" d="M400.12,290.14c1.85-0.48,3.83,0.05,5.15,1.36c1.32,1.32,1.76,3.21,1.15,4.91c-1.14,3.16-3.17,6.11-5.95,6.94
			c-2.52,0.76-4.12-2.08-5.09-5.15c-0.53-1.67-0.32-3.46,0.57-4.98C396.83,291.71,398.34,290.6,400.12,290.14z"/>
		<path class="st3" d="M401.66,298.24c1.33,0,2.58,0.19,3.71,0.53c-1.18,2.17-2.83,3.96-4.9,4.59c-2.12,0.64-3.59-1.27-4.58-3.72
			C397.42,298.77,399.44,298.24,401.66,298.24z"/>
		<path class="st10" d="M385.53,292.58c0,0,3.1,1.96,6.7,1.02l-1.07-2.26L385.53,292.58z"/>
		<path class="st10" d="M413.23,290.35c0,0-1.75,3.33-6.14,4.52l-0.57-2.49L413.23,290.35z"/>
		<path class="st8" d="M393.15,288.19c2.26,3.36,7.53,7.34,13.93,5.37c6.41-1.98,12.76-6.29,13.12-9.04
			c0.71-5.37-14.68-6.09-19.97-5.71C394.94,279.19,391.31,285.46,393.15,288.19z"/>
		<path class="st2" d="M398.13,281.3c4.05,0.07,19.18,4.84,25.59,2.86c6.41-1.98,7.84,0.01,8.2-2.74
			c0.71-5.37-29.63-8.11-34.92-7.74C391.71,274.05,390.08,281.16,398.13,281.3z"/>
		<path class="st8" d="M393.67,288.19c-1.57,3.36-6.08,7.47-10.08,4.68c-12.57-8.74-1.78-17,9.85-15.81
			C397.11,277.44,394.94,285.46,393.67,288.19z"/>
		<path class="st2" d="M395.55,279.18c-1.57,3.36-14.71,6.49-19.16,4.52c-7.2-3.19,3.81-12.49,11.58-11.01
			C395.27,274.08,396.82,276.45,395.55,279.18z"/>
		<path class="st10" d="M392.03,289.09c3.29,0.61,10.67-5.13,9.77-8.1c-0.73-2.41-15.88-1.9-16.95-0.21
			C383.78,282.47,388.98,288.52,392.03,289.09z"/>
		<path class="st11" d="M392.9,282.57c3.37,0,6.47-0.23,8.92-0.62c-0.57,3.09-6.84,7.68-9.8,7.13c-2.49-0.46-6.41-4.59-7.18-7
			C387.14,282.39,389.92,282.57,392.9,282.57z"/>
		<path class="st10" d="M416.81,275.74l-3.64-0.83c0,0,0.9-5.11,2.53-4.24C417.32,271.53,416.81,275.74,416.81,275.74z"/>
		<path class="st10" d="M395.2,273.5l-3.53,0.15c0,0-0.13-5.79,1.67-4.83C395.14,269.79,395.2,273.5,395.2,273.5z"/>
		<path class="st2" d="M424.52,337.94c2.52,6.71,9.94,19.55,16.18,19.02c6.24-0.53,8.99-3.49,5.78-11.26
			c-3.2-7.77-20.44-25.13-23.8-23.44C419.33,323.96,424.52,337.94,424.52,337.94z"/>
		<path class="st7" d="M422.69,322.27c0.33-0.17,0.8-0.14,1.38,0.04c0.91,2.28,1.72,3.98,1.72,3.98
			c3.12,6.45,11.69,18.56,17.86,17.46c0.58-0.1,1.12-0.23,1.63-0.38c0.5,0.84,0.91,1.63,1.21,2.34c3.2,7.77,0.46,10.73-5.78,11.26
			c-6.24,0.53-13.66-12.31-16.18-19.02C424.52,337.94,419.33,323.96,422.69,322.27z"/>
		<path class="st2" d="M418.88,339.21c4.36,2.36,8.7-0.99,8.24-4.38c-0.46-3.39-1.09-13.05-4.12-13.27
			C417.2,321.14,410.04,334.42,418.88,339.21z"/>
		<path class="st2" d="M431.33,442.96c-6.15-8.21-15.3-23.05-14.11-28.11c1.19-5.05,26.51-17.96,26.99-12.02
			C444.7,408.78,431.33,442.96,431.33,442.96z"/>
		<path class="st6" d="M422.76,428.67c0,0-7.94,8.79-20.01-0.32L422.76,428.67z"/>
		<path class="st2" d="M366.16,332.6c0.82,7.06,2.83,15.94,6.31,18.47c4.9,3.55,11.55,0.41,10.32-7.82
			c-1.23-8.22-10.92-27.33-14.6-26.34C364.5,317.91,366.16,332.6,366.16,332.6z"/>
		<path class="st7" d="M368.18,316.92c0.07-0.02,0.15-0.02,0.22-0.02c2.57,0.19,3.05,2.33,3.54,4.74c1.75,8.67,2.67,17.34,5.35,16.8
			c1.26-0.25,2.09-2.07,2.44-4.82c1.53,3.64,2.68,7.14,3.06,9.63c1.23,8.22-5.45,13.48-10.35,9.92c-3.48-2.52-5.45-13.52-6.27-20.57
			C366.16,332.6,364.5,317.91,368.18,316.92z"/>
		<path class="st2" d="M362.49,334.32c4.03,2.71,8.74-0.3,8.7-3.73c-0.03-3.42,0.54-13.13-2.44-13.59
			C363.07,316.12,354.33,328.84,362.49,334.32z"/>
		<path class="st6" d="M435.15,436.93c-0.74-11.01,0.32-18.74,0.32-18.74l2.96,7.62L435.15,436.93z"/>
		<path class="st6" d="M437.37,430.79c-0.74-11.01,0.32-18.74,0.32-18.74l2.96,7.62L437.37,430.79z"/>
		<path class="st6" d="M440.44,421.69c-0.74-11.01-0.53-18.1-0.53-18.1l3.81,6.99L440.44,421.69z"/>
		<path class="st6" d="M443.48,410.57c-2.22-10.81-4.98-25.5-4.98-25.5l6.73,14.04L443.48,410.57z"/>
		<polygon class="st6" points="453.18,381.1 452.05,404.82 448.24,397.9 		"/>
		<polygon class="st6" points="454.5,368.05 455.05,393.52 451.5,385.3 		"/>
		<polygon class="st6" points="455.22,354.15 457.27,379.54 453.24,371.54 		"/>
		<path class="st12" d="M418.21,267.87c1.68,2.3,5.38,2.82,4.25,0.07c-1.13-2.75-6.74-4.1-7.86-3.03
			C413.49,265.99,416.41,265.41,418.21,267.87z"/>
		<path class="st12" d="M391.3,267.14c-1.42,1.52-3.95,1.22-3.49-0.38c0.55-1.89,6.48-3.53,8.43-2.41
			C398.55,265.67,393.33,264.98,391.3,267.14z"/>
		<path class="st13" d="M394.28,287.55c2.33-0.53,4.34-2.22,3.71-3.28c-0.64-1.06-4.51-1-5.78-0.04
			C390.94,285.17,394.28,287.55,394.28,287.55z"/>
		<path class="st14" d="M387.03,280.81c0-0.5,1.65-0.91,3.68-0.91c2.03,0,3.68,0.41,3.68,0.91c0,0.5-1.65,0.91-3.68,0.91
			C388.68,281.72,387.03,281.31,387.03,280.81z"/>
		<path class="st7" d="M408.98,447.93h-11.06c0,0,2.05-3.8,4.31-4.43C404.48,442.86,408.98,447.93,408.98,447.93z"/>
		<path class="st7" d="M434.53,447.93h-11.06c0,0,1.43-3.55,3.69-4.18C429.41,443.11,434.53,447.93,434.53,447.93z"/>
	</g>
</g>
<g id="OBJECTS">
	<g>
		<path class="st15" d="M220.53,334h11.91l-25.48,118.38c-0.21,0.86-1.02,1.4-1.86,1.23l-0.4-0.08c-0.83-0.16-1.4-0.97-1.3-1.85
			L220.53,334z"/>
		<path class="st15" d="M292.28,334h-11.91l25.48,118.38c0.21,0.86,1.02,1.4,1.86,1.23l0.4-0.08c0.83-0.16,1.4-0.97,1.3-1.85
			L292.28,334z"/>
	</g>
	<g>
		<path class="st16" d="M328.34,337.95l21.29,2.32l1.01,32.7c0,0-16.75,1.67-12.48-21.33c-3.83-1.62-12.58-5.1-12.58-5.1
			L328.34,337.95z"/>
		<path class="st17" d="M350.24,374.86L350.24,374.86c-0.96,0-1.75-0.78-1.75-1.74l-0.1-32.69c0-0.96,0.78-1.75,1.74-1.75h0
			c0.96,0,1.75,0.78,1.75,1.74l0.1,32.69C351.98,374.07,351.2,374.86,350.24,374.86z"/>
	</g>
	<path class="st16" d="M300.84,343.49h-88.88c-5.29,0-9.58-4.29-9.58-9.58v-4.84c0-5.29,4.29-9.58,9.58-9.58h88.88
		c5.29,0,9.58,4.29,9.58,9.58v4.84C310.43,339.2,306.14,343.49,300.84,343.49z"/>
	<polyline class="st17" points="230.95,303.17 220.57,324.57 294.89,330.08 289.02,303.01 	"/>
	<g>
		<path class="st16" d="M290.96,259.52c7.88-4.33,10.3-14,8.25-22.3c-1.41-5.72-5.09-10.72-6.15-16.51
			c-0.72-3.93-0.19-11.02,0.04-15.01c0.28-5.02,0.19-10.23-0.66-15.2c-1.76-10.31-8.57-19.59-18.51-23.41
			c-3.64-1.4-7.58-1.95-11.48-1.76c-4.17,0.2-9.41,0.69-13.26,2.39c-1.88,0.83-3.57,2.3-4.18,4.25c-6.54-0.21-9.7,6.1-11.69,11.34
			c-2.75,7.21-3.27,15.12-2.67,22.76c0.38,4.89,1.19,13.02-0.53,17.62c-0.83,2.22-2.21,4.18-3.37,6.24
			c-3.04,5.39-4.64,11.8-3.35,17.86c1.29,6.06,5.84,11.58,11.87,13.01"/>
	</g>
	<path class="st17" d="M295.75,273.98h-68.76v-15.55c0-9.57,7.75-17.32,17.32-17.32h34.12c9.57,0,17.32,7.75,17.32,17.32V273.98z"/>
	<path class="st18" d="M263.44,247.88h-2.79c-2.9,0-5.25-2.35-5.25-5.25v-14.01h13.28v14.01
		C268.69,245.53,266.34,247.88,263.44,247.88z"/>
	<g>
		<path class="st19" d="M198.8,301.45h-21.22v-64.91c0-1.42,1.15-2.56,2.56-2.56h16.09c1.42,0,2.56,1.15,2.56,2.56V301.45z"/>
		<path class="st17" d="M192.53,246.2c0-2.39-1.94-4.33-4.33-4.33c-2.39,0-4.33,1.94-4.33,4.33c0,2.39,1.94,4.33,4.33,4.33
			C190.59,250.53,192.53,248.59,192.53,246.2z"/>
		<polygon class="st20" points="177.58,275.19 198.8,271.72 198.8,256.47 177.58,259.94 		"/>
		<polygon class="st20" points="177.58,285.44 198.8,281.97 198.8,278.77 177.58,282.24 		"/>
	</g>
	<g>
		<path class="st17" d="M244.28,247.92c-2.73-0.05-5.45-0.11-8.18-0.16c-2.09-0.04-4.21-0.08-6.25,0.39
			c-4.39,1.02-6.53,4.24-8.33,8.06c-4.08,8.65-7.55,17.86-10.25,26.99c-1.11,3.77-2.09,8.04-0.79,11.88
			c1.23,3.65,5.44,4.63,8.82,4.95c4.82,0.46,9.68,0.47,14.5,0.02"/>
	</g>
	<g>
		<path class="st17" d="M274.33,247.92c2.73-0.05,5.45-0.11,8.18-0.16c2.09-0.04,4.21-0.08,6.25,0.39c4.39,1.02,6.53,4.24,8.33,8.06
			c4.08,8.65,7.55,17.86,10.25,26.99c1.11,3.77,2.09,8.04,0.79,11.88c-1.23,3.65-5.44,4.63-8.82,4.95
			c-4.82,0.46-9.68,0.47-14.5,0.02"/>
	</g>
	<polygon class="st21" points="255.83,445.83 284.85,333.94 258.06,334.86 241.26,445.83 	"/>
	<path class="st22" d="M334.65,337.81l-1.76,11.88l-107.07-12.58c-8-0.94-13.36-8.69-11.41-16.51l0,0
		c1.8-7.21,9.13-11.57,16.32-9.71L334.65,337.81z"/>
	<rect x="136.08" y="301.33" class="st15" width="241.86" height="9.13"/>
	<path class="st15" d="M326.35,305.59h-15.74l33.66,156.39c0.28,1.13,1.35,1.84,2.45,1.63l0.53-0.1c1.1-0.22,1.85-1.29,1.72-2.45
		L326.35,305.59z"/>
	<path class="st15" d="M187.31,305.59h15.74l-33.66,156.39c-0.28,1.13-1.35,1.84-2.45,1.63l-0.53-0.1c-1.1-0.22-1.85-1.29-1.72-2.45
		L187.31,305.59z"/>
	<g>
		<path class="st23" d="M260.53,245.94l-36.85-0.02c-1.7,0-3.03,1.45-2.88,3.14l4.26,48.02c0.13,1.49,1.38,2.63,2.88,2.63h28.62
			h7.94h28.62c1.5,0,2.75-1.14,2.88-2.63l4.26-48.02c0.15-1.69-1.18-3.15-2.88-3.14L260.53,245.94z"/>
		<g class="st24">
			<path class="st23" d="M295.99,297.09l1.09-12.32c-5.41-5.42-11.82-9.86-19.11-12.07c-8.18-2.48-16.95-2.04-25.35-3.61
				c-4.98-0.93-10.09-2.76-13.29-6.69c-1.95-2.41-3.03-5.41-3.74-8.43c-0.62-2.64-0.98-5.33-1.1-8.04l-10.82,0
				c-1.7,0-3.03,1.45-2.88,3.14l4.26,48.02c0.13,1.49,1.38,2.63,2.88,2.63h28.62h7.94h28.62
				C294.61,299.73,295.86,298.59,295.99,297.09z"/>
		</g>
		<path class="st25" d="M295.43,300.31h-70.42c-0.82,0-1.49-0.67-1.49-1.49l0,0c0-0.82,0.67-1.49,1.49-1.49h70.42
			c0.82,0,1.49,0.67,1.49,1.49l0,0C296.92,299.65,296.25,300.31,295.43,300.31z"/>
		<path class="st0" d="M266.99,271.72c0,3.57-2.89,6.46-6.46,6.46c-3.57,0-6.46-2.89-6.46-6.46c0-3.57,2.89-6.46,6.46-6.46
			C264.1,265.25,266.99,268.15,266.99,271.72z"/>
	</g>
	<g>
		<g>
			<path class="st26" d="M343.92,297.49h-4.34c-4.78,0-8.67-3.89-8.67-8.66v-3.95c0-4.78,3.89-8.67,8.67-8.67h4.34
				c4.78,0,8.66,3.89,8.66,8.67v3.95C352.59,293.61,348.7,297.49,343.92,297.49z M339.59,279.32c-3.07,0-5.57,2.5-5.57,5.57v3.95
				c0,3.07,2.5,5.57,5.57,5.57h4.34c3.07,0,5.57-2.5,5.57-5.57v-3.95c0-3.07-2.5-5.57-5.57-5.57H339.59z"/>
		</g>
		<path class="st17" d="M332.04,268.41c-7.61,0-13.77,1.82-13.77,4.07l2.94,26.55c0.14,1.28,1.23,2.25,2.52,2.25l15.83-0.02
			c1.26,0,2.32-0.93,2.5-2.18l3.76-26.61C345.82,270.23,339.65,268.41,332.04,268.41z"/>
		<g class="st27">
			<path class="st17" d="M342.06,299.08l0.76-5.41c-3.41-2.32-7.17-4.14-10.3-6.83c-4.05-3.48-6.88-8.36-7.88-13.61
				c-0.26-1.35-0.39-2.73-0.41-4.11c-3.6,0.73-5.96,1.96-5.96,3.35l2.94,26.55c0.14,1.28,1.23,2.25,2.52,2.25l15.83-0.02
				C340.82,301.26,341.89,300.33,342.06,299.08z"/>
		</g>
		<g>
			<path class="st26" d="M343.77,273.45c0,1.75-5.27,3.17-11.77,3.17c-6.5,0-11.77-1.42-11.77-3.17s5.27-3.17,11.77-3.17
				C338.51,270.28,343.77,271.7,343.77,273.45z"/>
			<path class="st28" d="M321.22,274.71c1.81,1.12,5.96,1.91,10.79,1.91c4.83,0,8.98-0.78,10.79-1.91
				c-1.81-1.12-5.96-1.91-10.79-1.91C327.18,272.8,323.03,273.59,321.22,274.71z"/>
		</g>
	</g>
	<g>
		<path class="st17" d="M175.12,301.45h-16.37v-54.14c0-1.42,1.15-2.56,2.56-2.56h11.24c1.42,0,2.56,1.15,2.56,2.56V301.45z"/>
		<rect x="158.75" y="289.13" class="st20" width="16.37" height="7.34"/>
		<path class="st19" d="M170.14,253.9c0-1.77-1.43-3.2-3.2-3.2c-1.77,0-3.2,1.43-3.2,3.2c0,1.77,1.43,3.2,3.2,3.2
			C168.71,257.11,170.14,255.67,170.14,253.9z"/>
		<rect x="158.75" y="283.01" class="st19" width="16.37" height="2.76"/>
	</g>
	<g class="st29">
		<path class="st18" d="M255.41,235.31c4.39,0.64,8.87,0.73,13.28,0.24v-6.94h-13.28V235.31z"/>
	</g>
	<path class="st18" d="M262.05,231.77L262.05,231.77c-13.05,0-23.88-10.4-24.76-23.8l-0.69-10.46
		c-0.97-14.75,10.39-27.26,24.76-27.26h1.38c14.37,0,25.74,12.51,24.76,27.26l-0.69,10.46C285.93,221.37,275.1,231.77,262.05,231.77
		z"/>
	<g>
		<g>
			<path class="st30" d="M259.93,195.63c0.69,4,1.39,7.99,2.08,11.99c0.2-0.2,0.4-0.4,0.61-0.61c-1.66-0.55-3.32-1.09-4.98-1.64
				c-0.37-0.12-0.69,0.26-0.61,0.61c0.54,2.16,1.35,4.14,2.49,6.05c0.32,0.55,1.18,0.05,0.85-0.5c-1.09-1.83-1.88-3.74-2.39-5.82
				c-0.2,0.2-0.4,0.4-0.61,0.61c1.66,0.55,3.32,1.09,4.98,1.64c0.39,0.13,0.67-0.26,0.61-0.61c-0.69-4-1.39-7.99-2.08-11.99
				C260.77,194.75,259.82,195.01,259.93,195.63L259.93,195.63z"/>
		</g>
		<g>
			<path class="st30" d="M251.03,204.07c0.11,1.7,0.21,3.41,0.32,5.11c0.05,0.79,1.29,0.8,1.24,0c-0.11-1.7-0.21-3.41-0.32-5.11
				C252.22,203.28,250.98,203.28,251.03,204.07L251.03,204.07z"/>
		</g>
		<g>
			<path class="st30" d="M273.07,204.07c-0.11,1.7-0.21,3.41-0.32,5.11c-0.05,0.79-1.29,0.8-1.24,0c0.11-1.7,0.21-3.41,0.32-5.11
				C271.88,203.28,273.12,203.28,273.07,204.07L273.07,204.07z"/>
		</g>
		<g>
			<path class="st30" d="M257.05,212.87c1.11,3.56,5.53,4.54,7.96,1.65c0.41-0.48-0.29-1.19-0.7-0.7c-1.93,2.29-5.4,1.69-6.31-1.21
				C257.82,212,256.86,212.26,257.05,212.87L257.05,212.87z"/>
		</g>
	</g>
	<g>
		<path class="st16" d="M237.71,192.11c0.9,2.74,1.54,5.57,1.6,8.45c0.06,2.88-0.47,5.8-1.83,8.34c-2.29-5.42-2.85-11.55-1.57-17.29
			"/>
	</g>
	<g>
		<path class="st16" d="M285.64,193.11c-1.81,5.53-1.35,11.77,1.27,16.97c2.65-4.14,2.75-9.47,1.58-14.24
			c-0.07-0.3-0.15-0.64,0.03-0.9"/>
	</g>
	<path class="st31" d="M254.87,215.58c0,2.24-2.49,4.06-5.55,4.06s-5.55-1.82-5.55-4.06c0-2.24,2.49-4.06,5.55-4.06
		S254.87,213.34,254.87,215.58z"/>
	<ellipse class="st31" cx="273.07" cy="215.58" rx="5.55" ry="4.06"/>
	<path class="st18" d="M294.65,217.22c-3.59,3.48-8.76,3.96-11.56,1.07c-2.79-2.88-2.15-8.04,1.44-11.52
		c3.59-3.48,8.76-3.96,11.56-1.07C298.88,208.59,298.24,213.74,294.65,217.22z"/>
	<g>
		<g>
			<path class="st30" d="M287.96,217.47c-0.52-4.38,2.3-8.11,6.66-8.79c0.45-0.07,0.26-0.75-0.19-0.69
				c-4.65,0.72-7.73,4.8-7.19,9.47C287.3,217.92,288.01,217.92,287.96,217.47L287.96,217.47z"/>
		</g>
		<g>
			<path class="st30" d="M290.24,210.53c0.72,1.62,0.28,3.47-1.02,4.65c-0.34,0.31,0.16,0.81,0.5,0.5c1.55-1.41,1.97-3.61,1.13-5.51
				C290.67,209.75,290.06,210.11,290.24,210.53L290.24,210.53z"/>
		</g>
	</g>
	<path class="st18" d="M230.47,217.22c3.59,3.48,8.76,3.96,11.56,1.07c2.79-2.88,2.15-8.04-1.44-11.52
		c-3.59-3.48-8.76-3.96-11.56-1.07C226.23,208.59,226.88,213.74,230.47,217.22z"/>
	<g>
		<g>
			<path class="st30" d="M237.16,217.47c0.52-4.38-2.3-8.11-6.66-8.79c-0.45-0.07-0.26-0.75,0.19-0.69c4.65,0.72,7.73,4.8,7.19,9.47
				C237.81,217.92,237.1,217.92,237.16,217.47L237.16,217.47z"/>
		</g>
		<g>
			<path class="st30" d="M234.87,210.53c-0.72,1.62-0.28,3.47,1.02,4.65c0.34,0.31-0.16,0.81-0.5,0.5
				c-1.55-1.41-1.97-3.61-1.13-5.51C234.44,209.75,235.05,210.11,234.87,210.53L234.87,210.53z"/>
		</g>
	</g>
	<g>
		<path class="st16" d="M260.8,167.25c-8.92,0.54-17.89,5.1-22.66,12.26c-1.01,1.51-4.89,14.23-2.93,14.87
			c2.82,0.91,5.78,1.37,8.74,1.34c0.98-2.76,1.96-5.53,2.94-8.29c-0.51,2.62-0.62,5.31-0.35,7.97c0.03,0.3,0.08,0.63,0.3,0.83
			c0.2,0.18,0.48,0.22,0.75,0.24c4.49,0.46,9,0.6,13.51,0.42c0.63-3.28,1.25-6.55,1.88-9.83c0.39,3.18,0.77,6.37,1.16,9.55
			c3.93,0.12,7.87,0.25,11.8,0.37c0.17-2.67,0.17-5.35,0.01-8.03c0.79,2.65,1.59,5.3,2.38,7.94c3.69-0.08,7.43-0.01,11.11-0.38
			c0.16-0.02-0.14-5.69-0.25-6.27c-0.42-2.13-1.11-4.42-2.02-6.41c-1.72-3.75-4.42-6.97-7.42-9.8c-1.48-1.39-3.05-2.7-4.81-3.72
			C270.73,167.9,265.77,166.95,260.8,167.25z"/>
	</g>
	<path class="st16" d="M235.63,454.32c-0.03-0.35-0.05-0.71-0.05-1.07c0-6.8,5.51-12.3,12.3-12.3c6.8,0,12.3,5.51,12.3,12.3
		c0,0.36-0.02,0.72-0.05,1.07H235.63z"/>
	<path class="st17" d="M236.71,456.91h22.34c1.63,0,2.95-1.32,2.95-2.95l0,0c0-1.63-1.32-2.95-2.95-2.95h-22.34
		c-1.63,0-2.95,1.32-2.95,2.95l0,0C233.76,455.59,235.08,456.91,236.71,456.91z"/>
	<path class="st32" d="M373.25,135.27h-42.18c-11.2,0-20.29,9.08-20.29,20.29v16.88c0,9.81,6.96,17.99,16.22,19.88l0.94,9.9
		l10.14-9.49h35.17c11.2,0,20.29-9.08,20.29-20.29v-16.88C393.53,144.35,384.45,135.27,373.25,135.27z"/>
	<path class="st17" d="M187.14,111.63h35.02c9.3,0,16.84,7.54,16.84,16.84v14.01c0,8.14-5.78,14.94-13.46,16.5l-0.78,8.21
		l-8.42-7.87h-29.2c-9.3,0-16.84-7.54-16.84-16.84v-14.01C170.3,119.17,177.84,111.63,187.14,111.63z"/>
	<g>
		
			<ellipse transform="matrix(0.1692 -0.9856 0.9856 0.1692 134.0387 349.5056)" class="st17" cx="274.33" cy="95.25" rx="16.26" ry="16.26"/>
		<g class="st24">
			<path class="st17" d="M282.12,109.52c-2.81-0.87-5.51-2.09-8.01-3.63c-2.06-1.27-4.02-2.79-5.37-4.8
				c-1.65-2.45-2.28-5.48-2.35-8.44c-0.11-4.51,1.04-9.04,3.26-12.97c-6.7,2.01-11.58,8.22-11.58,15.57
				c0,8.98,7.28,16.26,16.26,16.26C277.15,111.51,279.81,110.79,282.12,109.52z"/>
		</g>
		<rect x="273.36" y="0.58" class="st32" width="1.93" height="62.1"/>
		<path class="st33" d="M280.42,62.68h-12.18V58.1c0-3.36,2.73-6.09,6.09-6.09l0,0c3.36,0,6.09,2.73,6.09,6.09V62.68z"/>
		<path class="st32" d="M309.84,97.2v-5.77c0-19.61-15.9-35.51-35.51-35.51h0c-19.61,0-35.51,15.9-35.51,35.51v5.77H309.84z"/>
		<g class="st34">
			<path class="st32" d="M263.03,74.87c4.51-8.04,10.99-14.03,18.56-18.2c-2.35-0.49-4.78-0.76-7.27-0.76h0
				c-19.61,0-35.51,15.9-35.51,35.51v5.77h17.92C257.06,89.11,259.76,80.7,263.03,74.87z"/>
		</g>
		<g class="st35">
			<path class="st15" d="M292.08,67.32c3.62,2.99,6.45,6.6,8.5,10.83c0.86,1.77,3.48,0.22,2.63-1.54
				c-2.14-4.43-5.18-8.31-8.97-11.45C292.73,63.92,290.56,66.06,292.08,67.32L292.08,67.32z"/>
		</g>
	</g>
	<g>
		<g>
			<path class="st36" d="M30.28,323.82c1.51-11.3,11.08-18.8,21.76-21.07c12.23-2.6,21.99,6.03,28.43,15.31
				c13.37,19.26,13.56,41.94,12.78,64.46c-0.05,1.31,1.99,1.31,2.03,0c0.9-26.07-0.15-52.83-19.05-72.95
				c-7.87-8.38-18.69-11.13-29.56-7.46c-9.69,3.28-17.09,11.57-18.44,21.71C28.08,325.11,30.11,325.1,30.28,323.82L30.28,323.82z"/>
		</g>
		<g>
			<g>
				<path class="st37" d="M151.07,346.55c5.2-2.91,11.17-4.42,17.13-4.4c0.67-3.19,0.99-6.44,0.89-9.67
					c-2.12-0.06-4.26,0.06-6.37,0.33c-4.81,0.62-9.51,1.92-14.24,3.03c-1.31,0.31-2.97,0.47-3.72-0.64
					c-0.76-1.12,0.03-2.62,0.93-3.62c2.33-2.6,5.45-4.36,8.64-5.77c4.08-1.81,8.39-3.11,12.78-3.91c-1.1-3.04-2.68-5.92-4.64-8.5
					c-8.04,0.57-15.74,3.68-23.5,6c-1.49,0.45-3.32,0.79-4.43-0.31c-1.36-1.35-0.47-3.68,0.73-5.17c2.75-3.42,6.72-5.65,10.8-7.28
					c1.87-0.75,3.78-1.38,5.69-2.01c-1.31-0.61-2.66-1.13-4.06-1.51c-5.65-1.54-11.83-0.13-16.81,2.75
					c-3.62,2.09-8.72,7.76-6.84,12.31c-7.35-3.12-14.54-4.19-21.12,0.71c-3.22,2.39-5.86,5.59-7.59,9.21
					c3.86-2.58,8.34-4.23,12.97-4.66c2.38-0.22,4.87-0.11,7.02,0.94c0.53,0.26,1.07,0.61,1.3,1.16c0.56,1.33-0.94,2.56-2.24,3.18
					c-5.44,2.59-11.33,4.28-16.48,7.4c-1.67,1.01-3.28,2.23-4.7,3.62c0.34,3.99,1.72,7.9,3.9,11.27c1.66-1.43,3.37-2.79,5.17-4.04
					c4.73-3.32,10.09-5.91,15.82-6.69c0.82-0.11,1.8-0.12,2.28,0.56c0.4,0.56,0.23,1.34-0.03,1.97c-0.78,1.85-2.26,3.3-3.77,4.61
					c-3.6,3.12-7.62,5.74-11.11,8.98c-0.53,0.49-1.05,1.01-1.55,1.54c0.48,0.32,0.96,0.62,1.46,0.9c2.93,1.62,6.12,2.59,9.36,3.46
					c0.29-0.34,0.56-0.69,0.86-1.01c3.15-3.44,7.33-6.39,11.99-6.42c1.46-0.01,3.23,0.57,3.47,2.01c0.18,1.08-0.61,2.05-1.37,2.83
					c-1.77,1.83-3.66,3.55-5.35,5.45c2.29,0.86,4.62,1.89,6.82,3.09c1.14-1.06,2.41-1.99,3.79-2.71c1.2-0.63,2.76-1.09,3.84-0.27
					c0.77,0.59,1.01,1.67,0.94,2.64c-0.13,1.78-1.06,3.31-2.16,4.78c1.69,1.58,3.07,3.5,3.75,5.7c4.71-3.41,9.27-7.23,13.29-11.52
					c-1.49-0.41-3.01-0.75-4.33-1.16c-1.36-0.43-3.22-1.37-2.59-3.13c0.61-1.74,3.25-1.72,4.73-1.82c2.34-0.16,4.68,0.03,7,0.38
					c1.94-2.61,3.67-5.36,5.11-8.28c0.36-0.72,0.69-1.46,1.01-2.2c-2.57-0.23-5.2-0.18-7.78-0.06c-2.3,0.11-4.69,0.24-6.83-0.62
					c-0.62-0.25-1.26-0.66-1.39-1.31C149.33,347.75,150.25,347.01,151.07,346.55z"/>
			</g>
		</g>
		<g>
			<path class="st36" d="M69.11,385.91c-1.04-26.08,0.58-51.91,18.9-72.16c3.99-4.41,8.89-7.74,14.93-8.22
				c6.89-0.55,12.8,4.19,17.06,9.04c8.65,9.83,12.45,23.67,15.47,36.08c0.31,1.27,2.27,0.73,1.96-0.54
				c-3.3-13.53-7.63-27.48-17.02-38.14c-7.96-9.04-19.65-11.06-29.38-3.79c-9.88,7.38-16.52,19.75-20.15,31.26
				c-4.7,14.89-4.41,31.05-3.8,46.47C67.13,387.22,69.16,387.22,69.11,385.91L69.11,385.91z"/>
		</g>
		<g>
			<path class="st37" d="M56.31,326.94c-4.2-7.91-12.8-9.23-20.79-9.97c-8.39-0.78-16.5,1.53-22.67,7.2
				c-5.96,5.48-9.78,13.03-11.65,20.9c-1,4.18-1.48,8.52-1.02,12.8c1.13,10.62,7.82,19.72,14.27,28.23
				c0.82-5.04,3.33-9.8,7.02-13.33c-3.53-2.44-6.45-5.77-8.39-9.6c-1.03-2.02-1.49-5.03,0.52-6.07c1.05-0.54,2.33-0.23,3.44,0.17
				c3.49,1.26,6.68,3.33,9.25,6.01c0.31,0.32,0.66,0.67,1.1,0.69c0.44,0.02,0.81-0.29,1.13-0.58c2.58-2.29,5.15-4.58,7.73-6.86
				c-3.16-2.42-6.11-5.12-8.81-8.05c-1.03-1.12-2.06-2.33-2.51-3.78c-0.45-1.46-0.2-3.24,0.99-4.2c1.88-1.51,4.65-0.24,6.6,1.17
				c3.07,2.21,5.94,4.72,8.53,7.47c3.49-1.44,6.5-4.03,8.44-7.27c-4.56-2.22-8.46-5.79-11.05-10.16c-0.76-1.27-1.39-2.95-0.52-4.15
				c0.58-0.8,1.64-1.08,2.62-1.12c4.9-0.19,8.73,4.15,11.04,8.48c1.51-1.88,3.02-3.77,4.53-5.65c0.24-0.29,0.48-0.6,0.55-0.97
				C56.74,327.82,56.53,327.35,56.31,326.94z"/>
		</g>
		<g>
			<g>
				<path class="st38" d="M111.04,344.85c5.77-1.5,11.92-1.45,17.69,0.06c1.45-2.92,2.59-5.98,3.3-9.13
					c-2.04-0.6-4.14-1.02-6.24-1.29c-4.81-0.62-9.69-0.55-14.54-0.66c-1.34-0.03-2.99-0.29-3.44-1.56
					c-0.45-1.27,0.69-2.53,1.81-3.27c2.91-1.93,6.37-2.84,9.82-3.4c4.41-0.72,8.9-0.89,13.35-0.55c-0.3-3.22-1.09-6.41-2.34-9.39
					c-7.92-1.48-16.16-0.42-24.26-0.13c-1.56,0.06-3.41-0.08-4.2-1.42c-0.97-1.65,0.47-3.68,2.01-4.82
					c3.52-2.62,7.93-3.77,12.29-4.32c2-0.25,4.01-0.38,6.01-0.51c-1.11-0.92-2.29-1.76-3.55-2.49c-5.07-2.92-11.41-3.12-16.96-1.59
					c-4.03,1.11-10.39,5.31-9.73,10.18c-6.33-4.88-13.01-7.73-20.62-4.65c-3.72,1.5-7.08,3.93-9.67,7
					c4.38-1.53,9.14-1.99,13.72-1.24c2.36,0.39,4.74,1.12,6.56,2.68c0.45,0.39,0.88,0.86,0.97,1.45c0.21,1.42-1.56,2.24-2.97,2.51
					c-5.92,1.14-12.04,1.28-17.82,3c-1.88,0.56-3.74,1.33-5.46,2.31c-0.68,3.95-0.33,8.08,0.93,11.89c1.97-0.96,3.97-1.84,6.02-2.61
					c5.42-2.02,11.26-3.17,17-2.48c0.82,0.1,1.77,0.34,2.06,1.12c0.24,0.64-0.11,1.35-0.53,1.9c-1.22,1.59-3.02,2.62-4.81,3.51
					c-4.27,2.11-8.82,3.63-13.02,5.88c-0.64,0.34-1.27,0.72-1.89,1.1c0.38,0.43,0.78,0.84,1.19,1.24c2.42,2.31,5.27,4.05,8.19,5.71
					c0.36-0.25,0.71-0.52,1.09-0.76c3.92-2.53,8.7-4.33,13.22-3.18c1.41,0.36,2.98,1.37,2.85,2.82c-0.1,1.09-1.11,1.83-2.04,2.4
					c-2.17,1.32-4.44,2.51-6.55,3.92c2,1.41,3.99,2.99,5.81,4.71c1.37-0.74,2.83-1.32,4.35-1.67c1.32-0.31,2.95-0.36,3.78,0.71
					c0.6,0.77,0.56,1.87,0.24,2.8c-0.58,1.69-1.86,2.94-3.3,4.08c1.23,1.96,2.09,4.16,2.18,6.46c5.42-2.11,10.79-4.66,15.77-7.79
					c-1.34-0.78-2.73-1.48-3.9-2.22c-1.21-0.76-2.77-2.13-1.72-3.68c1.03-1.53,3.58-0.85,5.03-0.57c2.31,0.44,4.52,1.21,6.67,2.14
					c2.53-2.03,4.9-4.26,7.03-6.72c0.53-0.61,1.04-1.24,1.53-1.88c-2.43-0.87-4.98-1.49-7.51-2.02c-2.25-0.48-4.6-0.95-6.45-2.33
					c-0.53-0.4-1.05-0.95-1.01-1.62C109.06,345.56,110.13,345.08,111.04,344.85z"/>
			</g>
		</g>
		<g class="st39">
			<path class="st38" d="M122.98,353.69c-0.1-0.56-0.22-1.11-0.35-1.66c-2.02-0.64-4.1-1.14-6.16-1.58
				c-2.25-0.48-4.6-0.95-6.45-2.33c-0.53-0.4-1.05-0.95-1.01-1.62c0.06-0.94,1.13-1.42,2.04-1.65c2.64-0.69,5.36-1.03,8.08-1.08
				c-2.5-3.95-5.82-7.19-9.49-10.13c-0.83-0.2-1.55-0.59-1.83-1.37c-0.01-0.02-0.01-0.04-0.01-0.07c-6.16-4.67-13-8.79-18.34-14.34
				c-2.17-2.25-4.12-4.79-5.28-7.69c-0.6-1.5-0.98-3.08-1.2-4.68c-3.64-1.16-7.45-1.22-11.53,0.43c-3.72,1.5-7.08,3.93-9.67,7
				c4.38-1.53,9.14-1.99,13.72-1.24c2.36,0.39,4.74,1.12,6.56,2.68c0.45,0.39,0.88,0.86,0.97,1.45c0.21,1.42-1.56,2.24-2.97,2.51
				c-5.92,1.14-12.04,1.28-17.82,3c-1.88,0.56-3.74,1.33-5.46,2.31c-0.68,3.95-0.33,8.08,0.93,11.89c1.97-0.96,3.97-1.84,6.02-2.61
				c5.42-2.02,11.26-3.17,17-2.48c0.82,0.1,1.77,0.34,2.06,1.12c0.24,0.64-0.11,1.35-0.53,1.9c-1.22,1.59-3.02,2.62-4.81,3.51
				c-4.27,2.11-8.82,3.63-13.02,5.88c-0.64,0.34-1.27,0.72-1.89,1.1c0.38,0.43,0.78,0.84,1.19,1.24c2.42,2.31,5.27,4.05,8.19,5.71
				c0.36-0.25,0.71-0.52,1.09-0.76c3.92-2.53,8.7-4.33,13.22-3.18c1.41,0.36,2.98,1.37,2.85,2.82c-0.1,1.09-1.11,1.83-2.04,2.4
				c-2.17,1.32-4.44,2.51-6.55,3.92c2,1.41,3.99,2.99,5.81,4.71c1.37-0.74,2.83-1.32,4.35-1.67c1.32-0.31,2.95-0.36,3.78,0.71
				c0.6,0.77,0.56,1.87,0.24,2.8c-0.58,1.69-1.86,2.94-3.3,4.08c1.23,1.96,2.09,4.16,2.18,6.46c5.42-2.11,10.79-4.66,15.77-7.79
				c-1.34-0.78-2.73-1.48-3.9-2.22c-1.21-0.76-2.77-2.13-1.72-3.68c1.03-1.53,3.58-0.85,5.03-0.57c2.31,0.44,4.52,1.21,6.67,2.14
				c2.53-2.03,4.9-4.26,7.03-6.72C122.63,354.13,122.8,353.91,122.98,353.69z"/>
		</g>
		<g>
			<path class="st40" d="M60.27,392.14c-4.45-16.33-8.48-32.92-8.39-49.95c0.06-10.85,1.29-22.68,6.77-32.26
				c6.57-11.49,21.75-11.84,30.24-2.13c8.22,9.41,8.19,24.61,9.32,36.34c0.12,1.29,2.16,1.3,2.03,0
				c-1.17-12.14-1.3-26.93-9.26-36.95c-7.24-9.11-21.09-11.62-30.01-3.5c-8.76,7.97-10.35,22.52-10.97,33.6
				c-1.07,18.83,3.39,37.36,8.31,55.39C58.65,393.94,60.62,393.41,60.27,392.14L60.27,392.14z"/>
		</g>
		<g>
			<polygon class="st17" points="80.57,381.84 79.52,381.84 45.2,381.84 55.74,450.94 79.52,450.94 80.57,450.94 104.35,450.94 
				114.89,381.84 			"/>
			<g class="st41">
				<polygon class="st15" points="51.56,423.51 106.41,381.84 80.92,381.84 48.91,406.16 				"/>
				<polygon class="st15" points="54.61,443.56 112.14,399.86 113.25,392.6 53.74,437.81 				"/>
				<polygon class="st15" points="109.77,415.43 63.02,450.94 79.52,450.94 80.57,450.94 88.52,450.94 106.43,437.33 				"/>
			</g>
			<g class="st42">
				<path class="st17" d="M104.66,448.95c-1.64-1.94-3.44-3.76-5.33-5.45c-6.07-5.42-13.09-9.66-19.83-14.21
					c-5.85-3.95-11.71-8.36-15.08-14.57c-1.86-3.44-2.87-7.28-3.56-11.12c-1.29-7.17-1.52-14.51-0.75-21.75H45.2l10.54,69.09h23.78
					h1.05h23.78L104.66,448.95z"/>
			</g>
			<polygon class="st43" points="116.38,394.5 43.82,394.5 41.76,378.94 118.44,378.94 			"/>
		</g>
		<g>
			<g class="st39">
				<path class="st15" d="M162.72,332.81c-4.81,0.62-9.51,1.92-14.24,3.03c-0.75,0.18-1.62,0.3-2.36,0.17
					c-3.6,7.75-9.29,14.48-12.42,22.45c-1.21,3.09-2,6.34-2.38,9.64c1.1-1,2.3-1.87,3.61-2.56c1.2-0.63,2.76-1.09,3.84-0.27
					c0.77,0.59,1.01,1.67,0.94,2.64c-0.13,1.78-1.06,3.31-2.16,4.78c1.69,1.58,3.07,3.5,3.75,5.7c4.71-3.41,9.27-7.23,13.29-11.52
					c-1.49-0.41-3.01-0.75-4.33-1.16c-1.36-0.43-3.22-1.37-2.59-3.13c0.61-1.74,3.25-1.72,4.73-1.82c2.34-0.16,4.68,0.03,7,0.38
					c1.94-2.61,3.67-5.36,5.11-8.28c0.36-0.72,0.69-1.46,1.01-2.2c-2.57-0.23-5.2-0.18-7.78-0.06c-2.3,0.11-4.69,0.24-6.83-0.62
					c-0.62-0.25-1.26-0.66-1.39-1.31c-0.18-0.92,0.73-1.66,1.55-2.11c5.2-2.91,11.17-4.42,17.13-4.4c0.67-3.19,0.99-6.44,0.89-9.67
					C166.96,332.41,164.83,332.54,162.72,332.81z"/>
			</g>
			<g class="st39">
				<path class="st15" d="M154.33,325.8c4.08-1.81,8.39-3.11,12.78-3.91c-1.1-3.04-2.68-5.92-4.64-8.5
					c-4.37,0.31-8.65,1.37-12.89,2.65c0.37,4.33,0.07,8.71-0.97,12.92C150.38,327.7,152.34,326.69,154.33,325.8z"/>
			</g>
			<g class="st39">
				<path class="st15" d="M146.19,302.79c0.48,1.09,0.92,2.2,1.3,3.33c1.41-0.52,2.84-1.01,4.27-1.48
					c-1.31-0.61-2.66-1.13-4.06-1.51C147.2,302.98,146.69,302.88,146.19,302.79z"/>
			</g>
		</g>
	</g>
</g>
</svg>
