<svg width="40" height="40" viewBox="0 0 40 40" fill="none" xmlns="http://www.w3.org/2000/svg">
<circle cx="20" cy="20" r="20" fill="#079477" fill-opacity="0.1"/>
<g clip-path="url(#clip0)">
<path d="M28.9086 10.5538C28.3475 10.5499 25.423 12.8819 25.4025 15.7839C25.3823 18.686 26.9269 19.8896 28.8428 19.8896C30.2985 19.8896 31.1052 18.7347 31.1259 15.8328C31.1462 12.9308 29.3677 10.557 28.9086 10.5538Z" fill="#87796F"/>
<path d="M28.9098 10.3883H28.9079C28.2139 10.3883 25.2577 12.8666 25.2373 15.7827C25.2269 17.2396 25.5967 18.3557 26.3359 19.1001C26.956 19.725 27.823 20.0551 28.843 20.0551C30.4931 20.0551 31.2711 18.7138 31.2914 15.8339C31.3123 12.8478 29.5026 10.3924 28.9098 10.3883ZM28.8428 19.7241C27.9131 19.7241 27.1275 19.4276 26.5708 18.867C25.8959 18.1872 25.5585 17.1504 25.568 15.785C25.5885 12.8946 28.5209 10.7193 28.9049 10.7193H28.9057C29.2529 10.7589 30.9804 12.9767 30.9602 15.8316C30.9356 19.3206 29.74 19.7241 28.8428 19.7241Z" fill="#3A312A"/>
<path d="M28.7067 15.8508C28.7197 14.0256 27.967 12.5326 27.6783 12.5307C27.3254 12.5283 25.4862 13.995 25.4733 15.82C25.4603 17.6452 26.4319 18.3937 27.637 18.4021C28.8418 18.4105 28.6938 17.6758 28.7067 15.8508Z" fill="#F16C7A"/>
<path d="M28.8722 15.8518C28.8799 14.75 28.6177 13.8739 28.4608 13.4496C28.3404 13.1245 28.0235 12.3676 27.6794 12.3654H27.6778C27.2152 12.3654 25.3213 13.9099 25.3078 15.8189C25.3013 16.7245 25.5269 17.4267 25.9778 17.9058C26.381 18.334 26.9543 18.5628 27.6356 18.5678H27.6567C28.0704 18.5678 28.3514 18.4801 28.5397 18.2926C28.8758 17.9578 28.8743 17.373 28.8717 16.4041C28.8713 16.2323 28.8709 16.0486 28.8722 15.8518ZM28.5408 16.4049C28.5432 17.2575 28.5447 17.8205 28.3061 18.058C28.1814 18.1821 27.9724 18.2409 27.638 18.2366C27.0491 18.2323 26.5585 18.0394 26.2189 17.6787C25.8281 17.2636 25.6331 16.6387 25.6387 15.821C25.651 14.0743 27.3807 12.7502 27.6662 12.6977C27.8716 12.8142 28.5535 14.1124 28.5412 15.8495C28.5399 16.0473 28.5403 16.2323 28.5408 16.4049Z" fill="#3A312A"/>
<path d="M28.9063 15.6273C28.6137 15.4321 28.3097 15.2597 27.9938 15.113C27.1427 14.7128 26.2175 14.4933 25.248 14.4933C21.6624 14.4933 18.6578 17.4958 17.8668 21.5323C17.8647 21.545 17.8614 21.5555 17.8593 21.5682C17.7918 21.9177 17.6218 22.2304 17.382 22.4721C17.1422 22.7162 16.8309 22.8895 16.4812 22.9591L12.5768 23.749C12.4268 23.7798 12.2906 23.8461 12.1775 23.9392C11.9674 24.1092 11.8364 24.3691 11.8364 24.6552L12.2176 25.9258L12.5884 27.1602L12.6813 27.4709C12.8207 28.1382 13.2356 28.2883 13.6655 28.3758L15.6577 28.6982L17.059 28.9248L18.6072 29.1754C19.0243 29.2588 19.3919 29.4954 19.6485 29.8343C21.0361 31.6657 23.03 32.8137 25.248 32.8137C26.4772 32.8137 28.4077 32.8254 30.0067 32.8381C31.5393 32.8495 32.7896 31.617 32.8012 30.0847L32.8075 29.2515C32.8213 27.5226 32.834 25.5203 32.834 23.6541C32.834 20.1962 31.2478 17.1861 28.9063 15.6273Z" fill="#FCE8CB"/>
<path d="M28.9985 15.4898C28.6973 15.2885 28.3829 15.1112 28.0647 14.9632C27.1675 14.5415 26.2199 14.3276 25.2484 14.3276C21.6344 14.3276 18.5324 17.2771 17.7048 21.5001C17.7046 21.5019 17.7022 21.5118 17.702 21.5135C17.7 21.5223 17.6981 21.5312 17.6972 21.5366C17.6371 21.8477 17.4876 22.1308 17.2644 22.356C17.042 22.5822 16.7602 22.7345 16.4486 22.7966L12.544 23.5867C12.3712 23.622 12.2083 23.6994 12.0736 23.8103C11.8179 24.0172 11.6711 24.3251 11.6711 24.655C11.6711 24.6711 11.6735 24.6871 11.6783 24.7026L12.5211 27.5114C12.6771 28.2459 13.1475 28.4389 13.6394 28.5389L15.6318 28.8612C15.7227 28.8755 15.807 28.8145 15.8216 28.7244C15.8361 28.6341 15.7749 28.5492 15.6846 28.5346L13.6991 28.2133C13.3031 28.1328 12.9654 28.0186 12.8437 27.4366C12.8428 27.4321 12.8418 27.4273 12.8402 27.423L12.0027 24.6317C12.0094 24.4111 12.1105 24.2064 12.2831 24.0665C12.3772 23.989 12.4903 23.9353 12.6101 23.9107L16.5141 23.1209C16.8905 23.0459 17.2316 22.8614 17.5001 22.5882C17.7692 22.317 17.9498 21.9748 18.0224 21.5993C18.0226 21.5977 18.0247 21.5878 18.0249 21.5865C18.0271 21.5775 18.0288 21.5687 18.0297 21.5637C18.8265 17.4979 21.7949 14.6583 25.2486 14.6583C26.1712 14.6583 27.0712 14.8617 27.9246 15.2627C28.2282 15.4038 28.5277 15.5727 28.8154 15.7647C31.1924 17.3475 32.6692 20.3703 32.6692 23.6535C32.6692 25.2055 32.661 26.9837 32.6429 29.2497L32.6364 30.0829C32.6312 30.7799 32.355 31.4332 31.8588 31.9219C31.3673 32.4063 30.7183 32.6721 30.0291 32.6721C30.0224 32.6721 30.0155 32.6721 30.0088 32.6719C28.091 32.6568 26.3117 32.6478 25.2486 32.6478C23.1771 32.6478 21.1843 31.5858 19.781 29.7341C19.4972 29.3592 19.0921 29.103 18.6343 29.0114L17.0864 28.7611C16.9957 28.747 16.9112 28.8078 16.8966 28.8979C16.8819 28.9881 16.9433 29.0733 17.0334 29.0879L18.5752 29.3372C18.9478 29.4118 19.2824 29.6236 19.5173 29.9338C20.9835 31.8689 23.0726 32.9788 25.2486 32.9788C26.3108 32.9788 28.0893 32.9878 30.0062 33.0029C30.0138 33.0031 30.0215 33.0031 30.0291 33.0031C30.8058 33.0031 31.5373 32.7034 32.0911 32.1578C32.6502 31.6069 32.9613 30.8709 32.9674 30.0855L32.9738 29.2521C32.9917 26.9852 33.0001 25.2061 33.0001 23.6535C32.9997 20.2612 31.4664 17.1329 28.9985 15.4898Z" fill="#3A312A"/>
<path d="M28.9062 15.6275C28.6141 15.4321 28.3096 15.2601 27.994 15.1126C27.1429 14.7124 26.2175 14.4935 25.2479 14.4935C21.6628 14.4935 18.6584 17.4962 17.8665 21.5321C17.8646 21.5444 17.8618 21.5556 17.8599 21.5678C19.2916 25.8097 24.1243 28.999 29.9924 29.3194C30.3145 29.3372 30.6405 29.3467 30.9695 29.3467C31.5933 29.3467 32.2067 29.3146 32.8081 29.2517C32.821 27.5222 32.8341 25.5203 32.8341 23.6533C32.8341 20.1962 31.2475 17.186 28.9062 15.6275Z" fill="#87796F"/>
<path d="M28.998 15.4898C28.6993 15.2901 28.385 15.1128 28.0642 14.963C27.1683 14.5416 26.2206 14.3281 25.2476 14.3281C21.6347 14.3281 18.5325 17.2773 17.7038 21.5002C17.7032 21.5024 17.701 21.5153 17.7006 21.5177C17.6989 21.5258 17.6973 21.534 17.6961 21.5426C17.692 21.5687 17.6943 21.5956 17.7027 21.6206C19.1823 26.0042 24.1173 29.1645 29.9829 29.4846C30.3117 29.5029 30.6435 29.5122 30.969 29.5122C31.5932 29.5122 32.2176 29.4799 32.8248 29.4163C32.9084 29.4075 32.9724 29.3373 32.9731 29.253C32.986 27.5422 32.9993 25.5391 32.9993 23.6533C32.9993 20.2611 31.4661 17.133 28.998 15.4898ZM32.6434 29.102C31.7822 29.1845 30.8928 29.2035 30.001 29.1541C24.2875 28.8421 19.4838 25.7907 18.0302 21.5556C18.8303 17.4945 21.7972 14.659 25.2476 14.659C26.1715 14.659 27.0717 14.862 27.9237 15.2625C28.2296 15.4056 28.5293 15.5745 28.8144 15.7652C31.1916 17.348 32.6684 20.3705 32.6684 23.6533C32.6684 25.4837 32.6559 27.425 32.6434 29.102Z" fill="#3A312A"/>
<path d="M12.1775 23.9391C11.9674 24.1091 11.8364 24.3689 11.8364 24.6551L12.2176 25.9257C12.7963 25.7229 13.2167 25.1515 13.2188 24.7693C13.2208 24.3763 12.7804 24.0414 12.1775 23.9391Z" fill="#3A312A"/>
<path d="M15.2912 24.8586C15.1999 24.8586 15.1258 24.9328 15.1258 25.0241C15.1258 26.0198 14.3152 26.8301 13.3189 26.8301C13.2588 26.8301 13.1972 26.8265 13.1295 26.8187C12.9261 26.7978 12.7324 26.744 12.5538 26.6586C12.4715 26.6194 12.3726 26.6543 12.3334 26.7368C12.2939 26.8191 12.3288 26.918 12.4114 26.9573C12.6242 27.059 12.8544 27.123 13.0939 27.1479C13.1726 27.1568 13.2461 27.1611 13.3189 27.1611C14.4977 27.1611 15.4567 26.2025 15.4567 25.0241C15.4567 24.9328 15.3828 24.8586 15.2912 24.8586Z" fill="#3A312A"/>
<path d="M24.2584 21.9096C23.2337 21.9096 22.4028 22.4287 22.4028 23.0692C22.4028 23.7096 23.2337 24.2289 24.2584 24.2289C25.2829 24.2289 26.1138 23.7098 26.1138 23.0692C26.1138 22.4289 25.2829 21.9096 24.2584 21.9096Z" fill="#F5978A"/>
<path d="M21.4752 19.9553C21.0268 19.9553 20.6633 20.3188 20.6633 20.767C20.6633 21.2154 21.0268 21.5788 21.4752 21.5788C21.9236 21.5788 22.2868 21.2154 22.2868 20.767C22.2868 20.3188 21.9236 19.9553 21.4752 19.9553Z" fill="#3A312A"/>
<path d="M11.5754 19.192C11.4681 20.4675 10.1387 20.669 10.1387 20.669C11.28 20.7226 11.5644 22.2199 11.5644 22.2199C11.5887 21.1522 13.0341 20.6532 13.0341 20.6532C11.9514 20.5884 11.5754 19.192 11.5754 19.192Z" fill="#D7E057"/>
<path d="M13.044 20.488C12.0946 20.4313 11.7387 19.1616 11.7353 19.1486C11.7141 19.0711 11.6398 19.0198 11.5605 19.0271C11.4806 19.0344 11.4174 19.0978 11.4106 19.1779C11.3157 20.3048 10.1626 20.4977 10.1139 20.5054C10.0299 20.5179 9.9691 20.5925 9.97363 20.6776C9.97793 20.7625 10.046 20.8301 10.1309 20.8342C11.127 20.8812 11.3996 22.2373 11.4021 22.2509C11.4172 22.3293 11.486 22.3853 11.5646 22.3853C11.5691 22.3853 11.5739 22.3851 11.5784 22.3847C11.6626 22.3776 11.7281 22.3082 11.7301 22.2237C11.7516 21.2852 13.075 20.8142 13.0884 20.8097C13.1629 20.7836 13.209 20.7086 13.198 20.6306C13.187 20.5524 13.1226 20.4927 13.044 20.488ZM11.5474 21.6293C11.3978 21.2841 11.1382 20.8674 10.7105 20.6502C11.0337 20.4951 11.4174 20.2184 11.6152 19.7375C11.7863 20.0762 12.0787 20.4966 12.5346 20.6998C12.2028 20.8805 11.771 21.1856 11.5474 21.6293Z" fill="#3A312A"/>
<path d="M9.18187 21.0651C9.10581 21.9675 8.16553 22.1099 8.16553 22.1099C8.97287 22.1478 9.17411 23.2068 9.17411 23.2068C9.19135 22.4518 10.2135 22.0987 10.2135 22.0987C9.44775 22.0528 9.18187 21.0651 9.18187 21.0651Z" fill="#D7E057"/>
<path d="M10.2234 21.9335C9.58711 21.8953 9.34385 21.0305 9.34148 21.0216C9.32058 20.9443 9.24732 20.8932 9.16695 20.9001C9.0868 20.9072 9.02367 20.971 9.01699 21.0509C8.953 21.8089 8.17345 21.941 8.1407 21.9462C8.05667 21.9589 7.99591 22.0332 8.00022 22.1183C8.00452 22.2032 8.07261 22.2711 8.15772 22.2752C8.8235 22.3064 9.00966 23.2286 9.01139 23.2377C9.02625 23.3163 9.0952 23.3723 9.17385 23.3723C9.17837 23.3723 9.1829 23.3721 9.18764 23.3717C9.27188 23.3648 9.33738 23.2952 9.33932 23.2105C9.35376 22.5807 10.2585 22.2582 10.2675 22.2549C10.3421 22.2293 10.3882 22.1543 10.3774 22.0761C10.3667 21.9979 10.3022 21.9382 10.2234 21.9335ZM9.16587 22.6831C9.06396 22.4751 8.90775 22.2476 8.67526 22.1007C8.87995 21.9858 9.08314 21.8106 9.21263 21.5583C9.32941 21.765 9.50544 21.9944 9.75775 22.1345C9.55371 22.256 9.31778 22.4368 9.16587 22.6831Z" fill="#3A312A"/>
<path d="M9.18187 18.1243C9.10581 19.0266 8.16553 19.1691 8.16553 19.1691C8.97287 19.207 9.17411 20.2662 9.17411 20.2662C9.19135 19.511 10.2135 19.1578 10.2135 19.1578C9.44775 19.112 9.18187 18.1243 9.18187 18.1243Z" fill="#D7E057"/>
<path d="M10.2234 18.9927C9.58732 18.9547 9.34385 18.0899 9.34148 18.081C9.32058 18.0037 9.24732 17.9524 9.16695 17.9595C9.0868 17.9666 9.02367 18.0304 9.01699 18.1106C8.953 18.8683 8.17345 19.0004 8.1407 19.0056C8.05667 19.0183 7.99591 19.0926 8.00022 19.1778C8.00452 19.2626 8.07261 19.3305 8.15772 19.3346C8.8235 19.3659 9.00966 20.288 9.0116 20.2971C9.02647 20.3757 9.0952 20.4317 9.17385 20.4317C9.17859 20.4317 9.18311 20.4313 9.18764 20.4311C9.2721 20.4242 9.33738 20.3546 9.33954 20.2699C9.35376 19.6401 10.2587 19.3174 10.2675 19.3144C10.3423 19.2885 10.3882 19.2137 10.3774 19.1355C10.3667 19.0571 10.3022 18.9976 10.2234 18.9927ZM9.16587 19.7425C9.06396 19.5343 8.90775 19.307 8.67526 19.1599C8.87995 19.045 9.08314 18.8699 9.21263 18.6175C9.32919 18.8244 9.50544 19.0539 9.75775 19.1937C9.55371 19.3152 9.31778 19.4962 9.16587 19.7425Z" fill="#3A312A"/>
<path d="M26.9889 10.3405C26.9012 10.1677 26.754 10.014 26.5056 9.97245L18.7185 8.283C18.0743 8.17505 17.413 8.24551 16.8061 8.48553L14.3493 9.55531L12.9691 10.158L10.9978 11.0168V14.7045L11.369 14.5284C11.6955 14.3737 12.0603 14.3151 12.4177 14.3578L13.3541 14.4709C14.5799 14.6181 15.8225 14.4164 16.9394 13.8885L22.0627 11.465L26.096 11.6195C26.2837 11.6259 26.464 11.5833 26.6219 11.5001C27.0324 11.2825 27.1987 10.7554 26.9889 10.3405Z" fill="#FCE8CB"/>
<path d="M27.1364 10.2658C27.0078 10.0118 26.799 9.85385 26.5406 9.81075L18.7458 8.1198C18.0723 8.00711 17.3806 8.08037 16.7399 8.33397L14.2831 9.40374C14.1993 9.44037 14.161 9.53776 14.1976 9.62158C14.234 9.70539 14.3314 9.74353 14.4152 9.70712L16.8668 8.63949C17.4461 8.41024 18.0772 8.34345 18.6833 8.44471L26.4779 10.1359C26.6408 10.163 26.7596 10.2544 26.841 10.4153C27.0101 10.7493 26.8742 11.1792 26.5445 11.3537C26.4096 11.4248 26.2558 11.4599 26.1022 11.4541L22.0689 11.2996C22.0416 11.299 22.0159 11.3039 21.9918 11.3153L16.8685 13.7389C15.7789 14.254 14.5704 14.4505 13.3739 14.3066L12.4373 14.1935C12.0468 14.1467 11.6528 14.211 11.2981 14.379L11.1632 14.443V11.1253L13.0352 10.3098C13.1188 10.2734 13.1571 10.176 13.1207 10.0921C13.0843 10.0083 12.9867 9.96998 12.9029 10.0064L10.9316 10.8652C10.8713 10.8915 10.8323 10.951 10.8323 11.0169V14.7046C10.8323 14.7612 10.8614 14.814 10.9092 14.8444C10.9361 14.8614 10.9669 14.8701 10.9978 14.8701C11.0219 14.8701 11.046 14.8647 11.0686 14.8541L11.4399 14.6781C11.7381 14.5367 12.069 14.4824 12.3976 14.5221L13.3345 14.6352C14.5932 14.7865 15.864 14.5798 17.01 14.0381L22.0967 11.6319L26.0901 11.7848C26.3028 11.7924 26.5133 11.7443 26.6992 11.6463C27.1931 11.3845 27.3894 10.7655 27.1364 10.2658Z" fill="#3A312A"/>
<path d="M21.3027 10.3623C20.8826 10.2479 20.4471 10.3147 20.063 10.3735C19.253 10.4974 18.5532 10.67 17.8126 10.8527C17.1089 11.0259 16.3813 11.2054 15.4615 11.3713C15.3717 11.3877 15.3118 11.4736 15.3281 11.5635C15.3426 11.6437 15.4122 11.6997 15.4906 11.6997C15.5003 11.6997 15.5102 11.6988 15.5203 11.6971C16.4505 11.5292 17.1831 11.3485 17.8917 11.1739C18.6249 10.9932 19.3177 10.8223 20.1129 10.7006C20.4646 10.6469 20.8634 10.5859 21.2159 10.6816C21.5167 10.7635 21.83 11.0154 21.847 11.3386C21.8517 11.4299 21.9321 11.501 22.0209 11.495C22.1122 11.4902 22.1823 11.4125 22.1775 11.3211C22.151 10.8186 21.7054 10.472 21.3027 10.3623Z" fill="#3A312A"/>
<path d="M10.1456 9.53119H8.18921V16.4006H10.1456C10.6164 16.4006 10.9982 16.019 10.9982 15.5482V10.3838C10.998 9.91299 10.6164 9.53119 10.1456 9.53119Z" fill="#F16C7A"/>
<path d="M10.1456 9.36566H8.18916C8.09759 9.36566 8.02368 9.43978 8.02368 9.53114V16.4005C8.02368 16.4919 8.09759 16.566 8.18916 16.566H10.1456C10.7068 16.566 11.1636 16.1095 11.1636 15.5482V10.3837C11.1634 9.82223 10.7068 9.36566 10.1456 9.36566ZM10.8325 15.5482C10.8325 15.9267 10.5244 16.2351 10.1456 16.2351H8.35463V9.69661H10.1456C10.5244 9.69661 10.8327 10.0049 10.8327 10.3837V15.5482H10.8325Z" fill="#3A312A"/>
<path d="M9.5936 10.3129C9.23851 10.3129 8.95044 10.6008 8.95044 10.9559C8.95044 11.311 9.2383 11.5988 9.5936 11.5988C9.94868 11.5988 10.2365 11.311 10.2365 10.9559C10.2365 10.601 9.94868 10.3129 9.5936 10.3129Z" fill="#87796F"/>
<path d="M9.59355 10.1473C9.14775 10.1473 8.78491 10.5102 8.78491 10.956C8.78491 11.4018 9.14775 11.7644 9.59355 11.7644C10.0393 11.7644 10.402 11.4016 10.402 10.956C10.402 10.5102 10.0393 10.1473 9.59355 10.1473ZM9.59355 11.4334C9.33025 11.4334 9.11586 11.2193 9.11586 10.956C9.11586 10.6927 9.33025 10.4783 9.59355 10.4783C9.85684 10.4783 10.071 10.6927 10.071 10.956C10.071 11.2191 9.85684 11.4334 9.59355 11.4334Z" fill="#3A312A"/>
<path d="M31.1508 29.5107L31.1465 30.0844C31.1376 31.2714 30.3852 32.2785 29.334 32.6668C29.5557 32.6691 29.7806 32.6702 30.008 32.6724C30.7063 32.6791 31.3626 32.411 31.8579 31.9221C32.3543 31.4335 32.6312 30.7804 32.6357 30.0832L32.6411 29.4335C32.1503 29.4788 31.6517 29.5053 31.1508 29.5107Z" fill="#DECAAD"/>
<path d="M28.8142 15.7652C28.5295 15.5743 28.2294 15.4055 27.9239 15.2621C27.0723 14.8617 26.1721 14.6588 25.2476 14.6588C25.1804 14.6588 25.1142 14.6598 25.0479 14.662C25.4936 14.7667 25.9261 14.919 26.3387 15.1132C26.6552 15.2599 26.9586 15.4321 27.252 15.6273C29.5931 17.1859 31.1793 20.1966 31.1793 23.6539C31.1793 25.4951 31.1672 27.4676 31.1541 29.1797C31.657 29.1754 32.1545 29.1489 32.6434 29.1015C32.6565 27.4245 32.6686 25.4841 32.6686 23.6539C32.6686 20.3709 31.1916 17.3482 28.8142 15.7652Z" fill="#695B51"/>
</g>
<defs>
<clipPath id="clip0">
<rect width="25" height="25" fill="white" transform="translate(8 8)"/>
</clipPath>
</defs>
</svg>
